<svg width="329" height="84" viewBox="0 0 329 84" fill="none" xmlns="http://www.w3.org/2000/svg">
<path d="M2.32 31V3H24.4V8.96H9.2V14H19.24V19.76H9.2V25.04H24.56V31H2.32ZM25.6984 31L33.7384 20.28L25.8184 9.84H33.3384L37.4984 15.52L41.6184 9.84H48.8584L41.0584 20.2L49.2984 31H41.7784L37.3384 24.96L32.9384 31H25.6984ZM51.1016 39.44V9.84H57.5016V11.4C58.3282 10.8133 59.2216 10.36 60.1816 10.04C61.1416 9.72 62.1416 9.56 63.1816 9.56C64.6749 9.56 66.0749 9.84 67.3816 10.4C68.7149 10.96 69.8616 11.7333 70.8216 12.72C71.8082 13.7067 72.5816 14.8667 73.1416 16.2C73.7016 17.5067 73.9816 18.92 73.9816 20.44C73.9816 21.96 73.6882 23.3867 73.1016 24.72C72.5416 26.0267 71.7682 27.1733 70.7816 28.16C69.7949 29.12 68.6216 29.88 67.2616 30.44C65.9282 31 64.5016 31.28 62.9816 31.28C61.9949 31.28 61.0482 31.16 60.1416 30.92C59.2349 30.68 58.3816 30.3333 57.5816 29.88V39.44H51.1016ZM62.0616 15.08C61.1549 15.08 60.3282 15.2267 59.5816 15.52C58.8349 15.7867 58.1682 16.2 57.5816 16.76V24.16C58.1416 24.6667 58.8082 25.0667 59.5816 25.36C60.3549 25.6533 61.1816 25.8 62.0616 25.8C63.6349 25.8 64.9549 25.2933 66.0216 24.28C67.0882 23.24 67.6216 21.96 67.6216 20.44C67.6216 18.92 67.0749 17.6533 65.9816 16.64C64.9149 15.6 63.6082 15.08 62.0616 15.08ZM96.6344 28.2C95.301 29.32 93.9277 30.1333 92.5144 30.64C91.1277 31.1467 89.5544 31.4 87.7944 31.4C86.1944 31.4 84.6877 31.12 83.2744 30.56C81.861 30 80.6344 29.2267 79.5944 28.24C78.581 27.2533 77.7677 26.0933 77.1544 24.76C76.5677 23.4 76.2744 21.96 76.2744 20.44C76.2744 18.92 76.5544 17.4933 77.1144 16.16C77.701 14.8 78.4877 13.6267 79.4744 12.64C80.461 11.6533 81.621 10.88 82.9544 10.32C84.3144 9.76 85.7677 9.48 87.3144 9.48C88.861 9.48 90.2877 9.77333 91.5944 10.36C92.901 10.9467 94.021 11.7467 94.9544 12.76C95.9144 13.7733 96.661 15 97.1944 16.44C97.7277 17.8533 97.9944 19.3867 97.9944 21.04V22.64H82.9144C83.341 23.6267 84.0077 24.44 84.9144 25.08C85.821 25.6933 86.8877 26 88.1144 26C88.9944 26 89.7944 25.8667 90.5144 25.6C91.2344 25.3067 91.8477 24.9067 92.3544 24.4L96.6344 28.2ZM87.1944 14.76C86.1277 14.76 85.2077 15.0533 84.4344 15.64C83.661 16.2267 83.1144 17.0533 82.7944 18.12H91.6344C91.2877 17.1067 90.7144 16.2933 89.9144 15.68C89.141 15.0667 88.2344 14.76 87.1944 14.76ZM101.023 31V9.84H107.503V11.96C108.197 11.1333 109.01 10.4933 109.943 10.04C110.877 9.58667 111.917 9.36 113.063 9.36C113.677 9.38667 114.17 9.44 114.543 9.52C114.917 9.57333 115.237 9.69333 115.503 9.88V15.52C115.077 15.3333 114.597 15.1867 114.063 15.08C113.53 14.9467 112.983 14.88 112.423 14.88C111.41 14.88 110.463 15.12 109.583 15.6C108.73 16.08 108.037 16.7333 107.503 17.56V31H101.023ZM121.529 7.88C120.542 7.88 119.702 7.53333 119.009 6.84C118.316 6.14666 117.969 5.30666 117.969 4.32C117.969 3.33333 118.316 2.49333 119.009 1.8C119.702 1.10667 120.542 0.759998 121.529 0.759998C122.516 0.759998 123.356 1.10667 124.049 1.8C124.742 2.49333 125.089 3.33333 125.089 4.32C125.089 5.30666 124.742 6.14666 124.049 6.84C123.356 7.53333 122.516 7.88 121.529 7.88ZM124.769 9.84V31H118.289V9.84H124.769ZM148.158 28.2C146.824 29.32 145.451 30.1333 144.038 30.64C142.651 31.1467 141.078 31.4 139.318 31.4C137.718 31.4 136.211 31.12 134.798 30.56C133.384 30 132.158 29.2267 131.118 28.24C130.104 27.2533 129.291 26.0933 128.678 24.76C128.091 23.4 127.798 21.96 127.798 20.44C127.798 18.92 128.078 17.4933 128.638 16.16C129.224 14.8 130.011 13.6267 130.998 12.64C131.984 11.6533 133.144 10.88 134.478 10.32C135.838 9.76 137.291 9.48 138.838 9.48C140.384 9.48 141.811 9.77333 143.118 10.36C144.424 10.9467 145.544 11.7467 146.478 12.76C147.438 13.7733 148.184 15 148.718 16.44C149.251 17.8533 149.518 19.3867 149.518 21.04V22.64H134.438C134.864 23.6267 135.531 24.44 136.438 25.08C137.344 25.6933 138.411 26 139.638 26C140.518 26 141.318 25.8667 142.038 25.6C142.758 25.3067 143.371 24.9067 143.878 24.4L148.158 28.2ZM138.718 14.76C137.651 14.76 136.731 15.0533 135.958 15.64C135.184 16.2267 134.638 17.0533 134.318 18.12H143.158C142.811 17.1067 142.238 16.2933 141.438 15.68C140.664 15.0667 139.758 14.76 138.718 14.76ZM152.547 31V9.84H159.027V11.28C159.8 10.6933 160.667 10.24 161.627 9.92C162.614 9.6 163.64 9.44 164.707 9.44C167.187 9.44 169.214 10.24 170.787 11.84C172.36 13.44 173.147 15.48 173.147 17.96V31H166.667V18.84C166.667 17.6933 166.307 16.7733 165.587 16.08C164.894 15.36 163.974 15 162.827 15C162 15 161.267 15.1467 160.627 15.44C159.987 15.7333 159.454 16.1467 159.027 16.68V31H152.547ZM187.56 25.8C188.44 25.8 189.253 25.6133 190 25.24C190.747 24.8667 191.467 24.2933 192.16 23.52L196 27.52C194.933 28.7467 193.627 29.7067 192.08 30.4C190.533 31.0667 188.92 31.4 187.24 31.4C185.667 31.4 184.187 31.12 182.8 30.56C181.44 30 180.253 29.2267 179.24 28.24C178.253 27.2533 177.467 26.0933 176.88 24.76C176.32 23.4267 176.04 21.9867 176.04 20.44C176.04 18.8933 176.32 17.4533 176.88 16.12C177.467 14.76 178.253 13.6 179.24 12.64C180.253 11.6533 181.44 10.88 182.8 10.32C184.187 9.73333 185.667 9.44 187.24 9.44C188.973 9.44 190.627 9.78667 192.2 10.48C193.773 11.1733 195.107 12.1333 196.2 13.36L192.24 17.48C191.493 16.6533 190.733 16.04 189.96 15.64C189.187 15.24 188.333 15.04 187.4 15.04C186.013 15.04 184.84 15.56 183.88 16.6C182.947 17.64 182.48 18.92 182.48 20.44C182.48 21.96 182.96 23.24 183.92 24.28C184.907 25.2933 186.12 25.8 187.56 25.8ZM217.181 28.2C215.848 29.32 214.475 30.1333 213.061 30.64C211.675 31.1467 210.101 31.4 208.341 31.4C206.741 31.4 205.235 31.12 203.821 30.56C202.408 30 201.181 29.2267 200.141 28.24C199.128 27.2533 198.315 26.0933 197.701 24.76C197.115 23.4 196.821 21.96 196.821 20.44C196.821 18.92 197.101 17.4933 197.661 16.16C198.248 14.8 199.035 13.6267 200.021 12.64C201.008 11.6533 202.168 10.88 203.501 10.32C204.861 9.76 206.315 9.48 207.861 9.48C209.408 9.48 210.835 9.77333 212.141 10.36C213.448 10.9467 214.568 11.7467 215.501 12.76C216.461 13.7733 217.208 15 217.741 16.44C218.275 17.8533 218.541 19.3867 218.541 21.04V22.64H203.461C203.888 23.6267 204.555 24.44 205.461 25.08C206.368 25.6933 207.435 26 208.661 26C209.541 26 210.341 25.8667 211.061 25.6C211.781 25.3067 212.395 24.9067 212.901 24.4L217.181 28.2ZM207.741 14.76C206.675 14.76 205.755 15.0533 204.981 15.64C204.208 16.2267 203.661 17.0533 203.341 18.12H212.181C211.835 17.1067 211.261 16.2933 210.461 15.68C209.688 15.0667 208.781 14.76 207.741 14.76ZM229.383 31V9.84H235.863V11.2C236.609 10.6133 237.423 10.1733 238.303 9.88C239.209 9.58667 240.156 9.44 241.143 9.44C242.449 9.44 243.636 9.70667 244.703 10.24C245.796 10.7467 246.703 11.4533 247.423 12.36C248.276 11.4267 249.289 10.7067 250.463 10.2C251.636 9.69333 252.916 9.44 254.303 9.44C256.703 9.44 258.663 10.24 260.183 11.84C261.729 13.44 262.503 15.48 262.503 17.96V31H256.023V18.84C256.023 17.6933 255.703 16.7733 255.063 16.08C254.449 15.36 253.623 15 252.583 15C251.863 15 251.209 15.1467 250.623 15.44C250.036 15.7067 249.529 16.0933 249.103 16.6C249.129 16.8133 249.143 17.04 249.143 17.28C249.169 17.4933 249.183 17.72 249.183 17.96V31H242.703V18.84C242.703 17.6933 242.383 16.7733 241.743 16.08C241.129 15.36 240.303 15 239.263 15C238.543 15 237.889 15.1333 237.303 15.4C236.743 15.64 236.263 16.0133 235.863 16.52V31H229.383ZM265.376 20.44C265.376 18.92 265.669 17.4933 266.256 16.16C266.869 14.8 267.683 13.6267 268.696 12.64C269.736 11.6533 270.949 10.88 272.336 10.32C273.749 9.73333 275.256 9.44 276.856 9.44C278.456 9.44 279.949 9.73333 281.336 10.32C282.749 10.88 283.963 11.6533 284.976 12.64C286.016 13.6267 286.829 14.8 287.416 16.16C288.029 17.4933 288.336 18.92 288.336 20.44C288.336 21.96 288.029 23.4 287.416 24.76C286.829 26.0933 286.016 27.2533 284.976 28.24C283.963 29.2267 282.749 30 281.336 30.56C279.949 31.12 278.456 31.4 276.856 31.4C275.256 31.4 273.749 31.12 272.336 30.56C270.949 30 269.736 29.2267 268.696 28.24C267.683 27.2533 266.869 26.0933 266.256 24.76C265.669 23.4 265.376 21.96 265.376 20.44ZM276.856 25.8C278.296 25.8 279.509 25.28 280.496 24.24C281.509 23.2 282.016 21.9333 282.016 20.44C282.016 18.92 281.509 17.64 280.496 16.6C279.509 15.56 278.296 15.04 276.856 15.04C275.416 15.04 274.189 15.56 273.176 16.6C272.189 17.64 271.696 18.92 271.696 20.44C271.696 21.9333 272.189 23.2 273.176 24.24C274.189 25.28 275.416 25.8 276.856 25.8ZM291.375 31V9.84H297.855V11.96C298.548 11.1333 299.362 10.4933 300.295 10.04C301.228 9.58667 302.268 9.36 303.415 9.36C304.028 9.38667 304.522 9.44 304.895 9.52C305.268 9.57333 305.588 9.69333 305.855 9.88V15.52C305.428 15.3333 304.948 15.1867 304.415 15.08C303.882 14.9467 303.335 14.88 302.775 14.88C301.762 14.88 300.815 15.12 299.935 15.6C299.082 16.08 298.388 16.7333 297.855 17.56V31H291.375ZM327.259 28.2C325.926 29.32 324.553 30.1333 323.139 30.64C321.753 31.1467 320.179 31.4 318.419 31.4C316.819 31.4 315.313 31.12 313.899 30.56C312.486 30 311.259 29.2267 310.219 28.24C309.206 27.2533 308.393 26.0933 307.779 24.76C307.193 23.4 306.899 21.96 306.899 20.44C306.899 18.92 307.179 17.4933 307.739 16.16C308.326 14.8 309.113 13.6267 310.099 12.64C311.086 11.6533 312.246 10.88 313.579 10.32C314.939 9.76 316.393 9.48 317.939 9.48C319.486 9.48 320.913 9.77333 322.219 10.36C323.526 10.9467 324.646 11.7467 325.579 12.76C326.539 13.7733 327.286 15 327.819 16.44C328.353 17.8533 328.619 19.3867 328.619 21.04V22.64H313.539C313.966 23.6267 314.633 24.44 315.539 25.08C316.446 25.6933 317.513 26 318.739 26C319.619 26 320.419 25.8667 321.139 25.6C321.859 25.3067 322.473 24.9067 322.979 24.4L327.259 28.2ZM317.819 14.76C316.753 14.76 315.833 15.0533 315.059 15.64C314.286 16.2267 313.739 17.0533 313.419 18.12H322.259C321.913 17.1067 321.339 16.2933 320.539 15.68C319.766 15.0667 318.859 14.76 317.819 14.76ZM5 68.56V59.24H0.72V53.84H5V48.4L11.48 47V53.84H17.4V59.24H11.48V67.28C11.48 68.2133 11.68 68.88 12.08 69.28C12.5067 69.6533 13.24 69.84 14.28 69.84C14.7867 69.84 15.2667 69.8133 15.72 69.76C16.1733 69.68 16.6667 69.56 17.2 69.4V74.64C16.6133 74.8267 15.8667 74.9733 14.96 75.08C14.0533 75.2133 13.2933 75.28 12.68 75.28C10.1467 75.28 8.22667 74.72 6.92 73.6C5.64 72.4533 5 70.7733 5 68.56ZM18.9697 64.44C18.9697 62.92 19.263 61.4933 19.8497 60.16C20.463 58.8 21.2764 57.6267 22.2897 56.64C23.3297 55.6533 24.543 54.88 25.9297 54.32C27.343 53.7333 28.8497 53.44 30.4497 53.44C32.0497 53.44 33.543 53.7333 34.9297 54.32C36.343 54.88 37.5564 55.6533 38.5697 56.64C39.6097 57.6267 40.423 58.8 41.0097 60.16C41.623 61.4933 41.9297 62.92 41.9297 64.44C41.9297 65.96 41.623 67.4 41.0097 68.76C40.423 70.0933 39.6097 71.2533 38.5697 72.24C37.5564 73.2267 36.343 74 34.9297 74.56C33.543 75.12 32.0497 75.4 30.4497 75.4C28.8497 75.4 27.343 75.12 25.9297 74.56C24.543 74 23.3297 73.2267 22.2897 72.24C21.2764 71.2533 20.463 70.0933 19.8497 68.76C19.263 67.4 18.9697 65.96 18.9697 64.44ZM30.4497 69.8C31.8897 69.8 33.103 69.28 34.0897 68.24C35.103 67.2 35.6097 65.9333 35.6097 64.44C35.6097 62.92 35.103 61.64 34.0897 60.6C33.103 59.56 31.8897 59.04 30.4497 59.04C29.0097 59.04 27.783 59.56 26.7697 60.6C25.783 61.64 25.2897 62.92 25.2897 64.44C25.2897 65.9333 25.783 67.2 26.7697 68.24C27.783 69.28 29.0097 69.8 30.4497 69.8ZM54.9641 75.08C53.4707 75.08 52.0574 74.8 50.7241 74.24C49.4174 73.68 48.2841 72.92 47.3241 71.96C46.3641 70.9733 45.6041 69.8267 45.0441 68.52C44.4841 67.1867 44.2041 65.7733 44.2041 64.28C44.2041 62.7867 44.4841 61.3867 45.0441 60.08C45.6307 58.7733 46.4174 57.64 47.4041 56.68C48.3907 55.72 49.5507 54.96 50.8841 54.4C52.2441 53.84 53.6841 53.56 55.2041 53.56C56.1641 53.56 57.0974 53.68 58.0041 53.92C58.9107 54.16 59.7507 54.5067 60.5241 54.96V53.84H66.9241V74.8C66.9241 77.6533 65.9774 79.84 64.0841 81.36C62.1907 82.9067 59.4841 83.68 55.9641 83.68C54.2841 83.68 52.6707 83.52 51.1241 83.2C49.5774 82.88 48.1774 82.4267 46.9241 81.84L49.0841 76.8C50.2307 77.3333 51.3641 77.7333 52.4841 78C53.6041 78.2667 54.7241 78.4 55.8441 78.4C57.3641 78.4 58.5107 78.0933 59.2841 77.48C60.0574 76.8667 60.4441 75.9467 60.4441 74.72V73.4C59.6441 73.9333 58.7774 74.3467 57.8441 74.64C56.9107 74.9333 55.9507 75.08 54.9641 75.08ZM50.5641 64.28C50.5641 65.8 51.0974 67.08 52.1641 68.12C53.2307 69.1333 54.5374 69.64 56.0841 69.64C56.9641 69.64 57.7641 69.5067 58.4841 69.24C59.2307 68.9733 59.8841 68.5867 60.4441 68.08V60.6C59.8841 60.12 59.2307 59.7467 58.4841 59.48C57.7374 59.1867 56.9507 59.04 56.1241 59.04C54.5774 59.04 53.2574 59.5467 52.1641 60.56C51.0974 61.5733 50.5641 62.8133 50.5641 64.28ZM90.3063 72.2C88.9729 73.32 87.5996 74.1333 86.1863 74.64C84.7996 75.1467 83.2263 75.4 81.4663 75.4C79.8663 75.4 78.3596 75.12 76.9463 74.56C75.5329 74 74.3063 73.2267 73.2663 72.24C72.2529 71.2533 71.4396 70.0933 70.8263 68.76C70.2396 67.4 69.9463 65.96 69.9463 64.44C69.9463 62.92 70.2263 61.4933 70.7863 60.16C71.3729 58.8 72.1596 57.6267 73.1463 56.64C74.1329 55.6533 75.2929 54.88 76.6263 54.32C77.9863 53.76 79.4396 53.48 80.9863 53.48C82.5329 53.48 83.9596 53.7733 85.2663 54.36C86.5729 54.9467 87.6929 55.7467 88.6263 56.76C89.5863 57.7733 90.3329 59 90.8663 60.44C91.3996 61.8533 91.6663 63.3867 91.6663 65.04V66.64H76.5863C77.0129 67.6267 77.6796 68.44 78.5863 69.08C79.4929 69.6933 80.5596 70 81.7863 70C82.6663 70 83.4663 69.8667 84.1863 69.6C84.9063 69.3067 85.5196 68.9067 86.0263 68.4L90.3063 72.2ZM80.8663 58.76C79.7996 58.76 78.8796 59.0533 78.1063 59.64C77.3329 60.2267 76.7863 61.0533 76.4663 62.12H85.3063C84.9596 61.1067 84.3863 60.2933 83.5863 59.68C82.8129 59.0667 81.9063 58.76 80.8663 58.76ZM96.9141 68.56V59.24H92.6341V53.84H96.9141V48.4L103.394 47V53.84H109.314V59.24H103.394V67.28C103.394 68.2133 103.594 68.88 103.994 69.28C104.421 69.6533 105.154 69.84 106.194 69.84C106.701 69.84 107.181 69.8133 107.634 69.76C108.087 69.68 108.581 69.56 109.114 69.4V74.64C108.527 74.8267 107.781 74.9733 106.874 75.08C105.967 75.2133 105.207 75.28 104.594 75.28C102.061 75.28 100.141 74.72 98.8341 73.6C97.5541 72.4533 96.9141 70.7733 96.9141 68.56ZM111.844 75V47L118.324 45.6V55.28C119.097 54.6933 119.964 54.24 120.924 53.92C121.91 53.6 122.937 53.44 124.004 53.44C126.484 53.44 128.51 54.24 130.084 55.84C131.657 57.44 132.444 59.48 132.444 61.96V75H125.964V62.84C125.964 61.6933 125.604 60.7733 124.884 60.08C124.19 59.36 123.27 59 122.124 59C121.297 59 120.564 59.1467 119.924 59.44C119.284 59.7333 118.75 60.1467 118.324 60.68V75H111.844ZM155.697 72.2C154.364 73.32 152.99 74.1333 151.577 74.64C150.19 75.1467 148.617 75.4 146.857 75.4C145.257 75.4 143.75 75.12 142.337 74.56C140.924 74 139.697 73.2267 138.657 72.24C137.644 71.2533 136.83 70.0933 136.217 68.76C135.63 67.4 135.337 65.96 135.337 64.44C135.337 62.92 135.617 61.4933 136.177 60.16C136.764 58.8 137.55 57.6267 138.537 56.64C139.524 55.6533 140.684 54.88 142.017 54.32C143.377 53.76 144.83 53.48 146.377 53.48C147.924 53.48 149.35 53.7733 150.657 54.36C151.964 54.9467 153.084 55.7467 154.017 56.76C154.977 57.7733 155.724 59 156.257 60.44C156.79 61.8533 157.057 63.3867 157.057 65.04V66.64H141.977C142.404 67.6267 143.07 68.44 143.977 69.08C144.884 69.6933 145.95 70 147.177 70C148.057 70 148.857 69.8667 149.577 69.6C150.297 69.3067 150.91 68.9067 151.417 68.4L155.697 72.2ZM146.257 58.76C145.19 58.76 144.27 59.0533 143.497 59.64C142.724 60.2267 142.177 61.0533 141.857 62.12H150.697C150.35 61.1067 149.777 60.2933 148.977 59.68C148.204 59.0667 147.297 58.76 146.257 58.76ZM160.086 75V53.84H166.566V55.96C167.259 55.1333 168.073 54.4933 169.006 54.04C169.939 53.5867 170.979 53.36 172.126 53.36C172.739 53.3867 173.233 53.44 173.606 53.52C173.979 53.5733 174.299 53.6933 174.566 53.88V59.52C174.139 59.3333 173.659 59.1867 173.126 59.08C172.593 58.9467 172.046 58.88 171.486 58.88C170.473 58.88 169.526 59.12 168.646 59.6C167.793 60.08 167.099 60.7333 166.566 61.56V75H160.086Z" fill="#FAFAFA"/>
</svg>
