<svg width="193" height="58" viewBox="0 0 193 58" fill="none" xmlns="http://www.w3.org/2000/svg">
<g clip-path="url(#clip0_0_223)">
<rect width="193" height="58" rx="29" fill="#B18BDD"/>
<path d="M40.928 35V23.8H45.472C46.2933 23.8 47.0667 23.9493 47.792 24.248C48.5173 24.536 49.1413 24.9307 49.664 25.432C50.1973 25.9333 50.6187 26.5307 50.928 27.224C51.2373 27.9067 51.392 28.6427 51.392 29.432C51.392 30.2 51.2373 30.9253 50.928 31.608C50.6187 32.2907 50.1973 32.8827 49.664 33.384C49.1413 33.8853 48.5173 34.28 47.792 34.568C47.0667 34.856 46.2933 35 45.472 35H40.928ZM45.408 26.232H43.68V32.568H45.408C45.8453 32.568 46.256 32.488 46.64 32.328C47.024 32.168 47.3547 31.9493 47.632 31.672C47.92 31.384 48.144 31.048 48.304 30.664C48.464 30.28 48.544 29.8693 48.544 29.432C48.544 28.984 48.464 28.568 48.304 28.184C48.144 27.7893 47.92 27.448 47.632 27.16C47.3547 26.872 47.024 26.648 46.64 26.488C46.256 26.3173 45.8453 26.232 45.408 26.232ZM52.3379 30.776C52.3379 30.168 52.4552 29.5973 52.6899 29.064C52.9352 28.52 53.2605 28.0507 53.6659 27.656C54.0819 27.2613 54.5672 26.952 55.1219 26.728C55.6872 26.4933 56.2899 26.376 56.9299 26.376C57.5699 26.376 58.1672 26.4933 58.7219 26.728C59.2872 26.952 59.7725 27.2613 60.1779 27.656C60.5939 28.0507 60.9192 28.52 61.1539 29.064C61.3992 29.5973 61.5219 30.168 61.5219 30.776C61.5219 31.384 61.3992 31.96 61.1539 32.504C60.9192 33.0373 60.5939 33.5013 60.1779 33.896C59.7725 34.2907 59.2872 34.6 58.7219 34.824C58.1672 35.048 57.5699 35.16 56.9299 35.16C56.2899 35.16 55.6872 35.048 55.1219 34.824C54.5672 34.6 54.0819 34.2907 53.6659 33.896C53.2605 33.5013 52.9352 33.0373 52.6899 32.504C52.4552 31.96 52.3379 31.384 52.3379 30.776ZM56.9299 32.92C57.5059 32.92 57.9912 32.712 58.3859 32.296C58.7912 31.88 58.9939 31.3733 58.9939 30.776C58.9939 30.168 58.7912 29.656 58.3859 29.24C57.9912 28.824 57.5059 28.616 56.9299 28.616C56.3539 28.616 55.8632 28.824 55.4579 29.24C55.0632 29.656 54.8659 30.168 54.8659 30.776C54.8659 31.3733 55.0632 31.88 55.4579 32.296C55.8632 32.712 56.3539 32.92 56.9299 32.92ZM66.7093 35H64.2133L61.9093 26.536H64.3573L65.6053 31.512L67.1253 26.536H69.2693L70.7893 31.528L72.0213 26.536H74.4373L72.1173 35H69.6373L68.1653 30.104L66.7093 35ZM75.3625 35V26.536H77.9545V27.112C78.2638 26.8773 78.6105 26.696 78.9945 26.568C79.3892 26.44 79.7998 26.376 80.2265 26.376C81.2185 26.376 82.0292 26.696 82.6585 27.336C83.2878 27.976 83.6025 28.792 83.6025 29.784V35H81.0105V30.136C81.0105 29.6773 80.8665 29.3093 80.5785 29.032C80.3012 28.744 79.9332 28.6 79.4745 28.6C79.1438 28.6 78.8505 28.6587 78.5945 28.776C78.3385 28.8933 78.1252 29.0587 77.9545 29.272V35H75.3625ZM87.7358 23.24V35H85.1438V23.8L87.7358 23.24ZM88.9473 30.776C88.9473 30.168 89.0646 29.5973 89.2993 29.064C89.5446 28.52 89.8699 28.0507 90.2753 27.656C90.6913 27.2613 91.1766 26.952 91.7313 26.728C92.2966 26.4933 92.8993 26.376 93.5393 26.376C94.1793 26.376 94.7766 26.4933 95.3313 26.728C95.8966 26.952 96.3819 27.2613 96.7873 27.656C97.2033 28.0507 97.5286 28.52 97.7633 29.064C98.0086 29.5973 98.1313 30.168 98.1313 30.776C98.1313 31.384 98.0086 31.96 97.7633 32.504C97.5286 33.0373 97.2033 33.5013 96.7873 33.896C96.3819 34.2907 95.8966 34.6 95.3313 34.824C94.7766 35.048 94.1793 35.16 93.5393 35.16C92.8993 35.16 92.2966 35.048 91.7313 34.824C91.1766 34.6 90.6913 34.2907 90.2753 33.896C89.8699 33.5013 89.5446 33.0373 89.2993 32.504C89.0646 31.96 88.9473 31.384 88.9473 30.776ZM93.5393 32.92C94.1153 32.92 94.6006 32.712 94.9953 32.296C95.4006 31.88 95.6033 31.3733 95.6033 30.776C95.6033 30.168 95.4006 29.656 94.9953 29.24C94.6006 28.824 94.1153 28.616 93.5393 28.616C92.9633 28.616 92.4726 28.824 92.0673 29.24C91.6726 29.656 91.4753 30.168 91.4753 30.776C91.4753 31.3733 91.6726 31.88 92.0673 32.296C92.4726 32.712 92.9633 32.92 93.5393 32.92ZM102.129 35.144C101.233 35.144 100.497 34.8987 99.921 34.408C99.345 33.9173 99.057 33.288 99.057 32.52C99.057 31.72 99.361 31.096 99.969 30.648C100.588 30.2 101.446 29.976 102.545 29.976C102.876 29.976 103.201 29.9973 103.521 30.04C103.841 30.0827 104.156 30.1413 104.465 30.216V29.8C104.465 29.3733 104.326 29.0587 104.049 28.856C103.782 28.6427 103.382 28.536 102.849 28.536C102.518 28.536 102.145 28.5893 101.729 28.696C101.313 28.8027 100.833 28.9733 100.289 29.208L99.361 27.304C100.044 26.9947 100.71 26.7653 101.361 26.616C102.022 26.456 102.673 26.376 103.313 26.376C104.486 26.376 105.398 26.6587 106.049 27.224C106.7 27.7787 107.025 28.5627 107.025 29.576V35H104.465V34.488C104.124 34.7227 103.761 34.8933 103.377 35C103.004 35.096 102.588 35.144 102.129 35.144ZM101.521 32.472C101.521 32.7387 101.638 32.9467 101.873 33.096C102.108 33.2453 102.433 33.32 102.849 33.32C103.158 33.32 103.446 33.288 103.713 33.224C103.99 33.16 104.241 33.0587 104.465 32.92V31.832C104.22 31.768 103.969 31.72 103.713 31.688C103.457 31.656 103.196 31.64 102.929 31.64C102.481 31.64 102.134 31.7147 101.889 31.864C101.644 32.0027 101.521 32.2053 101.521 32.472ZM114.774 35V34.376C114.443 34.6107 114.086 34.792 113.702 34.92C113.318 35.048 112.918 35.112 112.502 35.112C111.904 35.112 111.339 35 110.806 34.776C110.283 34.552 109.824 34.2427 109.43 33.848C109.046 33.4533 108.742 32.9947 108.518 32.472C108.294 31.9387 108.182 31.368 108.182 30.76C108.182 30.152 108.294 29.5867 108.518 29.064C108.752 28.5307 109.067 28.072 109.462 27.688C109.856 27.2933 110.32 26.984 110.854 26.76C111.398 26.536 111.974 26.424 112.582 26.424C112.976 26.424 113.355 26.472 113.718 26.568C114.08 26.664 114.422 26.8027 114.742 26.984V23.8L117.334 23.24V35H114.774ZM110.726 30.76C110.726 31.368 110.939 31.88 111.366 32.296C111.803 32.7013 112.331 32.904 112.95 32.904C113.312 32.904 113.643 32.8507 113.942 32.744C114.24 32.6267 114.507 32.456 114.742 32.232V29.272C114.518 29.0693 114.251 28.9093 113.942 28.792C113.632 28.6747 113.302 28.616 112.95 28.616C112.32 28.616 111.792 28.824 111.366 29.24C110.939 29.6453 110.726 30.152 110.726 30.76Z" fill="white"/>
<path d="M126.584 35L122.968 26.536H125.784L127.88 31.72L129.976 26.536H132.728L129.112 35H126.584ZM137.903 23.8V35H135.311V26.424L132.991 27.352V25.112L136.271 23.8H137.903ZM140.736 32.2C141.141 32.2 141.488 32.3493 141.776 32.648C142.075 32.936 142.224 33.2827 142.224 33.688C142.224 34.0933 142.075 34.4453 141.776 34.744C141.488 35.032 141.141 35.176 140.736 35.176C140.331 35.176 139.979 35.032 139.68 34.744C139.392 34.4453 139.248 34.0933 139.248 33.688C139.248 33.2827 139.392 32.936 139.68 32.648C139.979 32.3493 140.331 32.2 140.736 32.2ZM152.269 31.848C152.269 32.328 152.152 32.7707 151.917 33.176C151.682 33.5813 151.357 33.9333 150.941 34.232C150.536 34.52 150.045 34.7493 149.469 34.92C148.904 35.08 148.285 35.16 147.613 35.16C146.706 35.16 145.848 35 145.037 34.68C144.237 34.36 143.576 33.9173 143.053 33.352L144.797 31.752C145.224 32.2 145.64 32.5093 146.045 32.68C146.461 32.8507 146.973 32.936 147.581 32.936C148.2 32.936 148.696 32.8187 149.069 32.584C149.453 32.3493 149.645 32.0347 149.645 31.64C149.645 31.3093 149.48 31.048 149.149 30.856C148.829 30.664 148.381 30.568 147.805 30.568H146.749V28.504H147.533C148.066 28.504 148.504 28.376 148.845 28.12C149.186 27.8533 149.357 27.5173 149.357 27.112C149.357 26.7493 149.186 26.456 148.845 26.232C148.514 25.9973 148.088 25.88 147.565 25.88C147.032 25.88 146.568 25.976 146.173 26.168C145.789 26.3493 145.362 26.68 144.893 27.16L143.133 25.576C143.677 24.968 144.354 24.4933 145.165 24.152C145.976 23.8 146.808 23.624 147.661 23.624C148.29 23.624 148.872 23.704 149.405 23.864C149.938 24.0133 150.392 24.2267 150.765 24.504C151.138 24.7813 151.432 25.1173 151.645 25.512C151.858 25.9067 151.965 26.3387 151.965 26.808C151.965 27.352 151.826 27.8533 151.549 28.312C151.272 28.76 150.888 29.1227 150.397 29.4C150.973 29.624 151.426 29.9493 151.757 30.376C152.098 30.8027 152.269 31.2933 152.269 31.848Z" fill="#D9B8FF"/>
</g>
<defs>
<clipPath id="clip0_0_223">
<rect width="193" height="58" fill="white"/>
</clipPath>
</defs>
</svg>
