<svg width="540" height="304" viewBox="0 0 540 304" fill="none" xmlns="http://www.w3.org/2000/svg">
<path d="M139.613 32.344C139.613 35.7147 139.037 38.8293 137.885 41.688C136.733 44.5467 135.155 47.0213 133.149 49.112C131.144 51.16 128.733 52.7813 125.917 53.976C123.144 55.128 120.136 55.704 116.893 55.704C113.523 55.704 110.365 55.1067 107.421 53.912C104.52 52.7173 101.981 51.096 99.8053 49.048C97.6719 46.9573 95.9866 44.504 94.7493 41.688C93.5119 38.872 92.8932 35.8427 92.8932 32.6C92.8932 29.3573 93.5119 26.328 94.7493 23.512C95.9866 20.696 97.6719 18.264 99.8053 16.216C101.939 14.1253 104.456 12.4827 107.357 11.288C110.259 10.0933 113.373 9.496 116.701 9.496C120.499 9.496 124.083 10.2853 127.453 11.864C130.824 13.4427 133.576 15.576 135.709 18.264L127.965 25.24C126.515 23.4053 124.829 22.0187 122.909 21.08C120.989 20.0987 118.92 19.608 116.701 19.608C114.909 19.608 113.245 19.9493 111.709 20.632C110.173 21.272 108.851 22.168 107.741 23.32C106.675 24.472 105.821 25.8587 105.181 27.48C104.541 29.0587 104.221 30.7653 104.221 32.6C104.221 34.4773 104.541 36.2267 105.181 37.848C105.864 39.4267 106.76 40.8133 107.869 42.008C109.021 43.16 110.387 44.0773 111.965 44.76C113.544 45.4 115.251 45.72 117.085 45.72C119.645 45.72 121.885 45.08 123.805 43.8C125.768 42.4773 127.069 40.7707 127.709 38.68H115.613V29.144H139.613V32.344ZM144.919 55V21.144H155.287V24.536C156.396 23.2133 157.697 22.1893 159.191 21.464C160.684 20.7387 162.348 20.376 164.183 20.376C165.164 20.4187 165.953 20.504 166.551 20.632C167.148 20.7173 167.66 20.9093 168.087 21.208V30.232C167.404 29.9333 166.636 29.6987 165.783 29.528C164.929 29.3147 164.055 29.208 163.159 29.208C161.537 29.208 160.023 29.592 158.615 30.36C157.249 31.128 156.14 32.1733 155.287 33.496V55H144.919ZM169.758 38.104C169.758 35.672 170.227 33.3893 171.166 31.256C172.147 29.08 173.448 27.2027 175.07 25.624C176.734 24.0453 178.675 22.808 180.894 21.912C183.155 20.9733 185.566 20.504 188.126 20.504C190.686 20.504 193.075 20.9733 195.294 21.912C197.555 22.808 199.496 24.0453 201.118 25.624C202.782 27.2027 204.083 29.08 205.022 31.256C206.003 33.3893 206.494 35.672 206.494 38.104C206.494 40.536 206.003 42.84 205.022 45.016C204.083 47.1493 202.782 49.0053 201.118 50.584C199.496 52.1627 197.555 53.4 195.294 54.296C193.075 55.192 190.686 55.64 188.126 55.64C185.566 55.64 183.155 55.192 180.894 54.296C178.675 53.4 176.734 52.1627 175.07 50.584C173.448 49.0053 172.147 47.1493 171.166 45.016C170.227 42.84 169.758 40.536 169.758 38.104ZM188.126 46.68C190.43 46.68 192.371 45.848 193.95 44.184C195.571 42.52 196.382 40.4933 196.382 38.104C196.382 35.672 195.571 33.624 193.95 31.96C192.371 30.296 190.43 29.464 188.126 29.464C185.822 29.464 183.859 30.296 182.238 31.96C180.659 33.624 179.87 35.672 179.87 38.104C179.87 40.4933 180.659 42.52 182.238 44.184C183.859 45.848 185.822 46.68 188.126 46.68ZM221.468 21.144V40.6C221.468 42.4347 222.023 43.928 223.132 45.08C224.284 46.1893 225.778 46.744 227.612 46.744C228.935 46.744 230.108 46.5093 231.132 46.04C232.156 45.5707 233.01 44.9093 233.692 44.056V21.144H244.06V55H233.692V52.696C232.455 53.6347 231.047 54.36 229.468 54.872C227.932 55.384 226.311 55.64 224.604 55.64C220.636 55.64 217.394 54.36 214.876 51.8C212.359 49.24 211.1 45.976 211.1 42.008V21.144H221.468ZM250.481 68.504V21.144H260.721V23.64C262.044 22.7013 263.473 21.976 265.009 21.464C266.545 20.952 268.145 20.696 269.809 20.696C272.199 20.696 274.439 21.144 276.529 22.04C278.663 22.936 280.497 24.1733 282.033 25.752C283.612 27.3307 284.849 29.1867 285.745 31.32C286.641 33.4107 287.089 35.672 287.089 38.104C287.089 40.536 286.62 42.8187 285.681 44.952C284.785 47.0427 283.548 48.8773 281.969 50.456C280.391 51.992 278.513 53.208 276.337 54.104C274.204 55 271.921 55.448 269.489 55.448C267.911 55.448 266.396 55.256 264.945 54.872C263.495 54.488 262.129 53.9333 260.849 53.208V68.504H250.481ZM268.017 29.528C266.567 29.528 265.244 29.7627 264.049 30.232C262.855 30.6587 261.788 31.32 260.849 32.216V44.056C261.745 44.8667 262.812 45.5067 264.049 45.976C265.287 46.4453 266.609 46.68 268.017 46.68C270.535 46.68 272.647 45.8693 274.353 44.248C276.06 42.584 276.913 40.536 276.913 38.104C276.913 35.672 276.039 33.6453 274.289 32.024C272.583 30.36 270.492 29.528 268.017 29.528ZM327.841 45.464C330.017 45.464 332.023 44.9947 333.857 44.056C335.735 43.1173 337.42 41.7307 338.913 39.896L346.145 47C344.055 49.6027 341.303 51.6933 337.889 53.272C334.519 54.8507 331.041 55.64 327.457 55.64C324.087 55.64 320.908 55.0427 317.921 53.848C314.977 52.6533 312.439 51.032 310.305 48.984C308.172 46.936 306.487 44.504 305.249 41.688C304.012 38.872 303.393 35.8427 303.393 32.6C303.393 29.3573 304.012 26.328 305.249 23.512C306.487 20.6533 308.172 18.2 310.305 16.152C312.481 14.104 315.041 12.4827 317.985 11.288C320.929 10.0933 324.087 9.496 327.457 9.496C329.292 9.496 331.127 9.70933 332.961 10.136C334.796 10.5627 336.545 11.16 338.209 11.928C339.873 12.6533 341.409 13.5707 342.817 14.68C344.225 15.7467 345.441 16.9413 346.465 18.264L339.041 25.56C337.463 23.5973 335.692 22.1253 333.729 21.144C331.809 20.12 329.719 19.608 327.457 19.608C325.665 19.608 323.98 19.9493 322.401 20.632C320.865 21.272 319.521 22.168 318.369 23.32C317.26 24.472 316.364 25.8587 315.681 27.48C315.041 29.0587 314.721 30.7653 314.721 32.6C314.721 34.4347 315.041 36.1413 315.681 37.72C316.364 39.256 317.281 40.6 318.433 41.752C319.628 42.904 321.015 43.8213 322.593 44.504C324.215 45.144 325.964 45.464 327.841 45.464ZM350.294 55V10.2L360.662 7.96V23.448C361.899 22.5093 363.286 21.784 364.822 21.272C366.4 20.76 368.043 20.504 369.75 20.504C373.718 20.504 376.96 21.784 379.478 24.344C381.995 26.904 383.254 30.168 383.254 34.136V55H372.886V35.544C372.886 33.7093 372.31 32.2373 371.158 31.128C370.048 29.976 368.576 29.4 366.742 29.4C365.419 29.4 364.246 29.6347 363.222 30.104C362.198 30.5733 361.344 31.2347 360.662 32.088V55H350.294ZM400.235 55.576C396.651 55.576 393.707 54.5947 391.403 52.632C389.099 50.6693 387.947 48.152 387.947 45.08C387.947 41.88 389.163 39.384 391.595 37.592C394.069 35.8 397.504 34.904 401.899 34.904C403.221 34.904 404.523 34.9893 405.803 35.16C407.083 35.3307 408.341 35.5653 409.579 35.864V34.2C409.579 32.4933 409.024 31.2347 407.915 30.424C406.848 29.5707 405.248 29.144 403.115 29.144C401.792 29.144 400.299 29.3573 398.635 29.784C396.971 30.2107 395.051 30.8933 392.875 31.832L389.163 24.216C391.893 22.9787 394.56 22.0613 397.163 21.464C399.808 20.824 402.411 20.504 404.971 20.504C409.664 20.504 413.312 21.6347 415.915 23.896C418.517 26.1147 419.819 29.2507 419.819 33.304V55H409.579V52.952C408.213 53.8907 406.763 54.5733 405.227 55C403.733 55.384 402.069 55.576 400.235 55.576ZM397.803 44.888C397.803 45.9547 398.272 46.7867 399.211 47.384C400.149 47.9813 401.451 48.28 403.115 48.28C404.352 48.28 405.504 48.152 406.571 47.896C407.68 47.64 408.683 47.2347 409.579 46.68V42.328C408.597 42.072 407.595 41.88 406.571 41.752C405.547 41.624 404.501 41.56 403.435 41.56C401.643 41.56 400.256 41.8587 399.275 42.456C398.293 43.0107 397.803 43.8213 397.803 44.888ZM429.531 44.696V29.784H422.683V21.144H429.531V12.44L439.899 10.2V21.144H449.371V29.784H439.899V42.648C439.899 44.1413 440.219 45.208 440.859 45.848C441.542 46.4453 442.715 46.744 444.379 46.744C445.19 46.744 445.958 46.7013 446.683 46.616C447.409 46.488 448.198 46.296 449.051 46.04V54.424C448.113 54.7227 446.918 54.9573 445.467 55.128C444.017 55.3413 442.801 55.448 441.819 55.448C437.766 55.448 434.694 54.552 432.603 52.76C430.555 50.9253 429.531 48.2373 429.531 44.696ZM67.1208 85.144H74.5448V83.096C74.5448 79.128 75.7181 76.0773 78.0648 73.944C80.4541 71.8107 83.8674 70.744 88.3048 70.744C89.2008 70.744 90.1608 70.808 91.1848 70.936C92.2514 71.064 93.1261 71.2133 93.8088 71.384V79.96C92.9981 79.7893 92.2728 79.6827 91.6328 79.64C91.0354 79.5547 90.3954 79.512 89.7128 79.512C88.1341 79.512 86.9394 79.832 86.1288 80.472C85.3181 81.0693 84.9128 82.008 84.9128 83.288V85.144H93.8088V93.784H84.9128V119H74.5448V93.784H67.1208V85.144ZM96.0078 102.104C96.0078 99.672 96.4771 97.3893 97.4158 95.256C98.3971 93.08 99.6984 91.2027 101.32 89.624C102.984 88.0453 104.925 86.808 107.144 85.912C109.405 84.9733 111.816 84.504 114.376 84.504C116.936 84.504 119.325 84.9733 121.544 85.912C123.805 86.808 125.746 88.0453 127.368 89.624C129.032 91.2027 130.333 93.08 131.272 95.256C132.253 97.3893 132.744 99.672 132.744 102.104C132.744 104.536 132.253 106.84 131.272 109.016C130.333 111.149 129.032 113.005 127.368 114.584C125.746 116.163 123.805 117.4 121.544 118.296C119.325 119.192 116.936 119.64 114.376 119.64C111.816 119.64 109.405 119.192 107.144 118.296C104.925 117.4 102.984 116.163 101.32 114.584C99.6984 113.005 98.3971 111.149 97.4158 109.016C96.4771 106.84 96.0078 104.536 96.0078 102.104ZM114.376 110.68C116.68 110.68 118.621 109.848 120.2 108.184C121.821 106.52 122.632 104.493 122.632 102.104C122.632 99.672 121.821 97.624 120.2 95.96C118.621 94.296 116.68 93.464 114.376 93.464C112.072 93.464 110.109 94.296 108.488 95.96C106.909 97.624 106.12 99.672 106.12 102.104C106.12 104.493 106.909 106.52 108.488 108.184C110.109 109.848 112.072 110.68 114.376 110.68ZM137.606 119V85.144H147.974V88.536C149.084 87.2133 150.385 86.1893 151.878 85.464C153.372 84.7387 155.036 84.376 156.87 84.376C157.852 84.4187 158.641 84.504 159.238 84.632C159.836 84.7173 160.348 84.9093 160.774 85.208V94.232C160.092 93.9333 159.324 93.6987 158.47 93.528C157.617 93.3147 156.742 93.208 155.846 93.208C154.225 93.208 152.71 93.592 151.302 94.36C149.937 95.128 148.828 96.1733 147.974 97.496V119H137.606ZM178.243 119V74.2H213.571V83.736H189.251V91.8H205.315V101.016H189.251V109.464H213.827V119H178.243ZM230.93 119L216.466 85.144H227.73L236.114 105.88L244.498 85.144H255.506L241.042 119H230.93ZM288.396 114.52C286.263 116.312 284.066 117.613 281.804 118.424C279.586 119.235 277.068 119.64 274.252 119.64C271.692 119.64 269.282 119.192 267.02 118.296C264.759 117.4 262.796 116.163 261.132 114.584C259.511 113.005 258.21 111.149 257.228 109.016C256.29 106.84 255.82 104.536 255.82 102.104C255.82 99.672 256.268 97.3893 257.164 95.256C258.103 93.08 259.362 91.2027 260.94 89.624C262.519 88.0453 264.375 86.808 266.508 85.912C268.684 85.016 271.01 84.568 273.484 84.568C275.959 84.568 278.242 85.0373 280.332 85.976C282.423 86.9147 284.215 88.1947 285.708 89.816C287.244 91.4373 288.439 93.4 289.292 95.704C290.146 97.9653 290.572 100.419 290.572 103.064V105.624H266.444C267.127 107.203 268.194 108.504 269.644 109.528C271.095 110.509 272.802 111 274.764 111C276.172 111 277.452 110.787 278.604 110.36C279.756 109.891 280.738 109.251 281.548 108.44L288.396 114.52ZM273.292 93.016C271.586 93.016 270.114 93.4853 268.876 94.424C267.639 95.3627 266.764 96.6853 266.252 98.392H280.396C279.842 96.7707 278.924 95.4693 277.644 94.488C276.407 93.5067 274.956 93.016 273.292 93.016ZM295.419 119V85.144H305.787V88.536C306.896 87.2133 308.197 86.1893 309.691 85.464C311.184 84.7387 312.848 84.376 314.683 84.376C315.664 84.4187 316.453 84.504 317.051 84.632C317.648 84.7173 318.16 84.9093 318.587 85.208V94.232C317.904 93.9333 317.136 93.6987 316.283 93.528C315.429 93.3147 314.555 93.208 313.659 93.208C312.037 93.208 310.523 93.592 309.115 94.36C307.749 95.128 306.64 96.1733 305.787 97.496V119H295.419ZM333.333 119.512V119.448L320.341 85.144H331.797L339.285 106.456L347.989 85.144H359.189L344.021 120.728C342.143 125.123 339.967 128.237 337.493 130.072C335.018 131.907 331.754 132.824 327.701 132.824C326.89 132.824 326.101 132.781 325.333 132.696C324.565 132.653 323.925 132.568 323.413 132.44V123.608C323.882 123.693 324.351 123.757 324.821 123.8C325.333 123.843 325.93 123.864 326.613 123.864C328.234 123.864 329.621 123.501 330.773 122.776C331.925 122.051 332.778 120.963 333.333 119.512ZM359.445 102.104C359.445 99.672 359.915 97.3893 360.853 95.256C361.835 93.08 363.136 91.2027 364.757 89.624C366.421 88.0453 368.363 86.808 370.581 85.912C372.843 84.9733 375.253 84.504 377.813 84.504C380.373 84.504 382.763 84.9733 384.981 85.912C387.243 86.808 389.184 88.0453 390.805 89.624C392.469 91.2027 393.771 93.08 394.709 95.256C395.691 97.3893 396.181 99.672 396.181 102.104C396.181 104.536 395.691 106.84 394.709 109.016C393.771 111.149 392.469 113.005 390.805 114.584C389.184 116.163 387.243 117.4 384.981 118.296C382.763 119.192 380.373 119.64 377.813 119.64C375.253 119.64 372.843 119.192 370.581 118.296C368.363 117.4 366.421 116.163 364.757 114.584C363.136 113.005 361.835 111.149 360.853 109.016C359.915 106.84 359.445 104.536 359.445 102.104ZM377.813 110.68C380.117 110.68 382.059 109.848 383.637 108.184C385.259 106.52 386.069 104.493 386.069 102.104C386.069 99.672 385.259 97.624 383.637 95.96C382.059 94.296 380.117 93.464 377.813 93.464C375.509 93.464 373.547 94.296 371.925 95.96C370.347 97.624 369.557 99.672 369.557 102.104C369.557 104.493 370.347 106.52 371.925 108.184C373.547 109.848 375.509 110.68 377.813 110.68ZM401.044 119V85.144H411.412V87.448C412.649 86.5093 414.036 85.784 415.572 85.272C417.15 84.76 418.793 84.504 420.5 84.504C424.468 84.504 427.71 85.784 430.228 88.344C432.745 90.904 434.004 94.168 434.004 98.136V119H423.636V99.544C423.636 97.7093 423.06 96.2373 421.908 95.128C420.798 93.976 419.326 93.4 417.492 93.4C416.169 93.4 414.996 93.6347 413.972 94.104C412.948 94.5733 412.094 95.2347 411.412 96.088V119H401.044ZM471.209 114.52C469.075 116.312 466.878 117.613 464.617 118.424C462.398 119.235 459.881 119.64 457.065 119.64C454.505 119.64 452.094 119.192 449.833 118.296C447.571 117.4 445.609 116.163 443.945 114.584C442.323 113.005 441.022 111.149 440.041 109.016C439.102 106.84 438.633 104.536 438.633 102.104C438.633 99.672 439.081 97.3893 439.977 95.256C440.915 93.08 442.174 91.2027 443.753 89.624C445.331 88.0453 447.187 86.808 449.321 85.912C451.497 85.016 453.822 84.568 456.297 84.568C458.771 84.568 461.054 85.0373 463.145 85.976C465.235 86.9147 467.027 88.1947 468.521 89.816C470.057 91.4373 471.251 93.4 472.105 95.704C472.958 97.9653 473.385 100.419 473.385 103.064V105.624H449.257C449.939 107.203 451.006 108.504 452.457 109.528C453.907 110.509 455.614 111 457.577 111C458.985 111 460.265 110.787 461.417 110.36C462.569 109.891 463.55 109.251 464.361 108.44L471.209 114.52ZM456.105 93.016C454.398 93.016 452.926 93.4853 451.689 94.424C450.451 95.3627 449.577 96.6853 449.065 98.392H463.209C462.654 96.7707 461.737 95.4693 460.457 94.488C459.219 93.5067 457.769 93.016 456.105 93.016Z" fill="#28283D"/>
<path d="M17.4959 180.1L12.7979 170.74V181H11.0339V168.4H13.5539L17.5139 176.446L21.4559 168.4H23.9759V181H22.1939V170.722L17.4959 180.1ZM34.2598 179.956C33.7318 180.364 33.1798 180.67 32.6038 180.874C32.0278 181.066 31.3978 181.162 30.7138 181.162C30.0418 181.162 29.4118 181.042 28.8238 180.802C28.2358 180.55 27.7258 180.214 27.2938 179.794C26.8618 179.374 26.5198 178.876 26.2678 178.3C26.0278 177.712 25.9078 177.082 25.9078 176.41C25.9078 175.75 26.0278 175.132 26.2678 174.556C26.5078 173.98 26.8318 173.482 27.2398 173.062C27.6478 172.642 28.1338 172.312 28.6978 172.072C29.2618 171.82 29.8618 171.694 30.4978 171.694C31.1218 171.694 31.7038 171.82 32.2438 172.072C32.7958 172.312 33.2638 172.648 33.6478 173.08C34.0438 173.5 34.3558 174.004 34.5838 174.592C34.8118 175.18 34.9258 175.81 34.9258 176.482V177.004H27.6898C27.8098 177.76 28.1578 178.39 28.7338 178.894C29.3098 179.386 29.9938 179.632 30.7858 179.632C31.2298 179.632 31.6558 179.56 32.0638 179.416C32.4718 179.272 32.8198 179.074 33.1078 178.822L34.2598 179.956ZM30.4618 173.206C29.7778 173.206 29.1778 173.434 28.6618 173.89C28.1578 174.346 27.8398 174.934 27.7078 175.654H33.1438C33.0118 174.958 32.6938 174.376 32.1898 173.908C31.6978 173.44 31.1218 173.206 30.4618 173.206ZM44.6133 179.956C44.0853 180.364 43.5333 180.67 42.9573 180.874C42.3813 181.066 41.7513 181.162 41.0673 181.162C40.3953 181.162 39.7653 181.042 39.1773 180.802C38.5893 180.55 38.0793 180.214 37.6473 179.794C37.2153 179.374 36.8733 178.876 36.6213 178.3C36.3813 177.712 36.2613 177.082 36.2613 176.41C36.2613 175.75 36.3813 175.132 36.6213 174.556C36.8613 173.98 37.1853 173.482 37.5933 173.062C38.0013 172.642 38.4873 172.312 39.0513 172.072C39.6153 171.82 40.2153 171.694 40.8513 171.694C41.4753 171.694 42.0573 171.82 42.5973 172.072C43.1493 172.312 43.6173 172.648 44.0013 173.08C44.3973 173.5 44.7093 174.004 44.9373 174.592C45.1653 175.18 45.2793 175.81 45.2793 176.482V177.004H38.0433C38.1633 177.76 38.5113 178.39 39.0873 178.894C39.6633 179.386 40.3473 179.632 41.1393 179.632C41.5833 179.632 42.0093 179.56 42.4173 179.416C42.8253 179.272 43.1733 179.074 43.4613 178.822L44.6133 179.956ZM40.8153 173.206C40.1313 173.206 39.5313 173.434 39.0153 173.89C38.5113 174.346 38.1933 174.934 38.0613 175.654H43.4973C43.3653 174.958 43.0473 174.376 42.5433 173.908C42.0513 173.44 41.4753 173.206 40.8153 173.206ZM47.8301 178.732V173.35H45.8861V171.838H47.8301V169.498L49.6121 169.066V171.838H52.3121V173.35H49.6121V178.318C49.6121 178.786 49.7141 179.116 49.9181 179.308C50.1341 179.5 50.4821 179.596 50.9621 179.596C51.2141 179.596 51.4361 179.584 51.6281 179.56C51.8321 179.524 52.0481 179.464 52.2761 179.38V180.892C52.0361 180.976 51.7541 181.042 51.4301 181.09C51.1181 181.138 50.8301 181.162 50.5661 181.162C49.6781 181.162 49.0001 180.958 48.5321 180.55C48.0641 180.13 47.8301 179.524 47.8301 178.732ZM57.3999 181V171.838H59.1999V172.702C59.5359 172.366 59.9199 172.108 60.3519 171.928C60.7839 171.748 61.2579 171.658 61.7739 171.658C62.3859 171.658 62.9379 171.796 63.4299 172.072C63.9219 172.336 64.3119 172.708 64.5999 173.188C64.9719 172.684 65.4159 172.306 65.9319 172.054C66.4599 171.79 67.0479 171.658 67.6959 171.658C68.7039 171.658 69.5259 171.994 70.1619 172.666C70.8099 173.326 71.1339 174.184 71.1339 175.24V181H69.3339V175.546C69.3339 174.826 69.1419 174.262 68.7579 173.854C68.3859 173.434 67.8759 173.224 67.2279 173.224C66.7839 173.224 66.3819 173.326 66.0219 173.53C65.6619 173.734 65.3499 174.04 65.0859 174.448C65.1099 174.568 65.1279 174.7 65.1399 174.844C65.1519 174.976 65.1579 175.108 65.1579 175.24V181H63.3759V175.546C63.3759 174.826 63.1839 174.262 62.7999 173.854C62.4279 173.434 61.9179 173.224 61.2699 173.224C60.8379 173.224 60.4479 173.32 60.0999 173.512C59.7519 173.692 59.4519 173.968 59.1999 174.34V181H57.3999ZM76.1006 181.162C75.1046 181.162 74.2946 180.904 73.6706 180.388C73.0466 179.872 72.7346 179.2 72.7346 178.372C72.7346 177.508 73.0646 176.83 73.7246 176.338C74.3846 175.834 75.2906 175.582 76.4426 175.582C76.8866 175.582 77.3186 175.63 77.7386 175.726C78.1586 175.81 78.5606 175.93 78.9446 176.086V175.114C78.9446 174.466 78.7526 173.98 78.3686 173.656C77.9846 173.332 77.4326 173.17 76.7126 173.17C76.2926 173.17 75.8546 173.236 75.3986 173.368C74.9426 173.488 74.4326 173.68 73.8686 173.944L73.2026 172.594C73.8866 172.27 74.5346 172.036 75.1466 171.892C75.7586 171.736 76.3646 171.658 76.9646 171.658C78.1526 171.658 79.0706 171.946 79.7186 172.522C80.3786 173.086 80.7086 173.89 80.7086 174.934V181H78.9446V180.208C78.5366 180.532 78.0986 180.772 77.6306 180.928C77.1626 181.084 76.6526 181.162 76.1006 181.162ZM74.4626 178.336C74.4626 178.78 74.6486 179.14 75.0206 179.416C75.4046 179.692 75.9026 179.83 76.5146 179.83C76.9946 179.83 77.4386 179.758 77.8466 179.614C78.2546 179.47 78.6206 179.254 78.9446 178.966V177.382C78.5966 177.19 78.2306 177.052 77.8466 176.968C77.4626 176.872 77.0426 176.824 76.5866 176.824C75.9386 176.824 75.4226 176.962 75.0386 177.238C74.6546 177.514 74.4626 177.88 74.4626 178.336ZM82.7827 181V168.4L84.5827 168.004V175.87L89.0287 171.838H91.1347L86.4187 176.14L91.3867 181H89.0107L84.5827 176.68V181H82.7827ZM99.4922 179.956C98.9642 180.364 98.4122 180.67 97.8362 180.874C97.2602 181.066 96.6302 181.162 95.9462 181.162C95.2742 181.162 94.6442 181.042 94.0562 180.802C93.4682 180.55 92.9582 180.214 92.5262 179.794C92.0942 179.374 91.7522 178.876 91.5002 178.3C91.2602 177.712 91.1402 177.082 91.1402 176.41C91.1402 175.75 91.2602 175.132 91.5002 174.556C91.7402 173.98 92.0642 173.482 92.4722 173.062C92.8802 172.642 93.3662 172.312 93.9302 172.072C94.4942 171.82 95.0942 171.694 95.7302 171.694C96.3542 171.694 96.9362 171.82 97.4762 172.072C98.0282 172.312 98.4962 172.648 98.8802 173.08C99.2762 173.5 99.5882 174.004 99.8162 174.592C100.044 175.18 100.158 175.81 100.158 176.482V177.004H92.9222C93.0422 177.76 93.3902 178.39 93.9662 178.894C94.5422 179.386 95.2262 179.632 96.0182 179.632C96.4622 179.632 96.8882 179.56 97.2962 179.416C97.7042 179.272 98.0522 179.074 98.3402 178.822L99.4922 179.956ZM95.6942 173.206C95.0102 173.206 94.4102 173.434 93.8942 173.89C93.3902 174.346 93.0722 174.934 92.9402 175.654H98.3762C98.2442 174.958 97.9262 174.376 97.4222 173.908C96.9302 173.44 96.3542 173.206 95.6942 173.206ZM101.096 179.812L102.068 178.624C102.548 178.996 103.034 179.284 103.526 179.488C104.03 179.68 104.54 179.776 105.056 179.776C105.704 179.776 106.232 179.65 106.64 179.398C107.048 179.146 107.252 178.816 107.252 178.408C107.252 178.084 107.132 177.826 106.892 177.634C106.652 177.442 106.28 177.31 105.776 177.238L104.12 177.004C103.22 176.872 102.536 176.596 102.068 176.176C101.612 175.744 101.384 175.174 101.384 174.466C101.384 173.638 101.714 172.972 102.374 172.468C103.034 171.952 103.898 171.694 104.966 171.694C105.638 171.694 106.274 171.79 106.874 171.982C107.486 172.174 108.08 172.468 108.656 172.864L107.738 174.052C107.234 173.716 106.742 173.476 106.262 173.332C105.794 173.176 105.32 173.098 104.84 173.098C104.288 173.098 103.844 173.212 103.508 173.44C103.172 173.668 103.004 173.968 103.004 174.34C103.004 174.676 103.118 174.934 103.346 175.114C103.586 175.282 103.976 175.408 104.516 175.492L106.172 175.726C107.072 175.858 107.756 176.14 108.224 176.572C108.704 177.004 108.944 177.574 108.944 178.282C108.944 178.69 108.842 179.074 108.638 179.434C108.446 179.782 108.176 180.082 107.828 180.334C107.492 180.586 107.09 180.79 106.622 180.946C106.154 181.09 105.65 181.162 105.11 181.162C104.318 181.162 103.574 181.048 102.878 180.82C102.194 180.592 101.6 180.256 101.096 179.812ZM114.989 170.362C114.689 170.362 114.431 170.254 114.215 170.038C113.999 169.81 113.891 169.546 113.891 169.246C113.891 168.946 113.999 168.688 114.215 168.472C114.431 168.244 114.689 168.13 114.989 168.13C115.289 168.13 115.547 168.244 115.763 168.472C115.991 168.688 116.105 168.946 116.105 169.246C116.105 169.546 115.991 169.81 115.763 170.038C115.547 170.254 115.289 170.362 114.989 170.362ZM115.889 171.838V181H114.089V171.838H115.889ZM119.197 178.732V173.35H117.253V171.838H119.197V169.498L120.979 169.066V171.838H123.679V173.35H120.979V178.318C120.979 178.786 121.081 179.116 121.285 179.308C121.501 179.5 121.849 179.596 122.329 179.596C122.581 179.596 122.803 179.584 122.995 179.56C123.199 179.524 123.415 179.464 123.643 179.38V180.892C123.403 180.976 123.121 181.042 122.797 181.09C122.485 181.138 122.197 181.162 121.933 181.162C121.045 181.162 120.367 180.958 119.899 180.55C119.431 180.13 119.197 179.524 119.197 178.732ZM136.705 179.956C136.177 180.364 135.625 180.67 135.049 180.874C134.473 181.066 133.843 181.162 133.159 181.162C132.487 181.162 131.857 181.042 131.269 180.802C130.681 180.55 130.171 180.214 129.739 179.794C129.307 179.374 128.965 178.876 128.713 178.3C128.473 177.712 128.353 177.082 128.353 176.41C128.353 175.75 128.473 175.132 128.713 174.556C128.953 173.98 129.277 173.482 129.685 173.062C130.093 172.642 130.579 172.312 131.143 172.072C131.707 171.82 132.307 171.694 132.943 171.694C133.567 171.694 134.149 171.82 134.689 172.072C135.241 172.312 135.709 172.648 136.093 173.08C136.489 173.5 136.801 174.004 137.029 174.592C137.257 175.18 137.371 175.81 137.371 176.482V177.004H130.135C130.255 177.76 130.603 178.39 131.179 178.894C131.755 179.386 132.439 179.632 133.231 179.632C133.675 179.632 134.101 179.56 134.509 179.416C134.917 179.272 135.265 179.074 135.553 178.822L136.705 179.956ZM132.907 173.206C132.223 173.206 131.623 173.434 131.107 173.89C130.603 174.346 130.285 174.934 130.153 175.654H135.589C135.457 174.958 135.139 174.376 134.635 173.908C134.143 173.44 133.567 173.206 132.907 173.206ZM141.878 181.162C140.882 181.162 140.072 180.904 139.448 180.388C138.824 179.872 138.512 179.2 138.512 178.372C138.512 177.508 138.842 176.83 139.502 176.338C140.162 175.834 141.068 175.582 142.22 175.582C142.664 175.582 143.096 175.63 143.516 175.726C143.936 175.81 144.338 175.93 144.722 176.086V175.114C144.722 174.466 144.53 173.98 144.146 173.656C143.762 173.332 143.21 173.17 142.49 173.17C142.07 173.17 141.632 173.236 141.176 173.368C140.72 173.488 140.21 173.68 139.646 173.944L138.98 172.594C139.664 172.27 140.312 172.036 140.924 171.892C141.536 171.736 142.142 171.658 142.742 171.658C143.93 171.658 144.848 171.946 145.496 172.522C146.156 173.086 146.486 173.89 146.486 174.934V181H144.722V180.208C144.314 180.532 143.876 180.772 143.408 180.928C142.94 181.084 142.43 181.162 141.878 181.162ZM140.24 178.336C140.24 178.78 140.426 179.14 140.798 179.416C141.182 179.692 141.68 179.83 142.292 179.83C142.772 179.83 143.216 179.758 143.624 179.614C144.032 179.47 144.398 179.254 144.722 178.966V177.382C144.374 177.19 144.008 177.052 143.624 176.968C143.24 176.872 142.82 176.824 142.364 176.824C141.716 176.824 141.2 176.962 140.816 177.238C140.432 177.514 140.24 177.88 140.24 178.336ZM147.696 179.812L148.668 178.624C149.148 178.996 149.634 179.284 150.126 179.488C150.63 179.68 151.14 179.776 151.656 179.776C152.304 179.776 152.832 179.65 153.24 179.398C153.648 179.146 153.852 178.816 153.852 178.408C153.852 178.084 153.732 177.826 153.492 177.634C153.252 177.442 152.88 177.31 152.376 177.238L150.72 177.004C149.82 176.872 149.136 176.596 148.668 176.176C148.212 175.744 147.984 175.174 147.984 174.466C147.984 173.638 148.314 172.972 148.974 172.468C149.634 171.952 150.498 171.694 151.566 171.694C152.238 171.694 152.874 171.79 153.474 171.982C154.086 172.174 154.68 172.468 155.256 172.864L154.338 174.052C153.834 173.716 153.342 173.476 152.862 173.332C152.394 173.176 151.92 173.098 151.44 173.098C150.888 173.098 150.444 173.212 150.108 173.44C149.772 173.668 149.604 173.968 149.604 174.34C149.604 174.676 149.718 174.934 149.946 175.114C150.186 175.282 150.576 175.408 151.116 175.492L152.772 175.726C153.672 175.858 154.356 176.14 154.824 176.572C155.304 177.004 155.544 177.574 155.544 178.282C155.544 178.69 155.442 179.074 155.238 179.434C155.046 179.782 154.776 180.082 154.428 180.334C154.092 180.586 153.69 180.79 153.222 180.946C152.754 181.09 152.25 181.162 151.71 181.162C150.918 181.162 150.174 181.048 149.478 180.82C148.794 180.592 148.2 180.256 147.696 179.812ZM159.037 181.864L159.397 181.036L155.743 171.838H157.723L160.405 178.84L163.357 171.838H165.301L160.873 182.098C160.453 183.07 159.973 183.766 159.433 184.186C158.893 184.618 158.203 184.834 157.363 184.834C157.171 184.834 156.991 184.822 156.823 184.798C156.667 184.786 156.529 184.762 156.409 184.726V183.142C156.529 183.166 156.649 183.184 156.769 183.196C156.901 183.208 157.051 183.214 157.219 183.214C157.627 183.214 157.981 183.1 158.281 182.872C158.593 182.656 158.845 182.32 159.037 181.864ZM171.369 178.732V173.35H169.425V171.838H171.369V169.498L173.151 169.066V171.838H175.851V173.35H173.151V178.318C173.151 178.786 173.253 179.116 173.457 179.308C173.673 179.5 174.021 179.596 174.501 179.596C174.753 179.596 174.975 179.584 175.167 179.56C175.371 179.524 175.587 179.464 175.815 179.38V180.892C175.575 180.976 175.293 181.042 174.969 181.09C174.657 181.138 174.369 181.162 174.105 181.162C173.217 181.162 172.539 180.958 172.071 180.55C171.603 180.13 171.369 179.524 171.369 178.732ZM176.57 176.41C176.57 175.75 176.69 175.132 176.93 174.556C177.182 173.968 177.524 173.464 177.956 173.044C178.388 172.612 178.892 172.276 179.468 172.036C180.056 171.784 180.68 171.658 181.34 171.658C182 171.658 182.618 171.784 183.194 172.036C183.782 172.276 184.286 172.612 184.706 173.044C185.138 173.464 185.474 173.968 185.714 174.556C185.966 175.132 186.092 175.75 186.092 176.41C186.092 177.082 185.966 177.712 185.714 178.3C185.474 178.876 185.138 179.38 184.706 179.812C184.286 180.232 183.782 180.568 183.194 180.82C182.618 181.06 182 181.18 181.34 181.18C180.68 181.18 180.056 181.06 179.468 180.82C178.892 180.568 178.388 180.232 177.956 179.812C177.524 179.38 177.182 178.876 176.93 178.3C176.69 177.712 176.57 177.082 176.57 176.41ZM181.34 179.596C182.168 179.596 182.87 179.29 183.446 178.678C184.034 178.054 184.328 177.298 184.328 176.41C184.328 175.522 184.034 174.772 183.446 174.16C182.87 173.548 182.168 173.242 181.34 173.242C180.512 173.242 179.804 173.548 179.216 174.16C178.628 174.772 178.334 175.522 178.334 176.41C178.334 177.298 178.622 178.054 179.198 178.678C179.786 179.29 180.5 179.596 181.34 179.596ZM195.93 179.578C196.386 179.578 196.818 179.488 197.226 179.308C197.634 179.116 198.024 178.834 198.396 178.462L199.476 179.632C198.996 180.112 198.444 180.49 197.82 180.766C197.196 181.03 196.542 181.162 195.858 181.162C195.198 181.162 194.58 181.042 194.004 180.802C193.428 180.55 192.93 180.214 192.51 179.794C192.09 179.374 191.754 178.876 191.502 178.3C191.262 177.712 191.142 177.082 191.142 176.41C191.142 175.75 191.262 175.132 191.502 174.556C191.754 173.968 192.09 173.464 192.51 173.044C192.93 172.612 193.428 172.276 194.004 172.036C194.58 171.784 195.198 171.658 195.858 171.658C196.542 171.658 197.208 171.796 197.856 172.072C198.504 172.336 199.068 172.708 199.548 173.188L198.414 174.412C198.066 174.04 197.676 173.758 197.244 173.566C196.812 173.362 196.362 173.26 195.894 173.26C195.066 173.26 194.364 173.566 193.788 174.178C193.212 174.79 192.924 175.534 192.924 176.41C192.924 177.31 193.212 178.066 193.788 178.678C194.376 179.278 195.09 179.578 195.93 179.578ZM200.177 176.41C200.177 175.75 200.297 175.132 200.537 174.556C200.789 173.968 201.131 173.464 201.563 173.044C201.995 172.612 202.499 172.276 203.075 172.036C203.663 171.784 204.287 171.658 204.947 171.658C205.607 171.658 206.225 171.784 206.801 172.036C207.389 172.276 207.893 172.612 208.313 173.044C208.745 173.464 209.081 173.968 209.321 174.556C209.573 175.132 209.699 175.75 209.699 176.41C209.699 177.082 209.573 177.712 209.321 178.3C209.081 178.876 208.745 179.38 208.313 179.812C207.893 180.232 207.389 180.568 206.801 180.82C206.225 181.06 205.607 181.18 204.947 181.18C204.287 181.18 203.663 181.06 203.075 180.82C202.499 180.568 201.995 180.232 201.563 179.812C201.131 179.38 200.789 178.876 200.537 178.3C200.297 177.712 200.177 177.082 200.177 176.41ZM204.947 179.596C205.775 179.596 206.477 179.29 207.053 178.678C207.641 178.054 207.935 177.298 207.935 176.41C207.935 175.522 207.641 174.772 207.053 174.16C206.477 173.548 205.775 173.242 204.947 173.242C204.119 173.242 203.411 173.548 202.823 174.16C202.235 174.772 201.941 175.522 201.941 176.41C201.941 177.298 202.229 178.054 202.805 178.678C203.393 179.29 204.107 179.596 204.947 179.596ZM211.402 181V171.838H213.202V172.756C213.562 172.396 213.97 172.126 214.426 171.946C214.894 171.754 215.404 171.658 215.956 171.658C217 171.658 217.858 171.994 218.53 172.666C219.202 173.326 219.538 174.184 219.538 175.24V181H217.738V175.546C217.738 174.826 217.528 174.262 217.108 173.854C216.7 173.434 216.154 173.224 215.47 173.224C214.99 173.224 214.552 173.326 214.156 173.53C213.772 173.734 213.454 174.028 213.202 174.412V181H211.402ZM221.615 181V171.838H223.415V172.756C223.775 172.396 224.183 172.126 224.639 171.946C225.107 171.754 225.617 171.658 226.169 171.658C227.213 171.658 228.071 171.994 228.743 172.666C229.415 173.326 229.751 174.184 229.751 175.24V181H227.951V175.546C227.951 174.826 227.741 174.262 227.321 173.854C226.913 173.434 226.367 173.224 225.683 173.224C225.203 173.224 224.765 173.326 224.369 173.53C223.985 173.734 223.667 174.028 223.415 174.412V181H221.615ZM239.766 179.956C239.238 180.364 238.686 180.67 238.11 180.874C237.534 181.066 236.904 181.162 236.22 181.162C235.548 181.162 234.918 181.042 234.33 180.802C233.742 180.55 233.232 180.214 232.8 179.794C232.368 179.374 232.026 178.876 231.774 178.3C231.534 177.712 231.414 177.082 231.414 176.41C231.414 175.75 231.534 175.132 231.774 174.556C232.014 173.98 232.338 173.482 232.746 173.062C233.154 172.642 233.64 172.312 234.204 172.072C234.768 171.82 235.368 171.694 236.004 171.694C236.628 171.694 237.21 171.82 237.75 172.072C238.302 172.312 238.77 172.648 239.154 173.08C239.55 173.5 239.862 174.004 240.09 174.592C240.318 175.18 240.432 175.81 240.432 176.482V177.004H233.196C233.316 177.76 233.664 178.39 234.24 178.894C234.816 179.386 235.5 179.632 236.292 179.632C236.736 179.632 237.162 179.56 237.57 179.416C237.978 179.272 238.326 179.074 238.614 178.822L239.766 179.956ZM235.968 173.206C235.284 173.206 234.684 173.434 234.168 173.89C233.664 174.346 233.346 174.934 233.214 175.654H238.65C238.518 174.958 238.2 174.376 237.696 173.908C237.204 173.44 236.628 173.206 235.968 173.206ZM246.555 179.578C247.011 179.578 247.443 179.488 247.851 179.308C248.259 179.116 248.649 178.834 249.021 178.462L250.101 179.632C249.621 180.112 249.069 180.49 248.445 180.766C247.821 181.03 247.167 181.162 246.483 181.162C245.823 181.162 245.205 181.042 244.629 180.802C244.053 180.55 243.555 180.214 243.135 179.794C242.715 179.374 242.379 178.876 242.127 178.3C241.887 177.712 241.767 177.082 241.767 176.41C241.767 175.75 241.887 175.132 242.127 174.556C242.379 173.968 242.715 173.464 243.135 173.044C243.555 172.612 244.053 172.276 244.629 172.036C245.205 171.784 245.823 171.658 246.483 171.658C247.167 171.658 247.833 171.796 248.481 172.072C249.129 172.336 249.693 172.708 250.173 173.188L249.039 174.412C248.691 174.04 248.301 173.758 247.869 173.566C247.437 173.362 246.987 173.26 246.519 173.26C245.691 173.26 244.989 173.566 244.413 174.178C243.837 174.79 243.549 175.534 243.549 176.41C243.549 177.31 243.837 178.066 244.413 178.678C245.001 179.278 245.715 179.578 246.555 179.578ZM252.932 178.732V173.35H250.988V171.838H252.932V169.498L254.714 169.066V171.838H257.414V173.35H254.714V178.318C254.714 178.786 254.816 179.116 255.02 179.308C255.236 179.5 255.584 179.596 256.064 179.596C256.316 179.596 256.538 179.584 256.73 179.56C256.934 179.524 257.15 179.464 257.378 179.38V180.892C257.138 180.976 256.856 181.042 256.532 181.09C256.22 181.138 255.932 181.162 255.668 181.162C254.78 181.162 254.102 180.958 253.634 180.55C253.166 180.13 252.932 179.524 252.932 178.732ZM265.957 181H264.211L261.655 171.838H263.401L265.165 178.57L267.271 171.838H268.819L270.907 178.57L272.689 171.838H274.381L271.807 181H270.079L268.027 174.286L265.957 181ZM276.567 170.362C276.267 170.362 276.009 170.254 275.793 170.038C275.577 169.81 275.469 169.546 275.469 169.246C275.469 168.946 275.577 168.688 275.793 168.472C276.009 168.244 276.267 168.13 276.567 168.13C276.867 168.13 277.125 168.244 277.341 168.472C277.569 168.688 277.683 168.946 277.683 169.246C277.683 169.546 277.569 169.81 277.341 170.038C277.125 170.254 276.867 170.362 276.567 170.362ZM277.467 171.838V181H275.667V171.838H277.467ZM280.775 178.732V173.35H278.831V171.838H280.775V169.498L282.557 169.066V171.838H285.257V173.35H282.557V178.318C282.557 178.786 282.659 179.116 282.863 179.308C283.079 179.5 283.427 179.596 283.907 179.596C284.159 179.596 284.381 179.584 284.573 179.56C284.777 179.524 284.993 179.464 285.221 179.38V180.892C284.981 180.976 284.699 181.042 284.375 181.09C284.063 181.138 283.775 181.162 283.511 181.162C282.623 181.162 281.945 180.958 281.477 180.55C281.009 180.13 280.775 179.524 280.775 178.732ZM286.583 181V168.4L288.383 168.004V172.756C288.743 172.396 289.151 172.126 289.607 171.946C290.075 171.754 290.585 171.658 291.137 171.658C292.181 171.658 293.039 171.994 293.711 172.666C294.383 173.326 294.719 174.184 294.719 175.24V181H292.919V175.546C292.919 174.826 292.709 174.262 292.289 173.854C291.881 173.434 291.335 173.224 290.651 173.224C290.171 173.224 289.733 173.326 289.337 173.53C288.953 173.734 288.635 174.028 288.383 174.412V181H286.583ZM300.144 176.41C300.144 175.75 300.264 175.132 300.504 174.556C300.756 173.968 301.098 173.464 301.53 173.044C301.962 172.612 302.466 172.276 303.042 172.036C303.63 171.784 304.254 171.658 304.914 171.658C305.574 171.658 306.192 171.784 306.768 172.036C307.356 172.276 307.86 172.612 308.28 173.044C308.712 173.464 309.048 173.968 309.288 174.556C309.54 175.132 309.666 175.75 309.666 176.41C309.666 177.082 309.54 177.712 309.288 178.3C309.048 178.876 308.712 179.38 308.28 179.812C307.86 180.232 307.356 180.568 306.768 180.82C306.192 181.06 305.574 181.18 304.914 181.18C304.254 181.18 303.63 181.06 303.042 180.82C302.466 180.568 301.962 180.232 301.53 179.812C301.098 179.38 300.756 178.876 300.504 178.3C300.264 177.712 300.144 177.082 300.144 176.41ZM304.914 179.596C305.742 179.596 306.444 179.29 307.02 178.678C307.608 178.054 307.902 177.298 307.902 176.41C307.902 175.522 307.608 174.772 307.02 174.16C306.444 173.548 305.742 173.242 304.914 173.242C304.086 173.242 303.378 173.548 302.79 174.16C302.202 174.772 301.908 175.522 301.908 176.41C301.908 177.298 302.196 178.054 302.772 178.678C303.36 179.29 304.074 179.596 304.914 179.596ZM311.994 178.732V173.35H310.05V171.838H311.994V169.498L313.776 169.066V171.838H316.476V173.35H313.776V178.318C313.776 178.786 313.878 179.116 314.082 179.308C314.298 179.5 314.646 179.596 315.126 179.596C315.378 179.596 315.6 179.584 315.792 179.56C315.996 179.524 316.212 179.464 316.44 179.38V180.892C316.2 180.976 315.918 181.042 315.594 181.09C315.282 181.138 314.994 181.162 314.73 181.162C313.842 181.162 313.164 180.958 312.696 180.55C312.228 180.13 311.994 179.524 311.994 178.732ZM317.802 181V168.4L319.602 168.004V172.756C319.962 172.396 320.37 172.126 320.826 171.946C321.294 171.754 321.804 171.658 322.356 171.658C323.4 171.658 324.258 171.994 324.93 172.666C325.602 173.326 325.938 174.184 325.938 175.24V181H324.138V175.546C324.138 174.826 323.928 174.262 323.508 173.854C323.1 173.434 322.554 173.224 321.87 173.224C321.39 173.224 320.952 173.326 320.556 173.53C320.172 173.734 319.854 174.028 319.602 174.412V181H317.802ZM335.953 179.956C335.425 180.364 334.873 180.67 334.297 180.874C333.721 181.066 333.091 181.162 332.407 181.162C331.735 181.162 331.105 181.042 330.517 180.802C329.929 180.55 329.419 180.214 328.987 179.794C328.555 179.374 328.213 178.876 327.961 178.3C327.721 177.712 327.601 177.082 327.601 176.41C327.601 175.75 327.721 175.132 327.961 174.556C328.201 173.98 328.525 173.482 328.933 173.062C329.341 172.642 329.827 172.312 330.391 172.072C330.955 171.82 331.555 171.694 332.191 171.694C332.815 171.694 333.397 171.82 333.937 172.072C334.489 172.312 334.957 172.648 335.341 173.08C335.737 173.5 336.049 174.004 336.277 174.592C336.505 175.18 336.619 175.81 336.619 176.482V177.004H329.383C329.503 177.76 329.851 178.39 330.427 178.894C331.003 179.386 331.687 179.632 332.479 179.632C332.923 179.632 333.349 179.56 333.757 179.416C334.165 179.272 334.513 179.074 334.801 178.822L335.953 179.956ZM332.155 173.206C331.471 173.206 330.871 173.434 330.355 173.89C329.851 174.346 329.533 174.934 329.401 175.654H334.837C334.705 174.958 334.387 174.376 333.883 173.908C333.391 173.44 332.815 173.206 332.155 173.206ZM338.333 181V171.838H340.133V173.008C340.409 172.564 340.763 172.228 341.195 172C341.627 171.76 342.113 171.64 342.653 171.64C342.845 171.64 343.013 171.652 343.157 171.676C343.301 171.7 343.439 171.736 343.571 171.784V173.404C343.403 173.344 343.229 173.296 343.049 173.26C342.869 173.224 342.689 173.206 342.509 173.206C341.981 173.206 341.507 173.35 341.087 173.638C340.679 173.914 340.361 174.328 340.133 174.88V181H338.333ZM344.132 179.812L345.104 178.624C345.584 178.996 346.07 179.284 346.562 179.488C347.066 179.68 347.576 179.776 348.092 179.776C348.74 179.776 349.268 179.65 349.676 179.398C350.084 179.146 350.288 178.816 350.288 178.408C350.288 178.084 350.168 177.826 349.928 177.634C349.688 177.442 349.316 177.31 348.812 177.238L347.156 177.004C346.256 176.872 345.572 176.596 345.104 176.176C344.648 175.744 344.42 175.174 344.42 174.466C344.42 173.638 344.75 172.972 345.41 172.468C346.07 171.952 346.934 171.694 348.002 171.694C348.674 171.694 349.31 171.79 349.91 171.982C350.522 172.174 351.116 172.468 351.692 172.864L350.774 174.052C350.27 173.716 349.778 173.476 349.298 173.332C348.83 173.176 348.356 173.098 347.876 173.098C347.324 173.098 346.88 173.212 346.544 173.44C346.208 173.668 346.04 173.968 346.04 174.34C346.04 174.676 346.154 174.934 346.382 175.114C346.622 175.282 347.012 175.408 347.552 175.492L349.208 175.726C350.108 175.858 350.792 176.14 351.26 176.572C351.74 177.004 351.98 177.574 351.98 178.282C351.98 178.69 351.878 179.074 351.674 179.434C351.482 179.782 351.212 180.082 350.864 180.334C350.528 180.586 350.126 180.79 349.658 180.946C349.19 181.09 348.686 181.162 348.146 181.162C347.354 181.162 346.61 181.048 345.914 180.82C345.23 180.592 344.636 180.256 344.132 179.812ZM356.369 171.838H358.493V170.452C358.493 169.504 358.757 168.778 359.285 168.274C359.825 167.758 360.599 167.5 361.607 167.5C361.847 167.5 362.075 167.518 362.291 167.554C362.507 167.578 362.711 167.614 362.903 167.662V169.228C362.687 169.168 362.495 169.126 362.327 169.102C362.159 169.078 361.973 169.066 361.769 169.066C361.277 169.066 360.905 169.186 360.653 169.426C360.413 169.654 360.293 170.008 360.293 170.488V171.838H362.903V173.35H360.293V181H358.493V173.35H356.369V171.838ZM367.071 181.162C366.075 181.162 365.265 180.904 364.641 180.388C364.017 179.872 363.705 179.2 363.705 178.372C363.705 177.508 364.035 176.83 364.695 176.338C365.355 175.834 366.261 175.582 367.413 175.582C367.857 175.582 368.289 175.63 368.709 175.726C369.129 175.81 369.531 175.93 369.915 176.086V175.114C369.915 174.466 369.723 173.98 369.339 173.656C368.955 173.332 368.403 173.17 367.683 173.17C367.263 173.17 366.825 173.236 366.369 173.368C365.913 173.488 365.403 173.68 364.839 173.944L364.173 172.594C364.857 172.27 365.505 172.036 366.117 171.892C366.729 171.736 367.335 171.658 367.935 171.658C369.123 171.658 370.041 171.946 370.689 172.522C371.349 173.086 371.679 173.89 371.679 174.934V181H369.915V180.208C369.507 180.532 369.069 180.772 368.601 180.928C368.133 181.084 367.623 181.162 367.071 181.162ZM365.433 178.336C365.433 178.78 365.619 179.14 365.991 179.416C366.375 179.692 366.873 179.83 367.485 179.83C367.965 179.83 368.409 179.758 368.817 179.614C369.225 179.47 369.591 179.254 369.915 178.966V177.382C369.567 177.19 369.201 177.052 368.817 176.968C368.433 176.872 368.013 176.824 367.557 176.824C366.909 176.824 366.393 176.962 366.009 177.238C365.625 177.514 365.433 177.88 365.433 178.336ZM378.127 179.578C378.583 179.578 379.015 179.488 379.423 179.308C379.831 179.116 380.221 178.834 380.593 178.462L381.673 179.632C381.193 180.112 380.641 180.49 380.017 180.766C379.393 181.03 378.739 181.162 378.055 181.162C377.395 181.162 376.777 181.042 376.201 180.802C375.625 180.55 375.127 180.214 374.707 179.794C374.287 179.374 373.951 178.876 373.699 178.3C373.459 177.712 373.339 177.082 373.339 176.41C373.339 175.75 373.459 175.132 373.699 174.556C373.951 173.968 374.287 173.464 374.707 173.044C375.127 172.612 375.625 172.276 376.201 172.036C376.777 171.784 377.395 171.658 378.055 171.658C378.739 171.658 379.405 171.796 380.053 172.072C380.701 172.336 381.265 172.708 381.745 173.188L380.611 174.412C380.263 174.04 379.873 173.758 379.441 173.566C379.009 173.362 378.559 173.26 378.091 173.26C377.263 173.26 376.561 173.566 375.985 174.178C375.409 174.79 375.121 175.534 375.121 176.41C375.121 177.31 375.409 178.066 375.985 178.678C376.573 179.278 377.287 179.578 378.127 179.578ZM390.727 179.956C390.199 180.364 389.647 180.67 389.071 180.874C388.495 181.066 387.865 181.162 387.181 181.162C386.509 181.162 385.879 181.042 385.291 180.802C384.703 180.55 384.193 180.214 383.761 179.794C383.329 179.374 382.987 178.876 382.735 178.3C382.495 177.712 382.375 177.082 382.375 176.41C382.375 175.75 382.495 175.132 382.735 174.556C382.975 173.98 383.299 173.482 383.707 173.062C384.115 172.642 384.601 172.312 385.165 172.072C385.729 171.82 386.329 171.694 386.965 171.694C387.589 171.694 388.171 171.82 388.711 172.072C389.263 172.312 389.731 172.648 390.115 173.08C390.511 173.5 390.823 174.004 391.051 174.592C391.279 175.18 391.393 175.81 391.393 176.482V177.004H384.157C384.277 177.76 384.625 178.39 385.201 178.894C385.777 179.386 386.461 179.632 387.253 179.632C387.697 179.632 388.123 179.56 388.531 179.416C388.939 179.272 389.287 179.074 389.575 178.822L390.727 179.956ZM386.929 173.206C386.245 173.206 385.645 173.434 385.129 173.89C384.625 174.346 384.307 174.934 384.175 175.654H389.611C389.479 174.958 389.161 174.376 388.657 173.908C388.165 173.44 387.589 173.206 386.929 173.206ZM392.943 175.132H399.423V176.68H392.943V175.132ZM402.311 178.732V173.35H400.367V171.838H402.311V169.498L404.093 169.066V171.838H406.793V173.35H404.093V178.318C404.093 178.786 404.195 179.116 404.399 179.308C404.615 179.5 404.963 179.596 405.443 179.596C405.695 179.596 405.917 179.584 406.109 179.56C406.313 179.524 406.529 179.464 406.757 179.38V180.892C406.517 180.976 406.235 181.042 405.911 181.09C405.599 181.138 405.311 181.162 405.047 181.162C404.159 181.162 403.481 180.958 403.013 180.55C402.545 180.13 402.311 179.524 402.311 178.732ZM407.511 176.41C407.511 175.75 407.631 175.132 407.871 174.556C408.123 173.968 408.465 173.464 408.897 173.044C409.329 172.612 409.833 172.276 410.409 172.036C410.997 171.784 411.621 171.658 412.281 171.658C412.941 171.658 413.559 171.784 414.135 172.036C414.723 172.276 415.227 172.612 415.647 173.044C416.079 173.464 416.415 173.968 416.655 174.556C416.907 175.132 417.033 175.75 417.033 176.41C417.033 177.082 416.907 177.712 416.655 178.3C416.415 178.876 416.079 179.38 415.647 179.812C415.227 180.232 414.723 180.568 414.135 180.82C413.559 181.06 412.941 181.18 412.281 181.18C411.621 181.18 410.997 181.06 410.409 180.82C409.833 180.568 409.329 180.232 408.897 179.812C408.465 179.38 408.123 178.876 407.871 178.3C407.631 177.712 407.511 177.082 407.511 176.41ZM412.281 179.596C413.109 179.596 413.811 179.29 414.387 178.678C414.975 178.054 415.269 177.298 415.269 176.41C415.269 175.522 414.975 174.772 414.387 174.16C413.811 173.548 413.109 173.242 412.281 173.242C411.453 173.242 410.745 173.548 410.157 174.16C409.569 174.772 409.275 175.522 409.275 176.41C409.275 177.298 409.563 178.054 410.139 178.678C410.727 179.29 411.441 179.596 412.281 179.596ZM418.678 175.132H425.158V176.68H418.678V175.132ZM426.101 171.838H428.225V170.452C428.225 169.504 428.489 168.778 429.017 168.274C429.557 167.758 430.331 167.5 431.339 167.5C431.579 167.5 431.807 167.518 432.023 167.554C432.239 167.578 432.443 167.614 432.635 167.662V169.228C432.419 169.168 432.227 169.126 432.059 169.102C431.891 169.078 431.705 169.066 431.501 169.066C431.009 169.066 430.637 169.186 430.385 169.426C430.145 169.654 430.025 170.008 430.025 170.488V171.838H432.635V173.35H430.025V181H428.225V173.35H426.101V171.838ZM436.804 181.162C435.808 181.162 434.998 180.904 434.374 180.388C433.75 179.872 433.438 179.2 433.438 178.372C433.438 177.508 433.768 176.83 434.428 176.338C435.088 175.834 435.994 175.582 437.146 175.582C437.59 175.582 438.022 175.63 438.442 175.726C438.862 175.81 439.264 175.93 439.648 176.086V175.114C439.648 174.466 439.456 173.98 439.072 173.656C438.688 173.332 438.136 173.17 437.416 173.17C436.996 173.17 436.558 173.236 436.102 173.368C435.646 173.488 435.136 173.68 434.572 173.944L433.906 172.594C434.59 172.27 435.238 172.036 435.85 171.892C436.462 171.736 437.068 171.658 437.668 171.658C438.856 171.658 439.774 171.946 440.422 172.522C441.082 173.086 441.412 173.89 441.412 174.934V181H439.648V180.208C439.24 180.532 438.802 180.772 438.334 180.928C437.866 181.084 437.356 181.162 436.804 181.162ZM435.166 178.336C435.166 178.78 435.352 179.14 435.724 179.416C436.108 179.692 436.606 179.83 437.218 179.83C437.698 179.83 438.142 179.758 438.55 179.614C438.958 179.47 439.324 179.254 439.648 178.966V177.382C439.3 177.19 438.934 177.052 438.55 176.968C438.166 176.872 437.746 176.824 437.29 176.824C436.642 176.824 436.126 176.962 435.742 177.238C435.358 177.514 435.166 177.88 435.166 178.336ZM447.86 179.578C448.316 179.578 448.748 179.488 449.156 179.308C449.564 179.116 449.954 178.834 450.326 178.462L451.406 179.632C450.926 180.112 450.374 180.49 449.75 180.766C449.126 181.03 448.472 181.162 447.788 181.162C447.128 181.162 446.51 181.042 445.934 180.802C445.358 180.55 444.86 180.214 444.44 179.794C444.02 179.374 443.684 178.876 443.432 178.3C443.192 177.712 443.072 177.082 443.072 176.41C443.072 175.75 443.192 175.132 443.432 174.556C443.684 173.968 444.02 173.464 444.44 173.044C444.86 172.612 445.358 172.276 445.934 172.036C446.51 171.784 447.128 171.658 447.788 171.658C448.472 171.658 449.138 171.796 449.786 172.072C450.434 172.336 450.998 172.708 451.478 173.188L450.344 174.412C449.996 174.04 449.606 173.758 449.174 173.566C448.742 173.362 448.292 173.26 447.824 173.26C446.996 173.26 446.294 173.566 445.718 174.178C445.142 174.79 444.854 175.534 444.854 176.41C444.854 177.31 445.142 178.066 445.718 178.678C446.306 179.278 447.02 179.578 447.86 179.578ZM460.459 179.956C459.931 180.364 459.379 180.67 458.803 180.874C458.227 181.066 457.597 181.162 456.913 181.162C456.241 181.162 455.611 181.042 455.023 180.802C454.435 180.55 453.925 180.214 453.493 179.794C453.061 179.374 452.719 178.876 452.467 178.3C452.227 177.712 452.107 177.082 452.107 176.41C452.107 175.75 452.227 175.132 452.467 174.556C452.707 173.98 453.031 173.482 453.439 173.062C453.847 172.642 454.333 172.312 454.897 172.072C455.461 171.82 456.061 171.694 456.697 171.694C457.321 171.694 457.903 171.82 458.443 172.072C458.995 172.312 459.463 172.648 459.847 173.08C460.243 173.5 460.555 174.004 460.783 174.592C461.011 175.18 461.125 175.81 461.125 176.482V177.004H453.889C454.009 177.76 454.357 178.39 454.933 178.894C455.509 179.386 456.193 179.632 456.985 179.632C457.429 179.632 457.855 179.56 458.263 179.416C458.671 179.272 459.019 179.074 459.307 178.822L460.459 179.956ZM456.661 173.206C455.977 173.206 455.377 173.434 454.861 173.89C454.357 174.346 454.039 174.934 453.907 175.654H459.343C459.211 174.958 458.893 174.376 458.389 173.908C457.897 173.44 457.321 173.206 456.661 173.206ZM469.553 181L465.593 171.838H467.573L470.435 178.696L473.297 171.838H475.223L471.263 181H469.553ZM477.239 170.362C476.939 170.362 476.681 170.254 476.465 170.038C476.249 169.81 476.141 169.546 476.141 169.246C476.141 168.946 476.249 168.688 476.465 168.472C476.681 168.244 476.939 168.13 477.239 168.13C477.539 168.13 477.797 168.244 478.013 168.472C478.241 168.688 478.355 168.946 478.355 169.246C478.355 169.546 478.241 169.81 478.013 170.038C477.797 170.254 477.539 170.362 477.239 170.362ZM478.139 171.838V181H476.339V171.838H478.139ZM480.259 181V171.838H482.059V173.008C482.335 172.564 482.689 172.228 483.121 172C483.553 171.76 484.039 171.64 484.579 171.64C484.771 171.64 484.939 171.652 485.083 171.676C485.227 171.7 485.365 171.736 485.497 171.784V173.404C485.329 173.344 485.155 173.296 484.975 173.26C484.795 173.224 484.615 173.206 484.435 173.206C483.907 173.206 483.433 173.35 483.013 173.638C482.605 173.914 482.287 174.328 482.059 174.88V181H480.259ZM488.197 178.732V173.35H486.253V171.838H488.197V169.498L489.979 169.066V171.838H492.679V173.35H489.979V178.318C489.979 178.786 490.081 179.116 490.285 179.308C490.501 179.5 490.849 179.596 491.329 179.596C491.581 179.596 491.803 179.584 491.995 179.56C492.199 179.524 492.415 179.464 492.643 179.38V180.892C492.403 180.976 492.121 181.042 491.797 181.09C491.485 181.138 491.197 181.162 490.933 181.162C490.045 181.162 489.367 180.958 488.899 180.55C488.431 180.13 488.197 179.524 488.197 178.732ZM495.769 171.838V177.274C495.769 177.994 495.973 178.564 496.381 178.984C496.801 179.404 497.353 179.614 498.037 179.614C498.517 179.614 498.949 179.512 499.333 179.308C499.717 179.092 500.035 178.792 500.287 178.408V171.838H502.087V181H500.287V180.082C499.927 180.442 499.513 180.718 499.045 180.91C498.589 181.09 498.085 181.18 497.533 181.18C496.489 181.18 495.631 180.844 494.959 180.172C494.299 179.5 493.969 178.636 493.969 177.58V171.838H495.769ZM507.116 181.162C506.12 181.162 505.31 180.904 504.686 180.388C504.062 179.872 503.75 179.2 503.75 178.372C503.75 177.508 504.08 176.83 504.74 176.338C505.4 175.834 506.306 175.582 507.458 175.582C507.902 175.582 508.334 175.63 508.754 175.726C509.174 175.81 509.576 175.93 509.96 176.086V175.114C509.96 174.466 509.768 173.98 509.384 173.656C509 173.332 508.448 173.17 507.728 173.17C507.308 173.17 506.87 173.236 506.414 173.368C505.958 173.488 505.448 173.68 504.884 173.944L504.218 172.594C504.902 172.27 505.55 172.036 506.162 171.892C506.774 171.736 507.38 171.658 507.98 171.658C509.168 171.658 510.086 171.946 510.734 172.522C511.394 173.086 511.724 173.89 511.724 174.934V181H509.96V180.208C509.552 180.532 509.114 180.772 508.646 180.928C508.178 181.084 507.668 181.162 507.116 181.162ZM505.478 178.336C505.478 178.78 505.664 179.14 506.036 179.416C506.42 179.692 506.918 179.83 507.53 179.83C508.01 179.83 508.454 179.758 508.862 179.614C509.27 179.47 509.636 179.254 509.96 178.966V177.382C509.612 177.19 509.246 177.052 508.862 176.968C508.478 176.872 508.058 176.824 507.602 176.824C506.954 176.824 506.438 176.962 506.054 177.238C505.67 177.514 505.478 177.88 505.478 178.336ZM515.598 168.004V181H513.798V168.4L515.598 168.004ZM519.518 168.004V181H517.718V168.4L519.518 168.004ZM523.924 181.864L524.284 181.036L520.63 171.838H522.61L525.292 178.84L528.244 171.838H530.188L525.76 182.098C525.34 183.07 524.86 183.766 524.32 184.186C523.78 184.618 523.09 184.834 522.25 184.834C522.058 184.834 521.878 184.822 521.71 184.798C521.554 184.786 521.416 184.762 521.296 184.726V183.142C521.416 183.166 521.536 183.184 521.656 183.196C521.788 183.208 521.938 183.214 522.106 183.214C522.514 183.214 522.868 183.1 523.168 182.872C523.48 182.656 523.732 182.32 523.924 181.864ZM135.594 207.162C134.598 207.162 133.788 206.904 133.164 206.388C132.54 205.872 132.228 205.2 132.228 204.372C132.228 203.508 132.558 202.83 133.218 202.338C133.878 201.834 134.784 201.582 135.936 201.582C136.38 201.582 136.812 201.63 137.232 201.726C137.652 201.81 138.054 201.93 138.438 202.086V201.114C138.438 200.466 138.246 199.98 137.862 199.656C137.478 199.332 136.926 199.17 136.206 199.17C135.786 199.17 135.348 199.236 134.892 199.368C134.436 199.488 133.926 199.68 133.362 199.944L132.696 198.594C133.38 198.27 134.028 198.036 134.64 197.892C135.252 197.736 135.858 197.658 136.458 197.658C137.646 197.658 138.564 197.946 139.212 198.522C139.872 199.086 140.202 199.89 140.202 200.934V207H138.438V206.208C138.03 206.532 137.592 206.772 137.124 206.928C136.656 207.084 136.146 207.162 135.594 207.162ZM133.956 204.336C133.956 204.78 134.142 205.14 134.514 205.416C134.898 205.692 135.396 205.83 136.008 205.83C136.488 205.83 136.932 205.758 137.34 205.614C137.748 205.47 138.114 205.254 138.438 204.966V203.382C138.09 203.19 137.724 203.052 137.34 202.968C136.956 202.872 136.536 202.824 136.08 202.824C135.432 202.824 134.916 202.962 134.532 203.238C134.148 203.514 133.956 203.88 133.956 204.336ZM142.276 207V197.838H144.076V198.756C144.436 198.396 144.844 198.126 145.3 197.946C145.768 197.754 146.278 197.658 146.83 197.658C147.874 197.658 148.732 197.994 149.404 198.666C150.076 199.326 150.412 200.184 150.412 201.24V207H148.612V201.546C148.612 200.826 148.402 200.262 147.982 199.854C147.574 199.434 147.028 199.224 146.344 199.224C145.864 199.224 145.426 199.326 145.03 199.53C144.646 199.734 144.328 200.028 144.076 200.412V207H142.276ZM159.509 207V206.136C159.125 206.46 158.693 206.712 158.213 206.892C157.733 207.06 157.229 207.144 156.701 207.144C156.053 207.144 155.447 207.024 154.883 206.784C154.319 206.532 153.827 206.196 153.407 205.776C152.999 205.356 152.675 204.858 152.435 204.282C152.195 203.694 152.075 203.07 152.075 202.41C152.075 201.75 152.195 201.132 152.435 200.556C152.675 199.98 152.999 199.482 153.407 199.062C153.827 198.642 154.325 198.312 154.901 198.072C155.477 197.82 156.089 197.694 156.737 197.694C157.241 197.694 157.727 197.772 158.195 197.928C158.663 198.084 159.095 198.306 159.491 198.594V194.4L161.291 194.004V207H159.509ZM153.839 202.392C153.839 203.292 154.139 204.048 154.739 204.66C155.339 205.272 156.077 205.578 156.953 205.578C157.469 205.578 157.943 205.482 158.375 205.29C158.819 205.098 159.191 204.828 159.491 204.48V200.322C159.191 199.986 158.819 199.722 158.375 199.53C157.931 199.338 157.457 199.242 156.953 199.242C156.077 199.242 155.339 199.542 154.739 200.142C154.139 200.742 153.839 201.492 153.839 202.392ZM171.558 205.578C172.014 205.578 172.446 205.488 172.854 205.308C173.262 205.116 173.652 204.834 174.024 204.462L175.104 205.632C174.624 206.112 174.072 206.49 173.448 206.766C172.824 207.03 172.17 207.162 171.486 207.162C170.826 207.162 170.208 207.042 169.632 206.802C169.056 206.55 168.558 206.214 168.138 205.794C167.718 205.374 167.382 204.876 167.13 204.3C166.89 203.712 166.77 203.082 166.77 202.41C166.77 201.75 166.89 201.132 167.13 200.556C167.382 199.968 167.718 199.464 168.138 199.044C168.558 198.612 169.056 198.276 169.632 198.036C170.208 197.784 170.826 197.658 171.486 197.658C172.17 197.658 172.836 197.796 173.484 198.072C174.132 198.336 174.696 198.708 175.176 199.188L174.042 200.412C173.694 200.04 173.304 199.758 172.872 199.566C172.44 199.362 171.99 199.26 171.522 199.26C170.694 199.26 169.992 199.566 169.416 200.178C168.84 200.79 168.552 201.534 168.552 202.41C168.552 203.31 168.84 204.066 169.416 204.678C170.004 205.278 170.718 205.578 171.558 205.578ZM175.805 202.41C175.805 201.75 175.925 201.132 176.165 200.556C176.417 199.968 176.759 199.464 177.191 199.044C177.623 198.612 178.127 198.276 178.703 198.036C179.291 197.784 179.915 197.658 180.575 197.658C181.235 197.658 181.853 197.784 182.429 198.036C183.017 198.276 183.521 198.612 183.941 199.044C184.373 199.464 184.709 199.968 184.949 200.556C185.201 201.132 185.327 201.75 185.327 202.41C185.327 203.082 185.201 203.712 184.949 204.3C184.709 204.876 184.373 205.38 183.941 205.812C183.521 206.232 183.017 206.568 182.429 206.82C181.853 207.06 181.235 207.18 180.575 207.18C179.915 207.18 179.291 207.06 178.703 206.82C178.127 206.568 177.623 206.232 177.191 205.812C176.759 205.38 176.417 204.876 176.165 204.3C175.925 203.712 175.805 203.082 175.805 202.41ZM180.575 205.596C181.403 205.596 182.105 205.29 182.681 204.678C183.269 204.054 183.563 203.298 183.563 202.41C183.563 201.522 183.269 200.772 182.681 200.16C182.105 199.548 181.403 199.242 180.575 199.242C179.747 199.242 179.039 199.548 178.451 200.16C177.863 200.772 177.569 201.522 177.569 202.41C177.569 203.298 177.857 204.054 178.433 204.678C179.021 205.29 179.735 205.596 180.575 205.596ZM188.83 194.004V207H187.03V194.4L188.83 194.004ZM192.75 194.004V207H190.95V194.4L192.75 194.004ZM197.768 207.162C196.772 207.162 195.962 206.904 195.338 206.388C194.714 205.872 194.402 205.2 194.402 204.372C194.402 203.508 194.732 202.83 195.392 202.338C196.052 201.834 196.958 201.582 198.11 201.582C198.554 201.582 198.986 201.63 199.406 201.726C199.826 201.81 200.228 201.93 200.612 202.086V201.114C200.612 200.466 200.42 199.98 200.036 199.656C199.652 199.332 199.1 199.17 198.38 199.17C197.96 199.17 197.522 199.236 197.066 199.368C196.61 199.488 196.1 199.68 195.536 199.944L194.87 198.594C195.554 198.27 196.202 198.036 196.814 197.892C197.426 197.736 198.032 197.658 198.632 197.658C199.82 197.658 200.738 197.946 201.386 198.522C202.046 199.086 202.376 199.89 202.376 200.934V207H200.612V206.208C200.204 206.532 199.766 206.772 199.298 206.928C198.83 207.084 198.32 207.162 197.768 207.162ZM196.13 204.336C196.13 204.78 196.316 205.14 196.688 205.416C197.072 205.692 197.57 205.83 198.182 205.83C198.662 205.83 199.106 205.758 199.514 205.614C199.922 205.47 200.288 205.254 200.612 204.966V203.382C200.264 203.19 199.898 203.052 199.514 202.968C199.13 202.872 198.71 202.824 198.254 202.824C197.606 202.824 197.09 202.962 196.706 203.238C196.322 203.514 196.13 203.88 196.13 204.336ZM213.666 202.41C213.666 203.07 213.546 203.694 213.306 204.282C213.066 204.858 212.736 205.356 212.316 205.776C211.908 206.196 211.416 206.532 210.84 206.784C210.264 207.024 209.652 207.144 209.004 207.144C208.488 207.144 207.996 207.066 207.528 206.91C207.06 206.754 206.628 206.526 206.232 206.226V207H204.45V194.4L206.25 194.004V198.702C206.622 198.378 207.048 198.132 207.528 197.964C208.008 197.784 208.512 197.694 209.04 197.694C209.688 197.694 210.294 197.82 210.858 198.072C211.422 198.312 211.908 198.642 212.316 199.062C212.736 199.482 213.066 199.98 213.306 200.556C213.546 201.132 213.666 201.75 213.666 202.41ZM208.806 199.26C208.29 199.26 207.81 199.356 207.366 199.548C206.922 199.74 206.55 200.01 206.25 200.358V204.498C206.538 204.834 206.904 205.098 207.348 205.29C207.804 205.482 208.29 205.578 208.806 205.578C209.682 205.578 210.414 205.278 211.002 204.678C211.602 204.078 211.902 203.328 211.902 202.428C211.902 201.528 211.602 200.778 211.002 200.178C210.402 199.566 209.67 199.26 208.806 199.26ZM215.004 202.41C215.004 201.75 215.124 201.132 215.364 200.556C215.616 199.968 215.958 199.464 216.39 199.044C216.822 198.612 217.326 198.276 217.902 198.036C218.49 197.784 219.114 197.658 219.774 197.658C220.434 197.658 221.052 197.784 221.628 198.036C222.216 198.276 222.72 198.612 223.14 199.044C223.572 199.464 223.908 199.968 224.148 200.556C224.4 201.132 224.526 201.75 224.526 202.41C224.526 203.082 224.4 203.712 224.148 204.3C223.908 204.876 223.572 205.38 223.14 205.812C222.72 206.232 222.216 206.568 221.628 206.82C221.052 207.06 220.434 207.18 219.774 207.18C219.114 207.18 218.49 207.06 217.902 206.82C217.326 206.568 216.822 206.232 216.39 205.812C215.958 205.38 215.616 204.876 215.364 204.3C215.124 203.712 215.004 203.082 215.004 202.41ZM219.774 205.596C220.602 205.596 221.304 205.29 221.88 204.678C222.468 204.054 222.762 203.298 222.762 202.41C222.762 201.522 222.468 200.772 221.88 200.16C221.304 199.548 220.602 199.242 219.774 199.242C218.946 199.242 218.238 199.548 217.65 200.16C217.062 200.772 216.768 201.522 216.768 202.41C216.768 203.298 217.056 204.054 217.632 204.678C218.22 205.29 218.934 205.596 219.774 205.596ZM226.229 207V197.838H228.029V199.008C228.305 198.564 228.659 198.228 229.091 198C229.523 197.76 230.009 197.64 230.549 197.64C230.741 197.64 230.909 197.652 231.053 197.676C231.197 197.7 231.335 197.736 231.467 197.784V199.404C231.299 199.344 231.125 199.296 230.945 199.26C230.765 199.224 230.585 199.206 230.405 199.206C229.877 199.206 229.403 199.35 228.983 199.638C228.575 199.914 228.257 200.328 228.029 200.88V207H226.229ZM235.42 207.162C234.424 207.162 233.614 206.904 232.99 206.388C232.366 205.872 232.054 205.2 232.054 204.372C232.054 203.508 232.384 202.83 233.044 202.338C233.704 201.834 234.61 201.582 235.762 201.582C236.206 201.582 236.638 201.63 237.058 201.726C237.478 201.81 237.88 201.93 238.264 202.086V201.114C238.264 200.466 238.072 199.98 237.688 199.656C237.304 199.332 236.752 199.17 236.032 199.17C235.612 199.17 235.174 199.236 234.718 199.368C234.262 199.488 233.752 199.68 233.188 199.944L232.522 198.594C233.206 198.27 233.854 198.036 234.466 197.892C235.078 197.736 235.684 197.658 236.284 197.658C237.472 197.658 238.39 197.946 239.038 198.522C239.698 199.086 240.028 199.89 240.028 200.934V207H238.264V206.208C237.856 206.532 237.418 206.772 236.95 206.928C236.482 207.084 235.972 207.162 235.42 207.162ZM233.782 204.336C233.782 204.78 233.968 205.14 234.34 205.416C234.724 205.692 235.222 205.83 235.834 205.83C236.314 205.83 236.758 205.758 237.166 205.614C237.574 205.47 237.94 205.254 238.264 204.966V203.382C237.916 203.19 237.55 203.052 237.166 202.968C236.782 202.872 236.362 202.824 235.906 202.824C235.258 202.824 234.742 202.962 234.358 203.238C233.974 203.514 233.782 203.88 233.782 204.336ZM242.938 204.732V199.35H240.994V197.838H242.938V195.498L244.72 195.066V197.838H247.42V199.35H244.72V204.318C244.72 204.786 244.822 205.116 245.026 205.308C245.242 205.5 245.59 205.596 246.07 205.596C246.322 205.596 246.544 205.584 246.736 205.56C246.94 205.524 247.156 205.464 247.384 205.38V206.892C247.144 206.976 246.862 207.042 246.538 207.09C246.226 207.138 245.938 207.162 245.674 207.162C244.786 207.162 244.108 206.958 243.64 206.55C243.172 206.13 242.938 205.524 242.938 204.732ZM256.491 205.956C255.963 206.364 255.411 206.67 254.835 206.874C254.259 207.066 253.629 207.162 252.945 207.162C252.273 207.162 251.643 207.042 251.055 206.802C250.467 206.55 249.957 206.214 249.525 205.794C249.093 205.374 248.751 204.876 248.499 204.3C248.259 203.712 248.139 203.082 248.139 202.41C248.139 201.75 248.259 201.132 248.499 200.556C248.739 199.98 249.063 199.482 249.471 199.062C249.879 198.642 250.365 198.312 250.929 198.072C251.493 197.82 252.093 197.694 252.729 197.694C253.353 197.694 253.935 197.82 254.475 198.072C255.027 198.312 255.495 198.648 255.879 199.08C256.275 199.5 256.587 200.004 256.815 200.592C257.043 201.18 257.157 201.81 257.157 202.482V203.004H249.921C250.041 203.76 250.389 204.39 250.965 204.894C251.541 205.386 252.225 205.632 253.017 205.632C253.461 205.632 253.887 205.56 254.295 205.416C254.703 205.272 255.051 205.074 255.339 204.822L256.491 205.956ZM252.693 199.206C252.009 199.206 251.409 199.434 250.893 199.89C250.389 200.346 250.071 200.934 249.939 201.654H255.375C255.243 200.958 254.925 200.376 254.421 199.908C253.929 199.44 253.353 199.206 252.693 199.206ZM265.531 207.162C264.535 207.162 263.725 206.904 263.101 206.388C262.477 205.872 262.165 205.2 262.165 204.372C262.165 203.508 262.495 202.83 263.155 202.338C263.815 201.834 264.721 201.582 265.873 201.582C266.317 201.582 266.749 201.63 267.169 201.726C267.589 201.81 267.991 201.93 268.375 202.086V201.114C268.375 200.466 268.183 199.98 267.799 199.656C267.415 199.332 266.863 199.17 266.143 199.17C265.723 199.17 265.285 199.236 264.829 199.368C264.373 199.488 263.863 199.68 263.299 199.944L262.633 198.594C263.317 198.27 263.965 198.036 264.577 197.892C265.189 197.736 265.795 197.658 266.395 197.658C267.583 197.658 268.501 197.946 269.149 198.522C269.809 199.086 270.139 199.89 270.139 200.934V207H268.375V206.208C267.967 206.532 267.529 206.772 267.061 206.928C266.593 207.084 266.083 207.162 265.531 207.162ZM263.893 204.336C263.893 204.78 264.079 205.14 264.451 205.416C264.835 205.692 265.333 205.83 265.945 205.83C266.425 205.83 266.869 205.758 267.277 205.614C267.685 205.47 268.051 205.254 268.375 204.966V203.382C268.027 203.19 267.661 203.052 267.277 202.968C266.893 202.872 266.473 202.824 266.017 202.824C265.369 202.824 264.853 202.962 264.469 203.238C264.085 203.514 263.893 203.88 263.893 204.336ZM276.587 205.578C277.043 205.578 277.475 205.488 277.883 205.308C278.291 205.116 278.681 204.834 279.053 204.462L280.133 205.632C279.653 206.112 279.101 206.49 278.477 206.766C277.853 207.03 277.199 207.162 276.515 207.162C275.855 207.162 275.237 207.042 274.661 206.802C274.085 206.55 273.587 206.214 273.167 205.794C272.747 205.374 272.411 204.876 272.159 204.3C271.919 203.712 271.799 203.082 271.799 202.41C271.799 201.75 271.919 201.132 272.159 200.556C272.411 199.968 272.747 199.464 273.167 199.044C273.587 198.612 274.085 198.276 274.661 198.036C275.237 197.784 275.855 197.658 276.515 197.658C277.199 197.658 277.865 197.796 278.513 198.072C279.161 198.336 279.725 198.708 280.205 199.188L279.071 200.412C278.723 200.04 278.333 199.758 277.901 199.566C277.469 199.362 277.019 199.26 276.551 199.26C275.723 199.26 275.021 199.566 274.445 200.178C273.869 200.79 273.581 201.534 273.581 202.41C273.581 203.31 273.869 204.066 274.445 204.678C275.033 205.278 275.747 205.578 276.587 205.578ZM281.6 207V197.838H283.4V199.008C283.676 198.564 284.03 198.228 284.462 198C284.894 197.76 285.38 197.64 285.92 197.64C286.112 197.64 286.28 197.652 286.424 197.676C286.568 197.7 286.706 197.736 286.838 197.784V199.404C286.67 199.344 286.496 199.296 286.316 199.26C286.136 199.224 285.956 199.206 285.776 199.206C285.248 199.206 284.774 199.35 284.354 199.638C283.946 199.914 283.628 200.328 283.4 200.88V207H281.6ZM287.303 202.41C287.303 201.75 287.423 201.132 287.663 200.556C287.915 199.968 288.257 199.464 288.689 199.044C289.121 198.612 289.625 198.276 290.201 198.036C290.789 197.784 291.413 197.658 292.073 197.658C292.733 197.658 293.351 197.784 293.927 198.036C294.515 198.276 295.019 198.612 295.439 199.044C295.871 199.464 296.207 199.968 296.447 200.556C296.699 201.132 296.825 201.75 296.825 202.41C296.825 203.082 296.699 203.712 296.447 204.3C296.207 204.876 295.871 205.38 295.439 205.812C295.019 206.232 294.515 206.568 293.927 206.82C293.351 207.06 292.733 207.18 292.073 207.18C291.413 207.18 290.789 207.06 290.201 206.82C289.625 206.568 289.121 206.232 288.689 205.812C288.257 205.38 287.915 204.876 287.663 204.3C287.423 203.712 287.303 203.082 287.303 202.41ZM292.073 205.596C292.901 205.596 293.603 205.29 294.179 204.678C294.767 204.054 295.061 203.298 295.061 202.41C295.061 201.522 294.767 200.772 294.179 200.16C293.603 199.548 292.901 199.242 292.073 199.242C291.245 199.242 290.537 199.548 289.949 200.16C289.361 200.772 289.067 201.522 289.067 202.41C289.067 203.298 289.355 204.054 289.931 204.678C290.519 205.29 291.233 205.596 292.073 205.596ZM297.664 205.812L298.636 204.624C299.116 204.996 299.602 205.284 300.094 205.488C300.598 205.68 301.108 205.776 301.624 205.776C302.272 205.776 302.8 205.65 303.208 205.398C303.616 205.146 303.82 204.816 303.82 204.408C303.82 204.084 303.7 203.826 303.46 203.634C303.22 203.442 302.848 203.31 302.344 203.238L300.688 203.004C299.788 202.872 299.104 202.596 298.636 202.176C298.18 201.744 297.952 201.174 297.952 200.466C297.952 199.638 298.282 198.972 298.942 198.468C299.602 197.952 300.466 197.694 301.534 197.694C302.206 197.694 302.842 197.79 303.442 197.982C304.054 198.174 304.648 198.468 305.224 198.864L304.306 200.052C303.802 199.716 303.31 199.476 302.83 199.332C302.362 199.176 301.888 199.098 301.408 199.098C300.856 199.098 300.412 199.212 300.076 199.44C299.74 199.668 299.572 199.968 299.572 200.34C299.572 200.676 299.686 200.934 299.914 201.114C300.154 201.282 300.544 201.408 301.084 201.492L302.74 201.726C303.64 201.858 304.324 202.14 304.792 202.572C305.272 203.004 305.512 203.574 305.512 204.282C305.512 204.69 305.41 205.074 305.206 205.434C305.014 205.782 304.744 206.082 304.396 206.334C304.06 206.586 303.658 206.79 303.19 206.946C302.722 207.09 302.218 207.162 301.678 207.162C300.886 207.162 300.142 207.048 299.446 206.82C298.762 206.592 298.168 206.256 297.664 205.812ZM306.136 205.812L307.108 204.624C307.588 204.996 308.074 205.284 308.566 205.488C309.07 205.68 309.58 205.776 310.096 205.776C310.744 205.776 311.272 205.65 311.68 205.398C312.088 205.146 312.292 204.816 312.292 204.408C312.292 204.084 312.172 203.826 311.932 203.634C311.692 203.442 311.32 203.31 310.816 203.238L309.16 203.004C308.26 202.872 307.576 202.596 307.108 202.176C306.652 201.744 306.424 201.174 306.424 200.466C306.424 199.638 306.754 198.972 307.414 198.468C308.074 197.952 308.938 197.694 310.006 197.694C310.678 197.694 311.314 197.79 311.914 197.982C312.526 198.174 313.12 198.468 313.696 198.864L312.778 200.052C312.274 199.716 311.782 199.476 311.302 199.332C310.834 199.176 310.36 199.098 309.88 199.098C309.328 199.098 308.884 199.212 308.548 199.44C308.212 199.668 308.044 199.968 308.044 200.34C308.044 200.676 308.158 200.934 308.386 201.114C308.626 201.282 309.016 201.408 309.556 201.492L311.212 201.726C312.112 201.858 312.796 202.14 313.264 202.572C313.744 203.004 313.984 203.574 313.984 204.282C313.984 204.69 313.882 205.074 313.678 205.434C313.486 205.782 313.216 206.082 312.868 206.334C312.532 206.586 312.13 206.79 311.662 206.946C311.194 207.09 310.69 207.162 310.15 207.162C309.358 207.162 308.614 207.048 307.918 206.82C307.234 206.592 306.64 206.256 306.136 205.812ZM322.027 207.162C321.031 207.162 320.221 206.904 319.597 206.388C318.973 205.872 318.661 205.2 318.661 204.372C318.661 203.508 318.991 202.83 319.651 202.338C320.311 201.834 321.217 201.582 322.369 201.582C322.813 201.582 323.245 201.63 323.665 201.726C324.085 201.81 324.487 201.93 324.871 202.086V201.114C324.871 200.466 324.679 199.98 324.295 199.656C323.911 199.332 323.359 199.17 322.639 199.17C322.219 199.17 321.781 199.236 321.325 199.368C320.869 199.488 320.359 199.68 319.795 199.944L319.129 198.594C319.813 198.27 320.461 198.036 321.073 197.892C321.685 197.736 322.291 197.658 322.891 197.658C324.079 197.658 324.997 197.946 325.645 198.522C326.305 199.086 326.635 199.89 326.635 200.934V207H324.871V206.208C324.463 206.532 324.025 206.772 323.557 206.928C323.089 207.084 322.579 207.162 322.027 207.162ZM320.389 204.336C320.389 204.78 320.575 205.14 320.947 205.416C321.331 205.692 321.829 205.83 322.441 205.83C322.921 205.83 323.365 205.758 323.773 205.614C324.181 205.47 324.547 205.254 324.871 204.966V203.382C324.523 203.19 324.157 203.052 323.773 202.968C323.389 202.872 322.969 202.824 322.513 202.824C321.865 202.824 321.349 202.962 320.965 203.238C320.581 203.514 320.389 203.88 320.389 204.336ZM328.709 207V197.838H330.509V198.756C330.869 198.396 331.277 198.126 331.733 197.946C332.201 197.754 332.711 197.658 333.263 197.658C334.307 197.658 335.165 197.994 335.837 198.666C336.509 199.326 336.845 200.184 336.845 201.24V207H335.045V201.546C335.045 200.826 334.835 200.262 334.415 199.854C334.007 199.434 333.461 199.224 332.777 199.224C332.297 199.224 331.859 199.326 331.463 199.53C331.079 199.734 330.761 200.028 330.509 200.412V207H328.709ZM341.033 207.864L341.393 207.036L337.739 197.838H339.719L342.401 204.84L345.353 197.838H347.297L342.869 208.098C342.449 209.07 341.969 209.766 341.429 210.186C340.889 210.618 340.199 210.834 339.359 210.834C339.167 210.834 338.987 210.822 338.819 210.798C338.663 210.786 338.525 210.762 338.405 210.726V209.142C338.525 209.166 338.645 209.184 338.765 209.196C338.897 209.208 339.047 209.214 339.215 209.214C339.623 209.214 339.977 209.1 340.277 208.872C340.589 208.656 340.841 208.32 341.033 207.864ZM359.196 207V206.136C358.812 206.46 358.38 206.712 357.9 206.892C357.42 207.06 356.916 207.144 356.388 207.144C355.74 207.144 355.134 207.024 354.57 206.784C354.006 206.532 353.514 206.196 353.094 205.776C352.686 205.356 352.362 204.858 352.122 204.282C351.882 203.694 351.762 203.07 351.762 202.41C351.762 201.75 351.882 201.132 352.122 200.556C352.362 199.98 352.686 199.482 353.094 199.062C353.514 198.642 354.012 198.312 354.588 198.072C355.164 197.82 355.776 197.694 356.424 197.694C356.928 197.694 357.414 197.772 357.882 197.928C358.35 198.084 358.782 198.306 359.178 198.594V194.4L360.978 194.004V207H359.196ZM353.526 202.392C353.526 203.292 353.826 204.048 354.426 204.66C355.026 205.272 355.764 205.578 356.64 205.578C357.156 205.578 357.63 205.482 358.062 205.29C358.506 205.098 358.878 204.828 359.178 204.48V200.322C358.878 199.986 358.506 199.722 358.062 199.53C357.618 199.338 357.144 199.242 356.64 199.242C355.764 199.242 355.026 199.542 354.426 200.142C353.826 200.742 353.526 201.492 353.526 202.392ZM371.048 205.956C370.52 206.364 369.968 206.67 369.392 206.874C368.816 207.066 368.186 207.162 367.502 207.162C366.83 207.162 366.2 207.042 365.612 206.802C365.024 206.55 364.514 206.214 364.082 205.794C363.65 205.374 363.308 204.876 363.056 204.3C362.816 203.712 362.696 203.082 362.696 202.41C362.696 201.75 362.816 201.132 363.056 200.556C363.296 199.98 363.62 199.482 364.028 199.062C364.436 198.642 364.922 198.312 365.486 198.072C366.05 197.82 366.65 197.694 367.286 197.694C367.91 197.694 368.492 197.82 369.032 198.072C369.584 198.312 370.052 198.648 370.436 199.08C370.832 199.5 371.144 200.004 371.372 200.592C371.6 201.18 371.714 201.81 371.714 202.482V203.004H364.478C364.598 203.76 364.946 204.39 365.522 204.894C366.098 205.386 366.782 205.632 367.574 205.632C368.018 205.632 368.444 205.56 368.852 205.416C369.26 205.272 369.608 205.074 369.896 204.822L371.048 205.956ZM367.25 199.206C366.566 199.206 365.966 199.434 365.45 199.89C364.946 200.346 364.628 200.934 364.496 201.654H369.932C369.8 200.958 369.482 200.376 368.978 199.908C368.486 199.44 367.91 199.206 367.25 199.206ZM376.029 207L372.069 197.838H374.049L376.911 204.696L379.773 197.838H381.699L377.739 207H376.029ZM383.715 196.362C383.415 196.362 383.157 196.254 382.941 196.038C382.725 195.81 382.617 195.546 382.617 195.246C382.617 194.946 382.725 194.688 382.941 194.472C383.157 194.244 383.415 194.13 383.715 194.13C384.015 194.13 384.273 194.244 384.489 194.472C384.717 194.688 384.831 194.946 384.831 195.246C384.831 195.546 384.717 195.81 384.489 196.038C384.273 196.254 384.015 196.362 383.715 196.362ZM384.615 197.838V207H382.815V197.838H384.615ZM391.109 205.578C391.565 205.578 391.997 205.488 392.405 205.308C392.813 205.116 393.203 204.834 393.575 204.462L394.655 205.632C394.175 206.112 393.623 206.49 392.999 206.766C392.375 207.03 391.721 207.162 391.037 207.162C390.377 207.162 389.759 207.042 389.183 206.802C388.607 206.55 388.109 206.214 387.689 205.794C387.269 205.374 386.933 204.876 386.681 204.3C386.441 203.712 386.321 203.082 386.321 202.41C386.321 201.75 386.441 201.132 386.681 200.556C386.933 199.968 387.269 199.464 387.689 199.044C388.109 198.612 388.607 198.276 389.183 198.036C389.759 197.784 390.377 197.658 391.037 197.658C391.721 197.658 392.387 197.796 393.035 198.072C393.683 198.336 394.247 198.708 394.727 199.188L393.593 200.412C393.245 200.04 392.855 199.758 392.423 199.566C391.991 199.362 391.541 199.26 391.073 199.26C390.245 199.26 389.543 199.566 388.967 200.178C388.391 200.79 388.103 201.534 388.103 202.41C388.103 203.31 388.391 204.066 388.967 204.678C389.555 205.278 390.269 205.578 391.109 205.578ZM403.708 205.956C403.18 206.364 402.628 206.67 402.052 206.874C401.476 207.066 400.846 207.162 400.162 207.162C399.49 207.162 398.86 207.042 398.272 206.802C397.684 206.55 397.174 206.214 396.742 205.794C396.31 205.374 395.968 204.876 395.716 204.3C395.476 203.712 395.356 203.082 395.356 202.41C395.356 201.75 395.476 201.132 395.716 200.556C395.956 199.98 396.28 199.482 396.688 199.062C397.096 198.642 397.582 198.312 398.146 198.072C398.71 197.82 399.31 197.694 399.946 197.694C400.57 197.694 401.152 197.82 401.692 198.072C402.244 198.312 402.712 198.648 403.096 199.08C403.492 199.5 403.804 200.004 404.032 200.592C404.26 201.18 404.374 201.81 404.374 202.482V203.004H397.138C397.258 203.76 397.606 204.39 398.182 204.894C398.758 205.386 399.442 205.632 400.234 205.632C400.678 205.632 401.104 205.56 401.512 205.416C401.92 205.272 402.268 205.074 402.556 204.822L403.708 205.956ZM399.91 199.206C399.226 199.206 398.626 199.434 398.11 199.89C397.606 200.346 397.288 200.934 397.156 201.654H402.592C402.46 200.958 402.142 200.376 401.638 199.908C401.146 199.44 400.57 199.206 399.91 199.206ZM406.425 204.858C406.737 204.858 407.001 204.972 407.217 205.2C407.445 205.416 407.559 205.68 407.559 205.992C407.559 206.304 407.445 206.574 407.217 206.802C407.001 207.03 406.737 207.144 406.425 207.144C406.113 207.144 405.843 207.03 405.615 206.802C405.387 206.574 405.273 206.304 405.273 205.992C405.273 205.68 405.387 205.416 405.615 205.2C405.843 204.972 406.113 204.858 406.425 204.858Z" fill="#87879D"/>
<g clip-path="url(#clip0_0_263)">
<rect x="96" y="246" width="193" height="58" rx="29" fill="#4D96A9"/>
<path d="M136.928 281V269.8H141.472C142.293 269.8 143.067 269.949 143.792 270.248C144.517 270.536 145.141 270.931 145.664 271.432C146.197 271.933 146.619 272.531 146.928 273.224C147.237 273.907 147.392 274.643 147.392 275.432C147.392 276.2 147.237 276.925 146.928 277.608C146.619 278.291 146.197 278.883 145.664 279.384C145.141 279.885 144.517 280.28 143.792 280.568C143.067 280.856 142.293 281 141.472 281H136.928ZM141.408 272.232H139.68V278.568H141.408C141.845 278.568 142.256 278.488 142.64 278.328C143.024 278.168 143.355 277.949 143.632 277.672C143.92 277.384 144.144 277.048 144.304 276.664C144.464 276.28 144.544 275.869 144.544 275.432C144.544 274.984 144.464 274.568 144.304 274.184C144.144 273.789 143.92 273.448 143.632 273.16C143.355 272.872 143.024 272.648 142.64 272.488C142.256 272.317 141.845 272.232 141.408 272.232ZM148.338 276.776C148.338 276.168 148.455 275.597 148.69 275.064C148.935 274.52 149.261 274.051 149.666 273.656C150.082 273.261 150.567 272.952 151.122 272.728C151.687 272.493 152.29 272.376 152.93 272.376C153.57 272.376 154.167 272.493 154.722 272.728C155.287 272.952 155.773 273.261 156.178 273.656C156.594 274.051 156.919 274.52 157.154 275.064C157.399 275.597 157.522 276.168 157.522 276.776C157.522 277.384 157.399 277.96 157.154 278.504C156.919 279.037 156.594 279.501 156.178 279.896C155.773 280.291 155.287 280.6 154.722 280.824C154.167 281.048 153.57 281.16 152.93 281.16C152.29 281.16 151.687 281.048 151.122 280.824C150.567 280.6 150.082 280.291 149.666 279.896C149.261 279.501 148.935 279.037 148.69 278.504C148.455 277.96 148.338 277.384 148.338 276.776ZM152.93 278.92C153.506 278.92 153.991 278.712 154.386 278.296C154.791 277.88 154.994 277.373 154.994 276.776C154.994 276.168 154.791 275.656 154.386 275.24C153.991 274.824 153.506 274.616 152.93 274.616C152.354 274.616 151.863 274.824 151.458 275.24C151.063 275.656 150.866 276.168 150.866 276.776C150.866 277.373 151.063 277.88 151.458 278.296C151.863 278.712 152.354 278.92 152.93 278.92ZM162.709 281H160.213L157.909 272.536H160.357L161.605 277.512L163.125 272.536H165.269L166.789 277.528L168.021 272.536H170.437L168.117 281H165.637L164.165 276.104L162.709 281ZM171.363 281V272.536H173.955V273.112C174.264 272.877 174.611 272.696 174.995 272.568C175.389 272.44 175.8 272.376 176.227 272.376C177.219 272.376 178.029 272.696 178.659 273.336C179.288 273.976 179.602 274.792 179.602 275.784V281H177.011V276.136C177.011 275.677 176.867 275.309 176.579 275.032C176.301 274.744 175.933 274.6 175.475 274.6C175.144 274.6 174.851 274.659 174.595 274.776C174.339 274.893 174.125 275.059 173.955 275.272V281H171.363ZM183.736 269.24V281H181.144V269.8L183.736 269.24ZM184.947 276.776C184.947 276.168 185.065 275.597 185.299 275.064C185.545 274.52 185.87 274.051 186.275 273.656C186.691 273.261 187.177 272.952 187.731 272.728C188.297 272.493 188.899 272.376 189.539 272.376C190.179 272.376 190.777 272.493 191.331 272.728C191.897 272.952 192.382 273.261 192.787 273.656C193.203 274.051 193.529 274.52 193.763 275.064C194.009 275.597 194.131 276.168 194.131 276.776C194.131 277.384 194.009 277.96 193.763 278.504C193.529 279.037 193.203 279.501 192.787 279.896C192.382 280.291 191.897 280.6 191.331 280.824C190.777 281.048 190.179 281.16 189.539 281.16C188.899 281.16 188.297 281.048 187.731 280.824C187.177 280.6 186.691 280.291 186.275 279.896C185.87 279.501 185.545 279.037 185.299 278.504C185.065 277.96 184.947 277.384 184.947 276.776ZM189.539 278.92C190.115 278.92 190.601 278.712 190.995 278.296C191.401 277.88 191.603 277.373 191.603 276.776C191.603 276.168 191.401 275.656 190.995 275.24C190.601 274.824 190.115 274.616 189.539 274.616C188.963 274.616 188.473 274.824 188.067 275.24C187.673 275.656 187.475 276.168 187.475 276.776C187.475 277.373 187.673 277.88 188.067 278.296C188.473 278.712 188.963 278.92 189.539 278.92ZM198.129 281.144C197.233 281.144 196.497 280.899 195.921 280.408C195.345 279.917 195.057 279.288 195.057 278.52C195.057 277.72 195.361 277.096 195.969 276.648C196.588 276.2 197.446 275.976 198.545 275.976C198.876 275.976 199.201 275.997 199.521 276.04C199.841 276.083 200.156 276.141 200.465 276.216V275.8C200.465 275.373 200.326 275.059 200.049 274.856C199.782 274.643 199.382 274.536 198.849 274.536C198.518 274.536 198.145 274.589 197.729 274.696C197.313 274.803 196.833 274.973 196.289 275.208L195.361 273.304C196.044 272.995 196.71 272.765 197.361 272.616C198.022 272.456 198.673 272.376 199.313 272.376C200.486 272.376 201.398 272.659 202.049 273.224C202.7 273.779 203.025 274.563 203.025 275.576V281H200.465V280.488C200.124 280.723 199.761 280.893 199.377 281C199.004 281.096 198.588 281.144 198.129 281.144ZM197.521 278.472C197.521 278.739 197.638 278.947 197.873 279.096C198.108 279.245 198.433 279.32 198.849 279.32C199.158 279.32 199.446 279.288 199.713 279.224C199.99 279.16 200.241 279.059 200.465 278.92V277.832C200.22 277.768 199.969 277.72 199.713 277.688C199.457 277.656 199.196 277.64 198.929 277.64C198.481 277.64 198.134 277.715 197.889 277.864C197.644 278.003 197.521 278.205 197.521 278.472ZM210.774 281V280.376C210.443 280.611 210.086 280.792 209.702 280.92C209.318 281.048 208.918 281.112 208.502 281.112C207.904 281.112 207.339 281 206.806 280.776C206.283 280.552 205.824 280.243 205.43 279.848C205.046 279.453 204.742 278.995 204.518 278.472C204.294 277.939 204.182 277.368 204.182 276.76C204.182 276.152 204.294 275.587 204.518 275.064C204.752 274.531 205.067 274.072 205.462 273.688C205.856 273.293 206.32 272.984 206.854 272.76C207.398 272.536 207.974 272.424 208.582 272.424C208.976 272.424 209.355 272.472 209.718 272.568C210.08 272.664 210.422 272.803 210.742 272.984V269.8L213.334 269.24V281H210.774ZM206.726 276.76C206.726 277.368 206.939 277.88 207.366 278.296C207.803 278.701 208.331 278.904 208.95 278.904C209.312 278.904 209.643 278.851 209.942 278.744C210.24 278.627 210.507 278.456 210.742 278.232V275.272C210.518 275.069 210.251 274.909 209.942 274.792C209.632 274.675 209.302 274.616 208.95 274.616C208.32 274.616 207.792 274.824 207.366 275.24C206.939 275.645 206.726 276.152 206.726 276.76Z" fill="white"/>
<path d="M222.584 281L218.968 272.536H221.784L223.88 277.72L225.976 272.536H228.728L225.112 281H222.584ZM233.903 269.8V281H231.311V272.424L228.991 273.352V271.112L232.271 269.8H233.903ZM236.736 278.2C237.141 278.2 237.488 278.349 237.776 278.648C238.075 278.936 238.224 279.283 238.224 279.688C238.224 280.093 238.075 280.445 237.776 280.744C237.488 281.032 237.141 281.176 236.736 281.176C236.331 281.176 235.979 281.032 235.68 280.744C235.392 280.445 235.248 280.093 235.248 279.688C235.248 279.283 235.392 278.936 235.68 278.648C235.979 278.349 236.331 278.2 236.736 278.2ZM248.269 277.848C248.269 278.328 248.152 278.771 247.917 279.176C247.682 279.581 247.357 279.933 246.941 280.232C246.536 280.52 246.045 280.749 245.469 280.92C244.904 281.08 244.285 281.16 243.613 281.16C242.706 281.16 241.848 281 241.037 280.68C240.237 280.36 239.576 279.917 239.053 279.352L240.797 277.752C241.224 278.2 241.64 278.509 242.045 278.68C242.461 278.851 242.973 278.936 243.581 278.936C244.2 278.936 244.696 278.819 245.069 278.584C245.453 278.349 245.645 278.035 245.645 277.64C245.645 277.309 245.48 277.048 245.149 276.856C244.829 276.664 244.381 276.568 243.805 276.568H242.749V274.504H243.533C244.066 274.504 244.504 274.376 244.845 274.12C245.186 273.853 245.357 273.517 245.357 273.112C245.357 272.749 245.186 272.456 244.845 272.232C244.514 271.997 244.088 271.88 243.565 271.88C243.032 271.88 242.568 271.976 242.173 272.168C241.789 272.349 241.362 272.68 240.893 273.16L239.133 271.576C239.677 270.968 240.354 270.493 241.165 270.152C241.976 269.8 242.808 269.624 243.661 269.624C244.29 269.624 244.872 269.704 245.405 269.864C245.938 270.013 246.392 270.227 246.765 270.504C247.138 270.781 247.432 271.117 247.645 271.512C247.858 271.907 247.965 272.339 247.965 272.808C247.965 273.352 247.826 273.853 247.549 274.312C247.272 274.76 246.888 275.123 246.397 275.4C246.973 275.624 247.426 275.949 247.757 276.376C248.098 276.803 248.269 277.293 248.269 277.848Z" fill="#8FE3F9"/>
</g>
<g clip-path="url(#clip1_0_263)">
<rect x="305" y="246" width="139" height="58" rx="29" fill="#855FB1"/>
<path d="M339.776 281H336.864L334.368 269.8H337.2L338.56 276.712L340.512 269.8H343.088L345.04 276.712L346.4 269.8H349.136L346.64 281H343.728L341.76 273.864L339.776 281ZM350.3 281V269.8L352.892 269.24V273.112C353.201 272.877 353.548 272.696 353.932 272.568C354.327 272.44 354.737 272.376 355.164 272.376C356.156 272.376 356.967 272.696 357.596 273.336C358.225 273.976 358.54 274.792 358.54 275.784V281H355.948V276.136C355.948 275.677 355.804 275.309 355.516 275.032C355.239 274.744 354.871 274.6 354.412 274.6C354.081 274.6 353.788 274.659 353.532 274.776C353.276 274.893 353.063 275.059 352.892 275.272V281H350.3ZM362.785 281.144C361.889 281.144 361.153 280.899 360.577 280.408C360.001 279.917 359.713 279.288 359.713 278.52C359.713 277.72 360.017 277.096 360.625 276.648C361.244 276.2 362.103 275.976 363.201 275.976C363.532 275.976 363.857 275.997 364.177 276.04C364.497 276.083 364.812 276.141 365.121 276.216V275.8C365.121 275.373 364.983 275.059 364.705 274.856C364.439 274.643 364.039 274.536 363.505 274.536C363.175 274.536 362.801 274.589 362.385 274.696C361.969 274.803 361.489 274.973 360.945 275.208L360.017 273.304C360.7 272.995 361.367 272.765 362.017 272.616C362.679 272.456 363.329 272.376 363.969 272.376C365.143 272.376 366.055 272.659 366.705 273.224C367.356 273.779 367.681 274.563 367.681 275.576V281H365.121V280.488C364.78 280.723 364.417 280.893 364.033 281C363.66 281.096 363.244 281.144 362.785 281.144ZM362.177 278.472C362.177 278.739 362.295 278.947 362.529 279.096C362.764 279.245 363.089 279.32 363.505 279.32C363.815 279.32 364.103 279.288 364.369 279.224C364.647 279.16 364.897 279.059 365.121 278.92V277.832C364.876 277.768 364.625 277.72 364.369 277.688C364.113 277.656 363.852 277.64 363.585 277.64C363.137 277.64 362.791 277.715 362.545 277.864C362.3 278.003 362.177 278.205 362.177 278.472ZM370.109 278.424V274.696H368.397V272.536H370.109V270.36L372.701 269.8V272.536H375.069V274.696H372.701V277.912C372.701 278.285 372.781 278.552 372.941 278.712C373.112 278.861 373.405 278.936 373.821 278.936C374.024 278.936 374.216 278.925 374.397 278.904C374.579 278.872 374.776 278.824 374.989 278.76V280.856C374.755 280.931 374.456 280.989 374.093 281.032C373.731 281.085 373.427 281.112 373.181 281.112C372.168 281.112 371.4 280.888 370.877 280.44C370.365 279.981 370.109 279.309 370.109 278.424ZM380.502 271.752C380.108 271.752 379.772 271.613 379.494 271.336C379.217 271.059 379.078 270.723 379.078 270.328C379.078 269.933 379.217 269.597 379.494 269.32C379.772 269.043 380.108 268.904 380.502 268.904C380.897 268.904 381.233 269.043 381.51 269.32C381.788 269.597 381.926 269.933 381.926 270.328C381.926 270.723 381.788 271.059 381.51 271.336C381.233 271.613 380.897 271.752 380.502 271.752ZM381.798 272.536V281H379.206V272.536H381.798ZM382.738 280.056L383.97 278.312C384.503 278.632 384.988 278.867 385.426 279.016C385.863 279.155 386.295 279.224 386.722 279.224C387.148 279.224 387.484 279.165 387.73 279.048C387.986 278.92 388.114 278.755 388.114 278.552C388.114 278.392 388.044 278.264 387.906 278.168C387.767 278.061 387.548 277.987 387.25 277.944L385.57 277.688C384.738 277.56 384.098 277.283 383.65 276.856C383.202 276.419 382.978 275.853 382.978 275.16C382.978 274.307 383.303 273.635 383.954 273.144C384.604 272.653 385.495 272.408 386.626 272.408C387.234 272.408 387.842 272.499 388.45 272.68C389.068 272.851 389.639 273.101 390.162 273.432L388.93 275.096C388.471 274.829 388.034 274.637 387.618 274.52C387.202 274.392 386.786 274.328 386.37 274.328C386.039 274.328 385.772 274.387 385.57 274.504C385.367 274.611 385.266 274.755 385.266 274.936C385.266 275.107 385.34 275.245 385.49 275.352C385.639 275.448 385.895 275.523 386.258 275.576L387.938 275.832C388.77 275.949 389.41 276.227 389.858 276.664C390.316 277.091 390.546 277.635 390.546 278.296C390.546 278.701 390.45 279.08 390.258 279.432C390.066 279.784 389.799 280.088 389.458 280.344C389.127 280.6 388.727 280.803 388.258 280.952C387.788 281.091 387.282 281.16 386.738 281.16C385.938 281.16 385.191 281.069 384.498 280.888C383.815 280.696 383.228 280.419 382.738 280.056ZM395.955 271.752C395.561 271.752 395.225 271.613 394.947 271.336C394.67 271.059 394.531 270.723 394.531 270.328C394.531 269.933 394.67 269.597 394.947 269.32C395.225 269.043 395.561 268.904 395.955 268.904C396.35 268.904 396.686 269.043 396.963 269.32C397.241 269.597 397.379 269.933 397.379 270.328C397.379 270.723 397.241 271.059 396.963 271.336C396.686 271.613 396.35 271.752 395.955 271.752ZM397.251 272.536V281H394.659V272.536H397.251ZM400.047 278.424V274.696H398.335V272.536H400.047V270.36L402.639 269.8V272.536H405.007V274.696H402.639V277.912C402.639 278.285 402.719 278.552 402.879 278.712C403.05 278.861 403.343 278.936 403.759 278.936C403.962 278.936 404.154 278.925 404.335 278.904C404.516 278.872 404.714 278.824 404.927 278.76V280.856C404.692 280.931 404.394 280.989 404.031 281.032C403.668 281.085 403.364 281.112 403.119 281.112C402.106 281.112 401.338 280.888 400.815 280.44C400.303 279.981 400.047 279.309 400.047 278.424ZM411.723 275.624L411.323 275.896C411.014 276.099 410.795 276.323 410.667 276.568C410.55 276.803 410.497 277.117 410.507 277.512H408.347C408.305 276.776 408.369 276.2 408.539 275.784C408.71 275.368 409.046 274.973 409.547 274.6L410.411 273.96C410.678 273.757 410.875 273.565 411.003 273.384C411.142 273.203 411.211 273.027 411.211 272.856C411.211 272.547 411.073 272.291 410.795 272.088C410.518 271.875 410.166 271.768 409.739 271.768C409.281 271.768 408.859 271.891 408.475 272.136C408.102 272.381 407.835 272.707 407.675 273.112L405.579 272.328C405.878 271.507 406.411 270.851 407.179 270.36C407.958 269.869 408.843 269.624 409.835 269.624C410.39 269.624 410.907 269.704 411.387 269.864C411.867 270.013 412.278 270.227 412.619 270.504C412.971 270.781 413.243 271.107 413.435 271.48C413.638 271.853 413.739 272.259 413.739 272.696C413.739 273.283 413.59 273.789 413.291 274.216C413.003 274.632 412.481 275.101 411.723 275.624ZM409.435 278.2C409.841 278.2 410.187 278.349 410.475 278.648C410.774 278.936 410.923 279.283 410.923 279.688C410.923 280.093 410.774 280.445 410.475 280.744C410.187 281.032 409.841 281.176 409.435 281.176C409.03 281.176 408.678 281.032 408.379 280.744C408.091 280.445 407.947 280.093 407.947 279.688C407.947 279.283 408.091 278.936 408.379 278.648C408.678 278.349 409.03 278.2 409.435 278.2Z" fill="white"/>
</g>
<defs>
<clipPath id="clip0_0_263">
<rect width="193" height="58" fill="white" transform="translate(96 246)"/>
</clipPath>
<clipPath id="clip1_0_263">
<rect width="139" height="58" fill="white" transform="translate(305 246)"/>
</clipPath>
</defs>
</svg>
