<svg width="407" height="126" viewBox="0 0 407 126" fill="none" xmlns="http://www.w3.org/2000/svg">
<path d="M72.6133 25.344C72.6133 28.7147 72.0373 31.8293 70.8853 34.688C69.7333 37.5467 68.1546 40.0213 66.1493 42.112C64.1439 44.16 61.7333 45.7813 58.9173 46.976C56.1439 48.128 53.1359 48.704 49.8933 48.704C46.5226 48.704 43.3653 48.1067 40.4213 46.912C37.5199 45.7173 34.9813 44.096 32.8053 42.048C30.6719 39.9573 28.9866 37.504 27.7493 34.688C26.5119 31.872 25.8932 28.8427 25.8932 25.6C25.8932 22.3573 26.5119 19.328 27.7493 16.512C28.9866 13.696 30.6719 11.264 32.8053 9.216C34.9386 7.12533 37.4559 5.48266 40.3573 4.288C43.2586 3.09333 46.3733 2.496 49.7013 2.496C53.4986 2.496 57.0826 3.28533 60.4533 4.864C63.8239 6.44267 66.5759 8.576 68.7093 11.264L60.9653 18.24C59.5146 16.4053 57.8293 15.0187 55.9093 14.08C53.9893 13.0987 51.9199 12.608 49.7013 12.608C47.9093 12.608 46.2453 12.9493 44.7093 13.632C43.1733 14.272 41.8506 15.168 40.7413 16.32C39.6746 17.472 38.8213 18.8587 38.1813 20.48C37.5413 22.0587 37.2213 23.7653 37.2213 25.6C37.2213 27.4773 37.5413 29.2267 38.1813 30.848C38.8639 32.4267 39.7599 33.8133 40.8693 35.008C42.0213 36.16 43.3866 37.0773 44.9653 37.76C46.5439 38.4 48.2506 38.72 50.0853 38.72C52.6453 38.72 54.8853 38.08 56.8053 36.8C58.7679 35.4773 60.0693 33.7707 60.7093 31.68H48.6133V22.144H72.6133V25.344ZM77.9188 48V14.144H88.2868V17.536C89.3961 16.2133 90.6974 15.1893 92.1908 14.464C93.6841 13.7387 95.3481 13.376 97.1828 13.376C98.1641 13.4187 98.9534 13.504 99.5508 13.632C100.148 13.7173 100.66 13.9093 101.087 14.208V23.232C100.404 22.9333 99.6361 22.6987 98.7828 22.528C97.9294 22.3147 97.0548 22.208 96.1588 22.208C94.5374 22.208 93.0228 22.592 91.6147 23.36C90.2494 24.128 89.1401 25.1733 88.2868 26.496V48H77.9188ZM102.758 31.104C102.758 28.672 103.227 26.3893 104.166 24.256C105.147 22.08 106.448 20.2027 108.07 18.624C109.734 17.0453 111.675 15.808 113.894 14.912C116.155 13.9733 118.566 13.504 121.126 13.504C123.686 13.504 126.075 13.9733 128.294 14.912C130.555 15.808 132.496 17.0453 134.118 18.624C135.782 20.2027 137.083 22.08 138.022 24.256C139.003 26.3893 139.494 28.672 139.494 31.104C139.494 33.536 139.003 35.84 138.022 38.016C137.083 40.1493 135.782 42.0053 134.118 43.584C132.496 45.1627 130.555 46.4 128.294 47.296C126.075 48.192 123.686 48.64 121.126 48.64C118.566 48.64 116.155 48.192 113.894 47.296C111.675 46.4 109.734 45.1627 108.07 43.584C106.448 42.0053 105.147 40.1493 104.166 38.016C103.227 35.84 102.758 33.536 102.758 31.104ZM121.126 39.68C123.43 39.68 125.371 38.848 126.95 37.184C128.571 35.52 129.382 33.4933 129.382 31.104C129.382 28.672 128.571 26.624 126.95 24.96C125.371 23.296 123.43 22.464 121.126 22.464C118.822 22.464 116.859 23.296 115.238 24.96C113.659 26.624 112.87 28.672 112.87 31.104C112.87 33.4933 113.659 35.52 115.238 37.184C116.859 38.848 118.822 39.68 121.126 39.68ZM154.468 14.144V33.6C154.468 35.4347 155.023 36.928 156.132 38.08C157.284 39.1893 158.778 39.744 160.612 39.744C161.935 39.744 163.108 39.5093 164.132 39.04C165.156 38.5707 166.01 37.9093 166.692 37.056V14.144H177.06V48H166.692V45.696C165.455 46.6347 164.047 47.36 162.468 47.872C160.932 48.384 159.311 48.64 157.604 48.64C153.636 48.64 150.394 47.36 147.876 44.8C145.359 42.24 144.1 38.976 144.1 35.008V14.144H154.468ZM183.481 61.504V14.144H193.721V16.64C195.044 15.7013 196.473 14.976 198.009 14.464C199.545 13.952 201.145 13.696 202.809 13.696C205.199 13.696 207.439 14.144 209.529 15.04C211.663 15.936 213.497 17.1733 215.033 18.752C216.612 20.3307 217.849 22.1867 218.745 24.32C219.641 26.4107 220.089 28.672 220.089 31.104C220.089 33.536 219.62 35.8187 218.681 37.952C217.785 40.0427 216.548 41.8773 214.969 43.456C213.391 44.992 211.513 46.208 209.337 47.104C207.204 48 204.921 48.448 202.489 48.448C200.911 48.448 199.396 48.256 197.945 47.872C196.495 47.488 195.129 46.9333 193.849 46.208V61.504H183.481ZM201.017 22.528C199.567 22.528 198.244 22.7627 197.049 23.232C195.855 23.6587 194.788 24.32 193.849 25.216V37.056C194.745 37.8667 195.812 38.5067 197.049 38.976C198.287 39.4453 199.609 39.68 201.017 39.68C203.535 39.68 205.647 38.8693 207.353 37.248C209.06 35.584 209.913 33.536 209.913 31.104C209.913 28.672 209.039 26.6453 207.289 25.024C205.583 23.36 203.492 22.528 201.017 22.528ZM260.841 38.464C263.017 38.464 265.023 37.9947 266.857 37.056C268.735 36.1173 270.42 34.7307 271.913 32.896L279.145 40C277.055 42.6027 274.303 44.6933 270.889 46.272C267.519 47.8507 264.041 48.64 260.457 48.64C257.087 48.64 253.908 48.0427 250.921 46.848C247.977 45.6533 245.439 44.032 243.305 41.984C241.172 39.936 239.487 37.504 238.249 34.688C237.012 31.872 236.393 28.8427 236.393 25.6C236.393 22.3573 237.012 19.328 238.249 16.512C239.487 13.6533 241.172 11.2 243.305 9.152C245.481 7.104 248.041 5.48266 250.985 4.288C253.929 3.09333 257.087 2.496 260.457 2.496C262.292 2.496 264.127 2.70933 265.961 3.136C267.796 3.56266 269.545 4.16 271.209 4.928C272.873 5.65333 274.409 6.57066 275.817 7.68C277.225 8.74666 278.441 9.94133 279.465 11.264L272.041 18.56C270.463 16.5973 268.692 15.1253 266.729 14.144C264.809 13.12 262.719 12.608 260.457 12.608C258.665 12.608 256.98 12.9493 255.401 13.632C253.865 14.272 252.521 15.168 251.369 16.32C250.26 17.472 249.364 18.8587 248.681 20.48C248.041 22.0587 247.721 23.7653 247.721 25.6C247.721 27.4347 248.041 29.1413 248.681 30.72C249.364 32.256 250.281 33.6 251.433 34.752C252.628 35.904 254.015 36.8213 255.593 37.504C257.215 38.144 258.964 38.464 260.841 38.464ZM283.294 48V3.2L293.662 0.959999V16.448C294.899 15.5093 296.286 14.784 297.822 14.272C299.4 13.76 301.043 13.504 302.75 13.504C306.718 13.504 309.96 14.784 312.478 17.344C314.995 19.904 316.254 23.168 316.254 27.136V48H305.886V28.544C305.886 26.7093 305.31 25.2373 304.158 24.128C303.048 22.976 301.576 22.4 299.742 22.4C298.419 22.4 297.246 22.6347 296.222 23.104C295.198 23.5733 294.344 24.2347 293.662 25.088V48H283.294ZM333.235 48.576C329.651 48.576 326.707 47.5947 324.403 45.632C322.099 43.6693 320.947 41.152 320.947 38.08C320.947 34.88 322.163 32.384 324.595 30.592C327.069 28.8 330.504 27.904 334.899 27.904C336.221 27.904 337.523 27.9893 338.803 28.16C340.083 28.3307 341.341 28.5653 342.579 28.864V27.2C342.579 25.4933 342.024 24.2347 340.915 23.424C339.848 22.5707 338.248 22.144 336.115 22.144C334.792 22.144 333.299 22.3573 331.635 22.784C329.971 23.2107 328.051 23.8933 325.875 24.832L322.163 17.216C324.893 15.9787 327.56 15.0613 330.163 14.464C332.808 13.824 335.411 13.504 337.971 13.504C342.664 13.504 346.312 14.6347 348.915 16.896C351.517 19.1147 352.819 22.2507 352.819 26.304V48H342.579V45.952C341.213 46.8907 339.763 47.5733 338.227 48C336.733 48.384 335.069 48.576 333.235 48.576ZM330.803 37.888C330.803 38.9547 331.272 39.7867 332.211 40.384C333.149 40.9813 334.451 41.28 336.115 41.28C337.352 41.28 338.504 41.152 339.571 40.896C340.68 40.64 341.683 40.2347 342.579 39.68V35.328C341.597 35.072 340.595 34.88 339.571 34.752C338.547 34.624 337.501 34.56 336.435 34.56C334.643 34.56 333.256 34.8587 332.275 35.456C331.293 36.0107 330.803 36.8213 330.803 37.888ZM362.531 37.696V22.784H355.683V14.144H362.531V5.44L372.899 3.2V14.144H382.371V22.784H372.899V35.648C372.899 37.1413 373.219 38.208 373.859 38.848C374.542 39.4453 375.715 39.744 377.379 39.744C378.19 39.744 378.958 39.7013 379.683 39.616C380.409 39.488 381.198 39.296 382.051 39.04V47.424C381.113 47.7227 379.918 47.9573 378.467 48.128C377.017 48.3413 375.801 48.448 374.819 48.448C370.766 48.448 367.694 47.552 365.603 45.76C363.555 43.9253 362.531 41.2373 362.531 37.696ZM0.12075 78.144H7.54475V76.096C7.54475 72.128 8.71808 69.0773 11.0648 66.944C13.4541 64.8107 16.8674 63.744 21.3048 63.744C22.2008 63.744 23.1608 63.808 24.1848 63.936C25.2514 64.064 26.1261 64.2133 26.8088 64.384V72.96C25.9981 72.7893 25.2728 72.6827 24.6328 72.64C24.0354 72.5547 23.3954 72.512 22.7128 72.512C21.1341 72.512 19.9394 72.832 19.1288 73.472C18.3181 74.0693 17.9128 75.008 17.9128 76.288V78.144H26.8088V86.784H17.9128V112H7.54475V86.784H0.12075V78.144ZM29.0078 95.104C29.0078 92.672 29.4771 90.3893 30.4158 88.256C31.3971 86.08 32.6984 84.2027 34.3198 82.624C35.9838 81.0453 37.9251 79.808 40.1438 78.912C42.4051 77.9733 44.8158 77.504 47.3758 77.504C49.9358 77.504 52.3251 77.9733 54.5438 78.912C56.8051 79.808 58.7464 81.0453 60.3678 82.624C62.0318 84.2027 63.3331 86.08 64.2718 88.256C65.2531 90.3893 65.7438 92.672 65.7438 95.104C65.7438 97.536 65.2531 99.84 64.2718 102.016C63.3331 104.149 62.0318 106.005 60.3678 107.584C58.7464 109.163 56.8051 110.4 54.5438 111.296C52.3251 112.192 49.9358 112.64 47.3758 112.64C44.8158 112.64 42.4051 112.192 40.1438 111.296C37.9251 110.4 35.9838 109.163 34.3198 107.584C32.6984 106.005 31.3971 104.149 30.4158 102.016C29.4771 99.84 29.0078 97.536 29.0078 95.104ZM47.3758 103.68C49.6798 103.68 51.6211 102.848 53.1998 101.184C54.8211 99.52 55.6318 97.4933 55.6318 95.104C55.6318 92.672 54.8211 90.624 53.1998 88.96C51.6211 87.296 49.6798 86.464 47.3758 86.464C45.0718 86.464 43.1091 87.296 41.4878 88.96C39.9091 90.624 39.1198 92.672 39.1198 95.104C39.1198 97.4933 39.9091 99.52 41.4878 101.184C43.1091 102.848 45.0718 103.68 47.3758 103.68ZM70.6063 112V78.144H80.9743V81.536C82.0836 80.2133 83.3849 79.1893 84.8783 78.464C86.3716 77.7387 88.0356 77.376 89.8703 77.376C90.8516 77.4187 91.6409 77.504 92.2383 77.632C92.8356 77.7173 93.3476 77.9093 93.7743 78.208V87.232C93.0916 86.9333 92.3236 86.6987 91.4703 86.528C90.6169 86.3147 89.7423 86.208 88.8463 86.208C87.2249 86.208 85.7103 86.592 84.3022 87.36C82.9369 88.128 81.8276 89.1733 80.9743 90.496V112H70.6063ZM111.243 112V67.2H146.571V76.736H122.251V84.8H138.315V94.016H122.251V102.464H146.827V112H111.243ZM163.93 112L149.466 78.144H160.73L169.114 98.88L177.498 78.144H188.506L174.042 112H163.93ZM221.396 107.52C219.263 109.312 217.066 110.613 214.804 111.424C212.586 112.235 210.068 112.64 207.252 112.64C204.692 112.64 202.282 112.192 200.02 111.296C197.759 110.4 195.796 109.163 194.132 107.584C192.511 106.005 191.21 104.149 190.228 102.016C189.29 99.84 188.82 97.536 188.82 95.104C188.82 92.672 189.268 90.3893 190.164 88.256C191.103 86.08 192.362 84.2027 193.94 82.624C195.519 81.0453 197.375 79.808 199.508 78.912C201.684 78.016 204.01 77.568 206.484 77.568C208.959 77.568 211.242 78.0373 213.332 78.976C215.423 79.9147 217.215 81.1947 218.708 82.816C220.244 84.4373 221.439 86.4 222.292 88.704C223.146 90.9653 223.572 93.4187 223.572 96.064V98.624H199.444C200.127 100.203 201.194 101.504 202.644 102.528C204.095 103.509 205.802 104 207.764 104C209.172 104 210.452 103.787 211.604 103.36C212.756 102.891 213.738 102.251 214.548 101.44L221.396 107.52ZM206.292 86.016C204.586 86.016 203.114 86.4853 201.876 87.424C200.639 88.3627 199.764 89.6853 199.252 91.392H213.396C212.842 89.7707 211.924 88.4693 210.644 87.488C209.407 86.5067 207.956 86.016 206.292 86.016ZM228.419 112V78.144H238.787V81.536C239.896 80.2133 241.197 79.1893 242.691 78.464C244.184 77.7387 245.848 77.376 247.683 77.376C248.664 77.4187 249.453 77.504 250.051 77.632C250.648 77.7173 251.16 77.9093 251.587 78.208V87.232C250.904 86.9333 250.136 86.6987 249.283 86.528C248.429 86.3147 247.555 86.208 246.659 86.208C245.037 86.208 243.523 86.592 242.115 87.36C240.749 88.128 239.64 89.1733 238.787 90.496V112H228.419ZM266.333 112.512V112.448L253.341 78.144H264.797L272.285 99.456L280.989 78.144H292.189L277.021 113.728C275.143 118.123 272.967 121.237 270.493 123.072C268.018 124.907 264.754 125.824 260.701 125.824C259.89 125.824 259.101 125.781 258.333 125.696C257.565 125.653 256.925 125.568 256.413 125.44V116.608C256.882 116.693 257.351 116.757 257.821 116.8C258.333 116.843 258.93 116.864 259.613 116.864C261.234 116.864 262.621 116.501 263.773 115.776C264.925 115.051 265.778 113.963 266.333 112.512ZM292.445 95.104C292.445 92.672 292.915 90.3893 293.853 88.256C294.835 86.08 296.136 84.2027 297.757 82.624C299.421 81.0453 301.363 79.808 303.581 78.912C305.843 77.9733 308.253 77.504 310.813 77.504C313.373 77.504 315.763 77.9733 317.981 78.912C320.243 79.808 322.184 81.0453 323.805 82.624C325.469 84.2027 326.771 86.08 327.709 88.256C328.691 90.3893 329.181 92.672 329.181 95.104C329.181 97.536 328.691 99.84 327.709 102.016C326.771 104.149 325.469 106.005 323.805 107.584C322.184 109.163 320.243 110.4 317.981 111.296C315.763 112.192 313.373 112.64 310.813 112.64C308.253 112.64 305.843 112.192 303.581 111.296C301.363 110.4 299.421 109.163 297.757 107.584C296.136 106.005 294.835 104.149 293.853 102.016C292.915 99.84 292.445 97.536 292.445 95.104ZM310.813 103.68C313.117 103.68 315.059 102.848 316.637 101.184C318.259 99.52 319.069 97.4933 319.069 95.104C319.069 92.672 318.259 90.624 316.637 88.96C315.059 87.296 313.117 86.464 310.813 86.464C308.509 86.464 306.547 87.296 304.925 88.96C303.347 90.624 302.557 92.672 302.557 95.104C302.557 97.4933 303.347 99.52 304.925 101.184C306.547 102.848 308.509 103.68 310.813 103.68ZM334.044 112V78.144H344.412V80.448C345.649 79.5093 347.036 78.784 348.572 78.272C350.15 77.76 351.793 77.504 353.5 77.504C357.468 77.504 360.71 78.784 363.228 81.344C365.745 83.904 367.004 87.168 367.004 91.136V112H356.636V92.544C356.636 90.7093 356.06 89.2373 354.908 88.128C353.798 86.976 352.326 86.4 350.492 86.4C349.169 86.4 347.996 86.6347 346.972 87.104C345.948 87.5733 345.094 88.2347 344.412 89.088V112H334.044ZM404.209 107.52C402.075 109.312 399.878 110.613 397.617 111.424C395.398 112.235 392.881 112.64 390.065 112.64C387.505 112.64 385.094 112.192 382.833 111.296C380.571 110.4 378.609 109.163 376.945 107.584C375.323 106.005 374.022 104.149 373.041 102.016C372.102 99.84 371.633 97.536 371.633 95.104C371.633 92.672 372.081 90.3893 372.977 88.256C373.915 86.08 375.174 84.2027 376.753 82.624C378.331 81.0453 380.187 79.808 382.321 78.912C384.497 78.016 386.822 77.568 389.297 77.568C391.771 77.568 394.054 78.0373 396.145 78.976C398.235 79.9147 400.027 81.1947 401.521 82.816C403.057 84.4373 404.251 86.4 405.105 88.704C405.958 90.9653 406.385 93.4187 406.385 96.064V98.624H382.257C382.939 100.203 384.006 101.504 385.457 102.528C386.907 103.509 388.614 104 390.577 104C391.985 104 393.265 103.787 394.417 103.36C395.569 102.891 396.55 102.251 397.361 101.44L404.209 107.52ZM389.105 86.016C387.398 86.016 385.926 86.4853 384.689 87.424C383.451 88.3627 382.577 89.6853 382.065 91.392H396.209C395.654 89.7707 394.737 88.4693 393.457 87.488C392.219 86.5067 390.769 86.016 389.105 86.016Z" fill="#28283D"/>
</svg>
