<svg width="139" height="58" viewBox="0 0 139 58" fill="none" xmlns="http://www.w3.org/2000/svg">
<g clip-path="url(#clip0_0_175)">
<rect width="139" height="58" rx="29" fill="#B18BDD"/>
<path d="M35.2369 35H32.3249L29.8289 23.8H32.6609L34.0209 30.712L35.9729 23.8H38.5489L40.5009 30.712L41.8609 23.8H44.5969L42.1009 35H39.1889L37.2209 27.864L35.2369 35ZM45.7609 35V23.8L48.3529 23.24V27.112C48.6623 26.8773 49.0089 26.696 49.3929 26.568C49.7876 26.44 50.1983 26.376 50.6249 26.376C51.6169 26.376 52.4276 26.696 53.0569 27.336C53.6863 27.976 54.0009 28.792 54.0009 29.784V35H51.4089V30.136C51.4089 29.6773 51.2649 29.3093 50.9769 29.032C50.6996 28.744 50.3316 28.6 49.8729 28.6C49.5423 28.6 49.2489 28.6587 48.9929 28.776C48.7369 28.8933 48.5236 29.0587 48.3529 29.272V35H45.7609ZM58.2462 35.144C57.3502 35.144 56.6142 34.8987 56.0382 34.408C55.4622 33.9173 55.1742 33.288 55.1742 32.52C55.1742 31.72 55.4782 31.096 56.0862 30.648C56.7049 30.2 57.5635 29.976 58.6622 29.976C58.9929 29.976 59.3182 29.9973 59.6382 30.04C59.9582 30.0827 60.2729 30.1413 60.5822 30.216V29.8C60.5822 29.3733 60.4435 29.0587 60.1662 28.856C59.8995 28.6427 59.4995 28.536 58.9662 28.536C58.6355 28.536 58.2622 28.5893 57.8462 28.696C57.4302 28.8027 56.9502 28.9733 56.4062 29.208L55.4782 27.304C56.1609 26.9947 56.8275 26.7653 57.4782 26.616C58.1395 26.456 58.7902 26.376 59.4302 26.376C60.6035 26.376 61.5155 26.6587 62.1662 27.224C62.8169 27.7787 63.1422 28.5627 63.1422 29.576V35H60.5822V34.488C60.2409 34.7227 59.8782 34.8933 59.4942 35C59.1209 35.096 58.7049 35.144 58.2462 35.144ZM57.6382 32.472C57.6382 32.7387 57.7555 32.9467 57.9902 33.096C58.2249 33.2453 58.5502 33.32 58.9662 33.32C59.2755 33.32 59.5635 33.288 59.8302 33.224C60.1075 33.16 60.3582 33.0587 60.5822 32.92V31.832C60.3369 31.768 60.0862 31.72 59.8302 31.688C59.5742 31.656 59.3129 31.64 59.0462 31.64C58.5982 31.64 58.2515 31.7147 58.0062 31.864C57.7609 32.0027 57.6382 32.2053 57.6382 32.472ZM65.5703 32.424V28.696H63.8583V26.536H65.5703V24.36L68.1623 23.8V26.536H70.5303V28.696H68.1623V31.912C68.1623 32.2853 68.2423 32.552 68.4023 32.712C68.573 32.8613 68.8663 32.936 69.2823 32.936C69.485 32.936 69.677 32.9253 69.8583 32.904C70.0396 32.872 70.237 32.824 70.4503 32.76V34.856C70.2156 34.9307 69.917 34.9893 69.5543 35.032C69.1916 35.0853 68.8876 35.112 68.6423 35.112C67.629 35.112 66.861 34.888 66.3383 34.44C65.8263 33.9813 65.5703 33.3093 65.5703 32.424ZM75.9632 25.752C75.5685 25.752 75.2325 25.6133 74.9552 25.336C74.6779 25.0587 74.5392 24.7227 74.5392 24.328C74.5392 23.9333 74.6779 23.5973 74.9552 23.32C75.2325 23.0427 75.5685 22.904 75.9632 22.904C76.3579 22.904 76.6939 23.0427 76.9712 23.32C77.2485 23.5973 77.3872 23.9333 77.3872 24.328C77.3872 24.7227 77.2485 25.0587 76.9712 25.336C76.6939 25.6133 76.3579 25.752 75.9632 25.752ZM77.2592 26.536V35H74.6672V26.536H77.2592ZM78.1987 34.056L79.4307 32.312C79.964 32.632 80.4494 32.8667 80.8867 33.016C81.324 33.1547 81.756 33.224 82.1827 33.224C82.6094 33.224 82.9454 33.1653 83.1907 33.048C83.4467 32.92 83.5747 32.7547 83.5747 32.552C83.5747 32.392 83.5054 32.264 83.3667 32.168C83.228 32.0613 83.0094 31.9867 82.7107 31.944L81.0307 31.688C80.1987 31.56 79.5587 31.2827 79.1107 30.856C78.6627 30.4187 78.4387 29.8533 78.4387 29.16C78.4387 28.3067 78.764 27.6347 79.4147 27.144C80.0654 26.6533 80.956 26.408 82.0867 26.408C82.6947 26.408 83.3027 26.4987 83.9107 26.68C84.5294 26.8507 85.1 27.1013 85.6227 27.432L84.3907 29.096C83.932 28.8293 83.4947 28.6373 83.0787 28.52C82.6627 28.392 82.2467 28.328 81.8307 28.328C81.5 28.328 81.2334 28.3867 81.0307 28.504C80.828 28.6107 80.7267 28.7547 80.7267 28.936C80.7267 29.1067 80.8014 29.2453 80.9507 29.352C81.1 29.448 81.356 29.5227 81.7187 29.576L83.3987 29.832C84.2307 29.9493 84.8707 30.2267 85.3187 30.664C85.7774 31.0907 86.0067 31.6347 86.0067 32.296C86.0067 32.7013 85.9107 33.08 85.7187 33.432C85.5267 33.784 85.26 34.088 84.9187 34.344C84.588 34.6 84.188 34.8027 83.7187 34.952C83.2494 35.0907 82.7427 35.16 82.1987 35.16C81.3987 35.16 80.652 35.0693 79.9587 34.888C79.276 34.696 78.6894 34.4187 78.1987 34.056ZM91.4163 25.752C91.0216 25.752 90.6856 25.6133 90.4083 25.336C90.131 25.0587 89.9923 24.7227 89.9923 24.328C89.9923 23.9333 90.131 23.5973 90.4083 23.32C90.6856 23.0427 91.0216 22.904 91.4163 22.904C91.811 22.904 92.147 23.0427 92.4243 23.32C92.7016 23.5973 92.8403 23.9333 92.8403 24.328C92.8403 24.7227 92.7016 25.0587 92.4243 25.336C92.147 25.6133 91.811 25.752 91.4163 25.752ZM92.7123 26.536V35H90.1203V26.536H92.7123ZM95.5078 32.424V28.696H93.7958V26.536H95.5078V24.36L98.0998 23.8V26.536H100.468V28.696H98.0998V31.912C98.0998 32.2853 98.1798 32.552 98.3398 32.712C98.5105 32.8613 98.8038 32.936 99.2198 32.936C99.4225 32.936 99.6145 32.9253 99.7958 32.904C99.9771 32.872 100.174 32.824 100.388 32.76V34.856C100.153 34.9307 99.8545 34.9893 99.4918 35.032C99.1291 35.0853 98.8251 35.112 98.5798 35.112C97.5665 35.112 96.7985 34.888 96.2758 34.44C95.7638 33.9813 95.5078 33.3093 95.5078 32.424ZM107.184 29.624L106.784 29.896C106.475 30.0987 106.256 30.3227 106.128 30.568C106.011 30.8027 105.958 31.1173 105.968 31.512H103.808C103.766 30.776 103.83 30.2 104 29.784C104.171 29.368 104.507 28.9733 105.008 28.6L105.872 27.96C106.139 27.7573 106.336 27.5653 106.464 27.384C106.603 27.2027 106.672 27.0267 106.672 26.856C106.672 26.5467 106.534 26.2907 106.256 26.088C105.979 25.8747 105.627 25.768 105.2 25.768C104.742 25.768 104.32 25.8907 103.936 26.136C103.563 26.3813 103.296 26.7067 103.136 27.112L101.04 26.328C101.339 25.5067 101.872 24.8507 102.64 24.36C103.419 23.8693 104.304 23.624 105.296 23.624C105.851 23.624 106.368 23.704 106.848 23.864C107.328 24.0133 107.739 24.2267 108.08 24.504C108.432 24.7813 108.704 25.1067 108.896 25.48C109.099 25.8533 109.2 26.2587 109.2 26.696C109.2 27.2827 109.051 27.7893 108.752 28.216C108.464 28.632 107.942 29.1013 107.184 29.624ZM104.896 32.2C105.302 32.2 105.648 32.3493 105.936 32.648C106.235 32.936 106.384 33.2827 106.384 33.688C106.384 34.0933 106.235 34.4453 105.936 34.744C105.648 35.032 105.302 35.176 104.896 35.176C104.491 35.176 104.139 35.032 103.84 34.744C103.552 34.4453 103.408 34.0933 103.408 33.688C103.408 33.2827 103.552 32.936 103.84 32.648C104.139 32.3493 104.491 32.2 104.896 32.2Z" fill="white"/>
</g>
<defs>
<clipPath id="clip0_0_175">
<rect width="139" height="58" fill="white"/>
</clipPath>
</defs>
</svg>
