<svg width="520" height="44" viewBox="0 0 520 44" fill="none" xmlns="http://www.w3.org/2000/svg">
<path d="M6.49586 13.1L1.79786 3.74V14H0.0338594V1.4H2.55386L6.51386 9.446L10.4559 1.4H12.9759V14H11.1939V3.722L6.49586 13.1ZM23.2598 12.956C22.7318 13.364 22.1798 13.67 21.6038 13.874C21.0278 14.066 20.3978 14.162 19.7138 14.162C19.0418 14.162 18.4118 14.042 17.8238 13.802C17.2358 13.55 16.7258 13.214 16.2938 12.794C15.8618 12.374 15.5198 11.876 15.2678 11.3C15.0278 10.712 14.9078 10.082 14.9078 9.41C14.9078 8.75 15.0278 8.132 15.2678 7.556C15.5078 6.98 15.8318 6.482 16.2398 6.062C16.6478 5.642 17.1338 5.312 17.6978 5.072C18.2618 4.82 18.8618 4.694 19.4978 4.694C20.1218 4.694 20.7038 4.82 21.2438 5.072C21.7958 5.312 22.2638 5.648 22.6478 6.08C23.0438 6.5 23.3558 7.004 23.5838 7.592C23.8118 8.18 23.9258 8.81 23.9258 9.482V10.004H16.6898C16.8098 10.76 17.1578 11.39 17.7338 11.894C18.3098 12.386 18.9938 12.632 19.7858 12.632C20.2298 12.632 20.6558 12.56 21.0638 12.416C21.4718 12.272 21.8198 12.074 22.1078 11.822L23.2598 12.956ZM19.4618 6.206C18.7778 6.206 18.1778 6.434 17.6618 6.89C17.1578 7.346 16.8398 7.934 16.7078 8.654H22.1438C22.0118 7.958 21.6938 7.376 21.1898 6.908C20.6978 6.44 20.1218 6.206 19.4618 6.206ZM33.6133 12.956C33.0853 13.364 32.5333 13.67 31.9573 13.874C31.3813 14.066 30.7513 14.162 30.0673 14.162C29.3953 14.162 28.7653 14.042 28.1773 13.802C27.5893 13.55 27.0793 13.214 26.6473 12.794C26.2153 12.374 25.8733 11.876 25.6213 11.3C25.3813 10.712 25.2613 10.082 25.2613 9.41C25.2613 8.75 25.3813 8.132 25.6213 7.556C25.8613 6.98 26.1853 6.482 26.5933 6.062C27.0013 5.642 27.4873 5.312 28.0513 5.072C28.6153 4.82 29.2153 4.694 29.8513 4.694C30.4753 4.694 31.0573 4.82 31.5973 5.072C32.1493 5.312 32.6173 5.648 33.0013 6.08C33.3973 6.5 33.7093 7.004 33.9373 7.592C34.1653 8.18 34.2793 8.81 34.2793 9.482V10.004H27.0433C27.1633 10.76 27.5113 11.39 28.0873 11.894C28.6633 12.386 29.3473 12.632 30.1393 12.632C30.5833 12.632 31.0093 12.56 31.4173 12.416C31.8253 12.272 32.1733 12.074 32.4613 11.822L33.6133 12.956ZM29.8153 6.206C29.1313 6.206 28.5313 6.434 28.0153 6.89C27.5113 7.346 27.1933 7.934 27.0613 8.654H32.4973C32.3653 7.958 32.0473 7.376 31.5433 6.908C31.0513 6.44 30.4753 6.206 29.8153 6.206ZM36.8301 11.732V6.35H34.8861V4.838H36.8301V2.498L38.6121 2.066V4.838H41.3121V6.35H38.6121V11.318C38.6121 11.786 38.7141 12.116 38.9181 12.308C39.1341 12.5 39.4821 12.596 39.9621 12.596C40.2141 12.596 40.4361 12.584 40.6281 12.56C40.8321 12.524 41.0481 12.464 41.2761 12.38V13.892C41.0361 13.976 40.7541 14.042 40.4301 14.09C40.1181 14.138 39.8301 14.162 39.5661 14.162C38.6781 14.162 38.0001 13.958 37.5321 13.55C37.0641 13.13 36.8301 12.524 36.8301 11.732ZM46.3999 14V4.838H48.1999V5.702C48.5359 5.366 48.9199 5.108 49.3519 4.928C49.7839 4.748 50.2579 4.658 50.7739 4.658C51.3859 4.658 51.9379 4.796 52.4299 5.072C52.9219 5.336 53.3119 5.708 53.5999 6.188C53.9719 5.684 54.4159 5.306 54.9319 5.054C55.4599 4.79 56.0479 4.658 56.6959 4.658C57.7039 4.658 58.5259 4.994 59.1619 5.666C59.8099 6.326 60.1339 7.184 60.1339 8.24V14H58.3339V8.546C58.3339 7.826 58.1419 7.262 57.7579 6.854C57.3859 6.434 56.8759 6.224 56.2279 6.224C55.7839 6.224 55.3819 6.326 55.0219 6.53C54.6619 6.734 54.3499 7.04 54.0859 7.448C54.1099 7.568 54.1279 7.7 54.1399 7.844C54.1519 7.976 54.1579 8.108 54.1579 8.24V14H52.3759V8.546C52.3759 7.826 52.1839 7.262 51.7999 6.854C51.4279 6.434 50.9179 6.224 50.2699 6.224C49.8379 6.224 49.4479 6.32 49.0999 6.512C48.7519 6.692 48.4519 6.968 48.1999 7.34V14H46.3999ZM65.1006 14.162C64.1046 14.162 63.2946 13.904 62.6706 13.388C62.0466 12.872 61.7346 12.2 61.7346 11.372C61.7346 10.508 62.0646 9.83 62.7246 9.338C63.3846 8.834 64.2906 8.582 65.4426 8.582C65.8866 8.582 66.3186 8.63 66.7386 8.726C67.1586 8.81 67.5606 8.93 67.9446 9.086V8.114C67.9446 7.466 67.7526 6.98 67.3686 6.656C66.9846 6.332 66.4326 6.17 65.7126 6.17C65.2926 6.17 64.8546 6.236 64.3986 6.368C63.9426 6.488 63.4326 6.68 62.8686 6.944L62.2026 5.594C62.8866 5.27 63.5346 5.036 64.1466 4.892C64.7586 4.736 65.3646 4.658 65.9646 4.658C67.1526 4.658 68.0706 4.946 68.7186 5.522C69.3786 6.086 69.7086 6.89 69.7086 7.934V14H67.9446V13.208C67.5366 13.532 67.0986 13.772 66.6306 13.928C66.1626 14.084 65.6526 14.162 65.1006 14.162ZM63.4626 11.336C63.4626 11.78 63.6486 12.14 64.0206 12.416C64.4046 12.692 64.9026 12.83 65.5146 12.83C65.9946 12.83 66.4386 12.758 66.8466 12.614C67.2546 12.47 67.6206 12.254 67.9446 11.966V10.382C67.5966 10.19 67.2306 10.052 66.8466 9.968C66.4626 9.872 66.0426 9.824 65.5866 9.824C64.9386 9.824 64.4226 9.962 64.0386 10.238C63.6546 10.514 63.4626 10.88 63.4626 11.336ZM71.7827 14V1.4L73.5827 1.004V8.87L78.0287 4.838H80.1347L75.4187 9.14L80.3867 14H78.0107L73.5827 9.68V14H71.7827ZM88.4922 12.956C87.9642 13.364 87.4122 13.67 86.8362 13.874C86.2602 14.066 85.6302 14.162 84.9462 14.162C84.2742 14.162 83.6442 14.042 83.0562 13.802C82.4682 13.55 81.9582 13.214 81.5262 12.794C81.0942 12.374 80.7522 11.876 80.5002 11.3C80.2602 10.712 80.1402 10.082 80.1402 9.41C80.1402 8.75 80.2602 8.132 80.5002 7.556C80.7402 6.98 81.0642 6.482 81.4722 6.062C81.8802 5.642 82.3662 5.312 82.9302 5.072C83.4942 4.82 84.0942 4.694 84.7302 4.694C85.3542 4.694 85.9362 4.82 86.4762 5.072C87.0282 5.312 87.4962 5.648 87.8802 6.08C88.2762 6.5 88.5882 7.004 88.8162 7.592C89.0442 8.18 89.1582 8.81 89.1582 9.482V10.004H81.9222C82.0422 10.76 82.3902 11.39 82.9662 11.894C83.5422 12.386 84.2262 12.632 85.0182 12.632C85.4622 12.632 85.8882 12.56 86.2962 12.416C86.7042 12.272 87.0522 12.074 87.3402 11.822L88.4922 12.956ZM84.6942 6.206C84.0102 6.206 83.4102 6.434 82.8942 6.89C82.3902 7.346 82.0722 7.934 81.9402 8.654H87.3762C87.2442 7.958 86.9262 7.376 86.4222 6.908C85.9302 6.44 85.3542 6.206 84.6942 6.206ZM90.0964 12.812L91.0684 11.624C91.5484 11.996 92.0344 12.284 92.5264 12.488C93.0304 12.68 93.5404 12.776 94.0564 12.776C94.7044 12.776 95.2324 12.65 95.6404 12.398C96.0484 12.146 96.2524 11.816 96.2524 11.408C96.2524 11.084 96.1324 10.826 95.8924 10.634C95.6524 10.442 95.2804 10.31 94.7764 10.238L93.1204 10.004C92.2204 9.872 91.5364 9.596 91.0684 9.176C90.6124 8.744 90.3844 8.174 90.3844 7.466C90.3844 6.638 90.7144 5.972 91.3744 5.468C92.0344 4.952 92.8984 4.694 93.9664 4.694C94.6384 4.694 95.2744 4.79 95.8744 4.982C96.4864 5.174 97.0804 5.468 97.6564 5.864L96.7384 7.052C96.2344 6.716 95.7424 6.476 95.2624 6.332C94.7944 6.176 94.3204 6.098 93.8404 6.098C93.2884 6.098 92.8444 6.212 92.5084 6.44C92.1724 6.668 92.0044 6.968 92.0044 7.34C92.0044 7.676 92.1184 7.934 92.3464 8.114C92.5864 8.282 92.9764 8.408 93.5164 8.492L95.1724 8.726C96.0724 8.858 96.7564 9.14 97.2244 9.572C97.7044 10.004 97.9444 10.574 97.9444 11.282C97.9444 11.69 97.8424 12.074 97.6384 12.434C97.4464 12.782 97.1764 13.082 96.8284 13.334C96.4924 13.586 96.0904 13.79 95.6224 13.946C95.1544 14.09 94.6504 14.162 94.1104 14.162C93.3184 14.162 92.5744 14.048 91.8784 13.82C91.1944 13.592 90.6004 13.256 90.0964 12.812ZM103.989 3.362C103.689 3.362 103.431 3.254 103.215 3.038C102.999 2.81 102.891 2.546 102.891 2.246C102.891 1.946 102.999 1.688 103.215 1.472C103.431 1.244 103.689 1.13 103.989 1.13C104.289 1.13 104.547 1.244 104.763 1.472C104.991 1.688 105.105 1.946 105.105 2.246C105.105 2.546 104.991 2.81 104.763 3.038C104.547 3.254 104.289 3.362 103.989 3.362ZM104.889 4.838V14H103.089V4.838H104.889ZM108.197 11.732V6.35H106.253V4.838H108.197V2.498L109.979 2.066V4.838H112.679V6.35H109.979V11.318C109.979 11.786 110.081 12.116 110.285 12.308C110.501 12.5 110.849 12.596 111.329 12.596C111.581 12.596 111.803 12.584 111.995 12.56C112.199 12.524 112.415 12.464 112.643 12.38V13.892C112.403 13.976 112.121 14.042 111.797 14.09C111.485 14.138 111.197 14.162 110.933 14.162C110.045 14.162 109.367 13.958 108.899 13.55C108.431 13.13 108.197 12.524 108.197 11.732ZM125.705 12.956C125.177 13.364 124.625 13.67 124.049 13.874C123.473 14.066 122.843 14.162 122.159 14.162C121.487 14.162 120.857 14.042 120.269 13.802C119.681 13.55 119.171 13.214 118.739 12.794C118.307 12.374 117.965 11.876 117.713 11.3C117.473 10.712 117.353 10.082 117.353 9.41C117.353 8.75 117.473 8.132 117.713 7.556C117.953 6.98 118.277 6.482 118.685 6.062C119.093 5.642 119.579 5.312 120.143 5.072C120.707 4.82 121.307 4.694 121.943 4.694C122.567 4.694 123.149 4.82 123.689 5.072C124.241 5.312 124.709 5.648 125.093 6.08C125.489 6.5 125.801 7.004 126.029 7.592C126.257 8.18 126.371 8.81 126.371 9.482V10.004H119.135C119.255 10.76 119.603 11.39 120.179 11.894C120.755 12.386 121.439 12.632 122.231 12.632C122.675 12.632 123.101 12.56 123.509 12.416C123.917 12.272 124.265 12.074 124.553 11.822L125.705 12.956ZM121.907 6.206C121.223 6.206 120.623 6.434 120.107 6.89C119.603 7.346 119.285 7.934 119.153 8.654H124.589C124.457 7.958 124.139 7.376 123.635 6.908C123.143 6.44 122.567 6.206 121.907 6.206ZM130.878 14.162C129.882 14.162 129.072 13.904 128.448 13.388C127.824 12.872 127.512 12.2 127.512 11.372C127.512 10.508 127.842 9.83 128.502 9.338C129.162 8.834 130.068 8.582 131.22 8.582C131.664 8.582 132.096 8.63 132.516 8.726C132.936 8.81 133.338 8.93 133.722 9.086V8.114C133.722 7.466 133.53 6.98 133.146 6.656C132.762 6.332 132.21 6.17 131.49 6.17C131.07 6.17 130.632 6.236 130.176 6.368C129.72 6.488 129.21 6.68 128.646 6.944L127.98 5.594C128.664 5.27 129.312 5.036 129.924 4.892C130.536 4.736 131.142 4.658 131.742 4.658C132.93 4.658 133.848 4.946 134.496 5.522C135.156 6.086 135.486 6.89 135.486 7.934V14H133.722V13.208C133.314 13.532 132.876 13.772 132.408 13.928C131.94 14.084 131.43 14.162 130.878 14.162ZM129.24 11.336C129.24 11.78 129.426 12.14 129.798 12.416C130.182 12.692 130.68 12.83 131.292 12.83C131.772 12.83 132.216 12.758 132.624 12.614C133.032 12.47 133.398 12.254 133.722 11.966V10.382C133.374 10.19 133.008 10.052 132.624 9.968C132.24 9.872 131.82 9.824 131.364 9.824C130.716 9.824 130.2 9.962 129.816 10.238C129.432 10.514 129.24 10.88 129.24 11.336ZM136.696 12.812L137.668 11.624C138.148 11.996 138.634 12.284 139.126 12.488C139.63 12.68 140.14 12.776 140.656 12.776C141.304 12.776 141.832 12.65 142.24 12.398C142.648 12.146 142.852 11.816 142.852 11.408C142.852 11.084 142.732 10.826 142.492 10.634C142.252 10.442 141.88 10.31 141.376 10.238L139.72 10.004C138.82 9.872 138.136 9.596 137.668 9.176C137.212 8.744 136.984 8.174 136.984 7.466C136.984 6.638 137.314 5.972 137.974 5.468C138.634 4.952 139.498 4.694 140.566 4.694C141.238 4.694 141.874 4.79 142.474 4.982C143.086 5.174 143.68 5.468 144.256 5.864L143.338 7.052C142.834 6.716 142.342 6.476 141.862 6.332C141.394 6.176 140.92 6.098 140.44 6.098C139.888 6.098 139.444 6.212 139.108 6.44C138.772 6.668 138.604 6.968 138.604 7.34C138.604 7.676 138.718 7.934 138.946 8.114C139.186 8.282 139.576 8.408 140.116 8.492L141.772 8.726C142.672 8.858 143.356 9.14 143.824 9.572C144.304 10.004 144.544 10.574 144.544 11.282C144.544 11.69 144.442 12.074 144.238 12.434C144.046 12.782 143.776 13.082 143.428 13.334C143.092 13.586 142.69 13.79 142.222 13.946C141.754 14.09 141.25 14.162 140.71 14.162C139.918 14.162 139.174 14.048 138.478 13.82C137.794 13.592 137.2 13.256 136.696 12.812ZM148.037 14.864L148.397 14.036L144.743 4.838H146.723L149.405 11.84L152.357 4.838H154.301L149.873 15.098C149.453 16.07 148.973 16.766 148.433 17.186C147.893 17.618 147.203 17.834 146.363 17.834C146.171 17.834 145.991 17.822 145.823 17.798C145.667 17.786 145.529 17.762 145.409 17.726V16.142C145.529 16.166 145.649 16.184 145.769 16.196C145.901 16.208 146.051 16.214 146.219 16.214C146.627 16.214 146.981 16.1 147.281 15.872C147.593 15.656 147.845 15.32 148.037 14.864ZM160.369 11.732V6.35H158.425V4.838H160.369V2.498L162.151 2.066V4.838H164.851V6.35H162.151V11.318C162.151 11.786 162.253 12.116 162.457 12.308C162.673 12.5 163.021 12.596 163.501 12.596C163.753 12.596 163.975 12.584 164.167 12.56C164.371 12.524 164.587 12.464 164.815 12.38V13.892C164.575 13.976 164.293 14.042 163.969 14.09C163.657 14.138 163.369 14.162 163.105 14.162C162.217 14.162 161.539 13.958 161.071 13.55C160.603 13.13 160.369 12.524 160.369 11.732ZM165.57 9.41C165.57 8.75 165.69 8.132 165.93 7.556C166.182 6.968 166.524 6.464 166.956 6.044C167.388 5.612 167.892 5.276 168.468 5.036C169.056 4.784 169.68 4.658 170.34 4.658C171 4.658 171.618 4.784 172.194 5.036C172.782 5.276 173.286 5.612 173.706 6.044C174.138 6.464 174.474 6.968 174.714 7.556C174.966 8.132 175.092 8.75 175.092 9.41C175.092 10.082 174.966 10.712 174.714 11.3C174.474 11.876 174.138 12.38 173.706 12.812C173.286 13.232 172.782 13.568 172.194 13.82C171.618 14.06 171 14.18 170.34 14.18C169.68 14.18 169.056 14.06 168.468 13.82C167.892 13.568 167.388 13.232 166.956 12.812C166.524 12.38 166.182 11.876 165.93 11.3C165.69 10.712 165.57 10.082 165.57 9.41ZM170.34 12.596C171.168 12.596 171.87 12.29 172.446 11.678C173.034 11.054 173.328 10.298 173.328 9.41C173.328 8.522 173.034 7.772 172.446 7.16C171.87 6.548 171.168 6.242 170.34 6.242C169.512 6.242 168.804 6.548 168.216 7.16C167.628 7.772 167.334 8.522 167.334 9.41C167.334 10.298 167.622 11.054 168.198 11.678C168.786 12.29 169.5 12.596 170.34 12.596ZM184.93 12.578C185.386 12.578 185.818 12.488 186.226 12.308C186.634 12.116 187.024 11.834 187.396 11.462L188.476 12.632C187.996 13.112 187.444 13.49 186.82 13.766C186.196 14.03 185.542 14.162 184.858 14.162C184.198 14.162 183.58 14.042 183.004 13.802C182.428 13.55 181.93 13.214 181.51 12.794C181.09 12.374 180.754 11.876 180.502 11.3C180.262 10.712 180.142 10.082 180.142 9.41C180.142 8.75 180.262 8.132 180.502 7.556C180.754 6.968 181.09 6.464 181.51 6.044C181.93 5.612 182.428 5.276 183.004 5.036C183.58 4.784 184.198 4.658 184.858 4.658C185.542 4.658 186.208 4.796 186.856 5.072C187.504 5.336 188.068 5.708 188.548 6.188L187.414 7.412C187.066 7.04 186.676 6.758 186.244 6.566C185.812 6.362 185.362 6.26 184.894 6.26C184.066 6.26 183.364 6.566 182.788 7.178C182.212 7.79 181.924 8.534 181.924 9.41C181.924 10.31 182.212 11.066 182.788 11.678C183.376 12.278 184.09 12.578 184.93 12.578ZM189.177 9.41C189.177 8.75 189.297 8.132 189.537 7.556C189.789 6.968 190.131 6.464 190.563 6.044C190.995 5.612 191.499 5.276 192.075 5.036C192.663 4.784 193.287 4.658 193.947 4.658C194.607 4.658 195.225 4.784 195.801 5.036C196.389 5.276 196.893 5.612 197.313 6.044C197.745 6.464 198.081 6.968 198.321 7.556C198.573 8.132 198.699 8.75 198.699 9.41C198.699 10.082 198.573 10.712 198.321 11.3C198.081 11.876 197.745 12.38 197.313 12.812C196.893 13.232 196.389 13.568 195.801 13.82C195.225 14.06 194.607 14.18 193.947 14.18C193.287 14.18 192.663 14.06 192.075 13.82C191.499 13.568 190.995 13.232 190.563 12.812C190.131 12.38 189.789 11.876 189.537 11.3C189.297 10.712 189.177 10.082 189.177 9.41ZM193.947 12.596C194.775 12.596 195.477 12.29 196.053 11.678C196.641 11.054 196.935 10.298 196.935 9.41C196.935 8.522 196.641 7.772 196.053 7.16C195.477 6.548 194.775 6.242 193.947 6.242C193.119 6.242 192.411 6.548 191.823 7.16C191.235 7.772 190.941 8.522 190.941 9.41C190.941 10.298 191.229 11.054 191.805 11.678C192.393 12.29 193.107 12.596 193.947 12.596ZM200.402 14V4.838H202.202V5.756C202.562 5.396 202.97 5.126 203.426 4.946C203.894 4.754 204.404 4.658 204.956 4.658C206 4.658 206.858 4.994 207.53 5.666C208.202 6.326 208.538 7.184 208.538 8.24V14H206.738V8.546C206.738 7.826 206.528 7.262 206.108 6.854C205.7 6.434 205.154 6.224 204.47 6.224C203.99 6.224 203.552 6.326 203.156 6.53C202.772 6.734 202.454 7.028 202.202 7.412V14H200.402ZM210.615 14V4.838H212.415V5.756C212.775 5.396 213.183 5.126 213.639 4.946C214.107 4.754 214.617 4.658 215.169 4.658C216.213 4.658 217.071 4.994 217.743 5.666C218.415 6.326 218.751 7.184 218.751 8.24V14H216.951V8.546C216.951 7.826 216.741 7.262 216.321 6.854C215.913 6.434 215.367 6.224 214.683 6.224C214.203 6.224 213.765 6.326 213.369 6.53C212.985 6.734 212.667 7.028 212.415 7.412V14H210.615ZM228.766 12.956C228.238 13.364 227.686 13.67 227.11 13.874C226.534 14.066 225.904 14.162 225.22 14.162C224.548 14.162 223.918 14.042 223.33 13.802C222.742 13.55 222.232 13.214 221.8 12.794C221.368 12.374 221.026 11.876 220.774 11.3C220.534 10.712 220.414 10.082 220.414 9.41C220.414 8.75 220.534 8.132 220.774 7.556C221.014 6.98 221.338 6.482 221.746 6.062C222.154 5.642 222.64 5.312 223.204 5.072C223.768 4.82 224.368 4.694 225.004 4.694C225.628 4.694 226.21 4.82 226.75 5.072C227.302 5.312 227.77 5.648 228.154 6.08C228.55 6.5 228.862 7.004 229.09 7.592C229.318 8.18 229.432 8.81 229.432 9.482V10.004H222.196C222.316 10.76 222.664 11.39 223.24 11.894C223.816 12.386 224.5 12.632 225.292 12.632C225.736 12.632 226.162 12.56 226.57 12.416C226.978 12.272 227.326 12.074 227.614 11.822L228.766 12.956ZM224.968 6.206C224.284 6.206 223.684 6.434 223.168 6.89C222.664 7.346 222.346 7.934 222.214 8.654H227.65C227.518 7.958 227.2 7.376 226.696 6.908C226.204 6.44 225.628 6.206 224.968 6.206ZM235.555 12.578C236.011 12.578 236.443 12.488 236.851 12.308C237.259 12.116 237.649 11.834 238.021 11.462L239.101 12.632C238.621 13.112 238.069 13.49 237.445 13.766C236.821 14.03 236.167 14.162 235.483 14.162C234.823 14.162 234.205 14.042 233.629 13.802C233.053 13.55 232.555 13.214 232.135 12.794C231.715 12.374 231.379 11.876 231.127 11.3C230.887 10.712 230.767 10.082 230.767 9.41C230.767 8.75 230.887 8.132 231.127 7.556C231.379 6.968 231.715 6.464 232.135 6.044C232.555 5.612 233.053 5.276 233.629 5.036C234.205 4.784 234.823 4.658 235.483 4.658C236.167 4.658 236.833 4.796 237.481 5.072C238.129 5.336 238.693 5.708 239.173 6.188L238.039 7.412C237.691 7.04 237.301 6.758 236.869 6.566C236.437 6.362 235.987 6.26 235.519 6.26C234.691 6.26 233.989 6.566 233.413 7.178C232.837 7.79 232.549 8.534 232.549 9.41C232.549 10.31 232.837 11.066 233.413 11.678C234.001 12.278 234.715 12.578 235.555 12.578ZM241.932 11.732V6.35H239.988V4.838H241.932V2.498L243.714 2.066V4.838H246.414V6.35H243.714V11.318C243.714 11.786 243.816 12.116 244.02 12.308C244.236 12.5 244.584 12.596 245.064 12.596C245.316 12.596 245.538 12.584 245.73 12.56C245.934 12.524 246.15 12.464 246.378 12.38V13.892C246.138 13.976 245.856 14.042 245.532 14.09C245.22 14.138 244.932 14.162 244.668 14.162C243.78 14.162 243.102 13.958 242.634 13.55C242.166 13.13 241.932 12.524 241.932 11.732ZM254.957 14H253.211L250.655 4.838H252.401L254.165 11.57L256.271 4.838H257.819L259.907 11.57L261.689 4.838H263.381L260.807 14H259.079L257.027 7.286L254.957 14ZM265.567 3.362C265.267 3.362 265.009 3.254 264.793 3.038C264.577 2.81 264.469 2.546 264.469 2.246C264.469 1.946 264.577 1.688 264.793 1.472C265.009 1.244 265.267 1.13 265.567 1.13C265.867 1.13 266.125 1.244 266.341 1.472C266.569 1.688 266.683 1.946 266.683 2.246C266.683 2.546 266.569 2.81 266.341 3.038C266.125 3.254 265.867 3.362 265.567 3.362ZM266.467 4.838V14H264.667V4.838H266.467ZM269.775 11.732V6.35H267.831V4.838H269.775V2.498L271.557 2.066V4.838H274.257V6.35H271.557V11.318C271.557 11.786 271.659 12.116 271.863 12.308C272.079 12.5 272.427 12.596 272.907 12.596C273.159 12.596 273.381 12.584 273.573 12.56C273.777 12.524 273.993 12.464 274.221 12.38V13.892C273.981 13.976 273.699 14.042 273.375 14.09C273.063 14.138 272.775 14.162 272.511 14.162C271.623 14.162 270.945 13.958 270.477 13.55C270.009 13.13 269.775 12.524 269.775 11.732ZM275.583 14V1.4L277.383 1.004V5.756C277.743 5.396 278.151 5.126 278.607 4.946C279.075 4.754 279.585 4.658 280.137 4.658C281.181 4.658 282.039 4.994 282.711 5.666C283.383 6.326 283.719 7.184 283.719 8.24V14H281.919V8.546C281.919 7.826 281.709 7.262 281.289 6.854C280.881 6.434 280.335 6.224 279.651 6.224C279.171 6.224 278.733 6.326 278.337 6.53C277.953 6.734 277.635 7.028 277.383 7.412V14H275.583ZM289.144 9.41C289.144 8.75 289.264 8.132 289.504 7.556C289.756 6.968 290.098 6.464 290.53 6.044C290.962 5.612 291.466 5.276 292.042 5.036C292.63 4.784 293.254 4.658 293.914 4.658C294.574 4.658 295.192 4.784 295.768 5.036C296.356 5.276 296.86 5.612 297.28 6.044C297.712 6.464 298.048 6.968 298.288 7.556C298.54 8.132 298.666 8.75 298.666 9.41C298.666 10.082 298.54 10.712 298.288 11.3C298.048 11.876 297.712 12.38 297.28 12.812C296.86 13.232 296.356 13.568 295.768 13.82C295.192 14.06 294.574 14.18 293.914 14.18C293.254 14.18 292.63 14.06 292.042 13.82C291.466 13.568 290.962 13.232 290.53 12.812C290.098 12.38 289.756 11.876 289.504 11.3C289.264 10.712 289.144 10.082 289.144 9.41ZM293.914 12.596C294.742 12.596 295.444 12.29 296.02 11.678C296.608 11.054 296.902 10.298 296.902 9.41C296.902 8.522 296.608 7.772 296.02 7.16C295.444 6.548 294.742 6.242 293.914 6.242C293.086 6.242 292.378 6.548 291.79 7.16C291.202 7.772 290.908 8.522 290.908 9.41C290.908 10.298 291.196 11.054 291.772 11.678C292.36 12.29 293.074 12.596 293.914 12.596ZM300.994 11.732V6.35H299.05V4.838H300.994V2.498L302.776 2.066V4.838H305.476V6.35H302.776V11.318C302.776 11.786 302.878 12.116 303.082 12.308C303.298 12.5 303.646 12.596 304.126 12.596C304.378 12.596 304.6 12.584 304.792 12.56C304.996 12.524 305.212 12.464 305.44 12.38V13.892C305.2 13.976 304.918 14.042 304.594 14.09C304.282 14.138 303.994 14.162 303.73 14.162C302.842 14.162 302.164 13.958 301.696 13.55C301.228 13.13 300.994 12.524 300.994 11.732ZM306.802 14V1.4L308.602 1.004V5.756C308.962 5.396 309.37 5.126 309.826 4.946C310.294 4.754 310.804 4.658 311.356 4.658C312.4 4.658 313.258 4.994 313.93 5.666C314.602 6.326 314.938 7.184 314.938 8.24V14H313.138V8.546C313.138 7.826 312.928 7.262 312.508 6.854C312.1 6.434 311.554 6.224 310.87 6.224C310.39 6.224 309.952 6.326 309.556 6.53C309.172 6.734 308.854 7.028 308.602 7.412V14H306.802ZM324.953 12.956C324.425 13.364 323.873 13.67 323.297 13.874C322.721 14.066 322.091 14.162 321.407 14.162C320.735 14.162 320.105 14.042 319.517 13.802C318.929 13.55 318.419 13.214 317.987 12.794C317.555 12.374 317.213 11.876 316.961 11.3C316.721 10.712 316.601 10.082 316.601 9.41C316.601 8.75 316.721 8.132 316.961 7.556C317.201 6.98 317.525 6.482 317.933 6.062C318.341 5.642 318.827 5.312 319.391 5.072C319.955 4.82 320.555 4.694 321.191 4.694C321.815 4.694 322.397 4.82 322.937 5.072C323.489 5.312 323.957 5.648 324.341 6.08C324.737 6.5 325.049 7.004 325.277 7.592C325.505 8.18 325.619 8.81 325.619 9.482V10.004H318.383C318.503 10.76 318.851 11.39 319.427 11.894C320.003 12.386 320.687 12.632 321.479 12.632C321.923 12.632 322.349 12.56 322.757 12.416C323.165 12.272 323.513 12.074 323.801 11.822L324.953 12.956ZM321.155 6.206C320.471 6.206 319.871 6.434 319.355 6.89C318.851 7.346 318.533 7.934 318.401 8.654H323.837C323.705 7.958 323.387 7.376 322.883 6.908C322.391 6.44 321.815 6.206 321.155 6.206ZM327.333 14V4.838H329.133V6.008C329.409 5.564 329.763 5.228 330.195 5C330.627 4.76 331.113 4.64 331.653 4.64C331.845 4.64 332.013 4.652 332.157 4.676C332.301 4.7 332.439 4.736 332.571 4.784V6.404C332.403 6.344 332.229 6.296 332.049 6.26C331.869 6.224 331.689 6.206 331.509 6.206C330.981 6.206 330.507 6.35 330.087 6.638C329.679 6.914 329.361 7.328 329.133 7.88V14H327.333ZM333.132 12.812L334.104 11.624C334.584 11.996 335.07 12.284 335.562 12.488C336.066 12.68 336.576 12.776 337.092 12.776C337.74 12.776 338.268 12.65 338.676 12.398C339.084 12.146 339.288 11.816 339.288 11.408C339.288 11.084 339.168 10.826 338.928 10.634C338.688 10.442 338.316 10.31 337.812 10.238L336.156 10.004C335.256 9.872 334.572 9.596 334.104 9.176C333.648 8.744 333.42 8.174 333.42 7.466C333.42 6.638 333.75 5.972 334.41 5.468C335.07 4.952 335.934 4.694 337.002 4.694C337.674 4.694 338.31 4.79 338.91 4.982C339.522 5.174 340.116 5.468 340.692 5.864L339.774 7.052C339.27 6.716 338.778 6.476 338.298 6.332C337.83 6.176 337.356 6.098 336.876 6.098C336.324 6.098 335.88 6.212 335.544 6.44C335.208 6.668 335.04 6.968 335.04 7.34C335.04 7.676 335.154 7.934 335.382 8.114C335.622 8.282 336.012 8.408 336.552 8.492L338.208 8.726C339.108 8.858 339.792 9.14 340.26 9.572C340.74 10.004 340.98 10.574 340.98 11.282C340.98 11.69 340.878 12.074 340.674 12.434C340.482 12.782 340.212 13.082 339.864 13.334C339.528 13.586 339.126 13.79 338.658 13.946C338.19 14.09 337.686 14.162 337.146 14.162C336.354 14.162 335.61 14.048 334.914 13.82C334.23 13.592 333.636 13.256 333.132 12.812ZM345.369 4.838H347.493V3.452C347.493 2.504 347.757 1.778 348.285 1.274C348.825 0.757999 349.599 0.499999 350.607 0.499999C350.847 0.499999 351.075 0.517999 351.291 0.553999C351.507 0.577999 351.711 0.613999 351.903 0.661999V2.228C351.687 2.168 351.495 2.126 351.327 2.102C351.159 2.078 350.973 2.066 350.769 2.066C350.277 2.066 349.905 2.186 349.653 2.426C349.413 2.654 349.293 3.008 349.293 3.488V4.838H351.903V6.35H349.293V14H347.493V6.35H345.369V4.838ZM356.071 14.162C355.075 14.162 354.265 13.904 353.641 13.388C353.017 12.872 352.705 12.2 352.705 11.372C352.705 10.508 353.035 9.83 353.695 9.338C354.355 8.834 355.261 8.582 356.413 8.582C356.857 8.582 357.289 8.63 357.709 8.726C358.129 8.81 358.531 8.93 358.915 9.086V8.114C358.915 7.466 358.723 6.98 358.339 6.656C357.955 6.332 357.403 6.17 356.683 6.17C356.263 6.17 355.825 6.236 355.369 6.368C354.913 6.488 354.403 6.68 353.839 6.944L353.173 5.594C353.857 5.27 354.505 5.036 355.117 4.892C355.729 4.736 356.335 4.658 356.935 4.658C358.123 4.658 359.041 4.946 359.689 5.522C360.349 6.086 360.679 6.89 360.679 7.934V14H358.915V13.208C358.507 13.532 358.069 13.772 357.601 13.928C357.133 14.084 356.623 14.162 356.071 14.162ZM354.433 11.336C354.433 11.78 354.619 12.14 354.991 12.416C355.375 12.692 355.873 12.83 356.485 12.83C356.965 12.83 357.409 12.758 357.817 12.614C358.225 12.47 358.591 12.254 358.915 11.966V10.382C358.567 10.19 358.201 10.052 357.817 9.968C357.433 9.872 357.013 9.824 356.557 9.824C355.909 9.824 355.393 9.962 355.009 10.238C354.625 10.514 354.433 10.88 354.433 11.336ZM367.127 12.578C367.583 12.578 368.015 12.488 368.423 12.308C368.831 12.116 369.221 11.834 369.593 11.462L370.673 12.632C370.193 13.112 369.641 13.49 369.017 13.766C368.393 14.03 367.739 14.162 367.055 14.162C366.395 14.162 365.777 14.042 365.201 13.802C364.625 13.55 364.127 13.214 363.707 12.794C363.287 12.374 362.951 11.876 362.699 11.3C362.459 10.712 362.339 10.082 362.339 9.41C362.339 8.75 362.459 8.132 362.699 7.556C362.951 6.968 363.287 6.464 363.707 6.044C364.127 5.612 364.625 5.276 365.201 5.036C365.777 4.784 366.395 4.658 367.055 4.658C367.739 4.658 368.405 4.796 369.053 5.072C369.701 5.336 370.265 5.708 370.745 6.188L369.611 7.412C369.263 7.04 368.873 6.758 368.441 6.566C368.009 6.362 367.559 6.26 367.091 6.26C366.263 6.26 365.561 6.566 364.985 7.178C364.409 7.79 364.121 8.534 364.121 9.41C364.121 10.31 364.409 11.066 364.985 11.678C365.573 12.278 366.287 12.578 367.127 12.578ZM379.727 12.956C379.199 13.364 378.647 13.67 378.071 13.874C377.495 14.066 376.865 14.162 376.181 14.162C375.509 14.162 374.879 14.042 374.291 13.802C373.703 13.55 373.193 13.214 372.761 12.794C372.329 12.374 371.987 11.876 371.735 11.3C371.495 10.712 371.375 10.082 371.375 9.41C371.375 8.75 371.495 8.132 371.735 7.556C371.975 6.98 372.299 6.482 372.707 6.062C373.115 5.642 373.601 5.312 374.165 5.072C374.729 4.82 375.329 4.694 375.965 4.694C376.589 4.694 377.171 4.82 377.711 5.072C378.263 5.312 378.731 5.648 379.115 6.08C379.511 6.5 379.823 7.004 380.051 7.592C380.279 8.18 380.393 8.81 380.393 9.482V10.004H373.157C373.277 10.76 373.625 11.39 374.201 11.894C374.777 12.386 375.461 12.632 376.253 12.632C376.697 12.632 377.123 12.56 377.531 12.416C377.939 12.272 378.287 12.074 378.575 11.822L379.727 12.956ZM375.929 6.206C375.245 6.206 374.645 6.434 374.129 6.89C373.625 7.346 373.307 7.934 373.175 8.654H378.611C378.479 7.958 378.161 7.376 377.657 6.908C377.165 6.44 376.589 6.206 375.929 6.206ZM381.943 8.132H388.423V9.68H381.943V8.132ZM391.311 11.732V6.35H389.367V4.838H391.311V2.498L393.093 2.066V4.838H395.793V6.35H393.093V11.318C393.093 11.786 393.195 12.116 393.399 12.308C393.615 12.5 393.963 12.596 394.443 12.596C394.695 12.596 394.917 12.584 395.109 12.56C395.313 12.524 395.529 12.464 395.757 12.38V13.892C395.517 13.976 395.235 14.042 394.911 14.09C394.599 14.138 394.311 14.162 394.047 14.162C393.159 14.162 392.481 13.958 392.013 13.55C391.545 13.13 391.311 12.524 391.311 11.732ZM396.511 9.41C396.511 8.75 396.631 8.132 396.871 7.556C397.123 6.968 397.465 6.464 397.897 6.044C398.329 5.612 398.833 5.276 399.409 5.036C399.997 4.784 400.621 4.658 401.281 4.658C401.941 4.658 402.559 4.784 403.135 5.036C403.723 5.276 404.227 5.612 404.647 6.044C405.079 6.464 405.415 6.968 405.655 7.556C405.907 8.132 406.033 8.75 406.033 9.41C406.033 10.082 405.907 10.712 405.655 11.3C405.415 11.876 405.079 12.38 404.647 12.812C404.227 13.232 403.723 13.568 403.135 13.82C402.559 14.06 401.941 14.18 401.281 14.18C400.621 14.18 399.997 14.06 399.409 13.82C398.833 13.568 398.329 13.232 397.897 12.812C397.465 12.38 397.123 11.876 396.871 11.3C396.631 10.712 396.511 10.082 396.511 9.41ZM401.281 12.596C402.109 12.596 402.811 12.29 403.387 11.678C403.975 11.054 404.269 10.298 404.269 9.41C404.269 8.522 403.975 7.772 403.387 7.16C402.811 6.548 402.109 6.242 401.281 6.242C400.453 6.242 399.745 6.548 399.157 7.16C398.569 7.772 398.275 8.522 398.275 9.41C398.275 10.298 398.563 11.054 399.139 11.678C399.727 12.29 400.441 12.596 401.281 12.596ZM407.678 8.132H414.158V9.68H407.678V8.132ZM415.101 4.838H417.225V3.452C417.225 2.504 417.489 1.778 418.017 1.274C418.557 0.757999 419.331 0.499999 420.339 0.499999C420.579 0.499999 420.807 0.517999 421.023 0.553999C421.239 0.577999 421.443 0.613999 421.635 0.661999V2.228C421.419 2.168 421.227 2.126 421.059 2.102C420.891 2.078 420.705 2.066 420.501 2.066C420.009 2.066 419.637 2.186 419.385 2.426C419.145 2.654 419.025 3.008 419.025 3.488V4.838H421.635V6.35H419.025V14H417.225V6.35H415.101V4.838ZM425.804 14.162C424.808 14.162 423.998 13.904 423.374 13.388C422.75 12.872 422.438 12.2 422.438 11.372C422.438 10.508 422.768 9.83 423.428 9.338C424.088 8.834 424.994 8.582 426.146 8.582C426.59 8.582 427.022 8.63 427.442 8.726C427.862 8.81 428.264 8.93 428.648 9.086V8.114C428.648 7.466 428.456 6.98 428.072 6.656C427.688 6.332 427.136 6.17 426.416 6.17C425.996 6.17 425.558 6.236 425.102 6.368C424.646 6.488 424.136 6.68 423.572 6.944L422.906 5.594C423.59 5.27 424.238 5.036 424.85 4.892C425.462 4.736 426.068 4.658 426.668 4.658C427.856 4.658 428.774 4.946 429.422 5.522C430.082 6.086 430.412 6.89 430.412 7.934V14H428.648V13.208C428.24 13.532 427.802 13.772 427.334 13.928C426.866 14.084 426.356 14.162 425.804 14.162ZM424.166 11.336C424.166 11.78 424.352 12.14 424.724 12.416C425.108 12.692 425.606 12.83 426.218 12.83C426.698 12.83 427.142 12.758 427.55 12.614C427.958 12.47 428.324 12.254 428.648 11.966V10.382C428.3 10.19 427.934 10.052 427.55 9.968C427.166 9.872 426.746 9.824 426.29 9.824C425.642 9.824 425.126 9.962 424.742 10.238C424.358 10.514 424.166 10.88 424.166 11.336ZM436.86 12.578C437.316 12.578 437.748 12.488 438.156 12.308C438.564 12.116 438.954 11.834 439.326 11.462L440.406 12.632C439.926 13.112 439.374 13.49 438.75 13.766C438.126 14.03 437.472 14.162 436.788 14.162C436.128 14.162 435.51 14.042 434.934 13.802C434.358 13.55 433.86 13.214 433.44 12.794C433.02 12.374 432.684 11.876 432.432 11.3C432.192 10.712 432.072 10.082 432.072 9.41C432.072 8.75 432.192 8.132 432.432 7.556C432.684 6.968 433.02 6.464 433.44 6.044C433.86 5.612 434.358 5.276 434.934 5.036C435.51 4.784 436.128 4.658 436.788 4.658C437.472 4.658 438.138 4.796 438.786 5.072C439.434 5.336 439.998 5.708 440.478 6.188L439.344 7.412C438.996 7.04 438.606 6.758 438.174 6.566C437.742 6.362 437.292 6.26 436.824 6.26C435.996 6.26 435.294 6.566 434.718 7.178C434.142 7.79 433.854 8.534 433.854 9.41C433.854 10.31 434.142 11.066 434.718 11.678C435.306 12.278 436.02 12.578 436.86 12.578ZM449.459 12.956C448.931 13.364 448.379 13.67 447.803 13.874C447.227 14.066 446.597 14.162 445.913 14.162C445.241 14.162 444.611 14.042 444.023 13.802C443.435 13.55 442.925 13.214 442.493 12.794C442.061 12.374 441.719 11.876 441.467 11.3C441.227 10.712 441.107 10.082 441.107 9.41C441.107 8.75 441.227 8.132 441.467 7.556C441.707 6.98 442.031 6.482 442.439 6.062C442.847 5.642 443.333 5.312 443.897 5.072C444.461 4.82 445.061 4.694 445.697 4.694C446.321 4.694 446.903 4.82 447.443 5.072C447.995 5.312 448.463 5.648 448.847 6.08C449.243 6.5 449.555 7.004 449.783 7.592C450.011 8.18 450.125 8.81 450.125 9.482V10.004H442.889C443.009 10.76 443.357 11.39 443.933 11.894C444.509 12.386 445.193 12.632 445.985 12.632C446.429 12.632 446.855 12.56 447.263 12.416C447.671 12.272 448.019 12.074 448.307 11.822L449.459 12.956ZM445.661 6.206C444.977 6.206 444.377 6.434 443.861 6.89C443.357 7.346 443.039 7.934 442.907 8.654H448.343C448.211 7.958 447.893 7.376 447.389 6.908C446.897 6.44 446.321 6.206 445.661 6.206ZM458.553 14L454.593 4.838H456.573L459.435 11.696L462.297 4.838H464.223L460.263 14H458.553ZM466.239 3.362C465.939 3.362 465.681 3.254 465.465 3.038C465.249 2.81 465.141 2.546 465.141 2.246C465.141 1.946 465.249 1.688 465.465 1.472C465.681 1.244 465.939 1.13 466.239 1.13C466.539 1.13 466.797 1.244 467.013 1.472C467.241 1.688 467.355 1.946 467.355 2.246C467.355 2.546 467.241 2.81 467.013 3.038C466.797 3.254 466.539 3.362 466.239 3.362ZM467.139 4.838V14H465.339V4.838H467.139ZM469.259 14V4.838H471.059V6.008C471.335 5.564 471.689 5.228 472.121 5C472.553 4.76 473.039 4.64 473.579 4.64C473.771 4.64 473.939 4.652 474.083 4.676C474.227 4.7 474.365 4.736 474.497 4.784V6.404C474.329 6.344 474.155 6.296 473.975 6.26C473.795 6.224 473.615 6.206 473.435 6.206C472.907 6.206 472.433 6.35 472.013 6.638C471.605 6.914 471.287 7.328 471.059 7.88V14H469.259ZM477.197 11.732V6.35H475.253V4.838H477.197V2.498L478.979 2.066V4.838H481.679V6.35H478.979V11.318C478.979 11.786 479.081 12.116 479.285 12.308C479.501 12.5 479.849 12.596 480.329 12.596C480.581 12.596 480.803 12.584 480.995 12.56C481.199 12.524 481.415 12.464 481.643 12.38V13.892C481.403 13.976 481.121 14.042 480.797 14.09C480.485 14.138 480.197 14.162 479.933 14.162C479.045 14.162 478.367 13.958 477.899 13.55C477.431 13.13 477.197 12.524 477.197 11.732ZM484.769 4.838V10.274C484.769 10.994 484.973 11.564 485.381 11.984C485.801 12.404 486.353 12.614 487.037 12.614C487.517 12.614 487.949 12.512 488.333 12.308C488.717 12.092 489.035 11.792 489.287 11.408V4.838H491.087V14H489.287V13.082C488.927 13.442 488.513 13.718 488.045 13.91C487.589 14.09 487.085 14.18 486.533 14.18C485.489 14.18 484.631 13.844 483.959 13.172C483.299 12.5 482.969 11.636 482.969 10.58V4.838H484.769ZM496.116 14.162C495.12 14.162 494.31 13.904 493.686 13.388C493.062 12.872 492.75 12.2 492.75 11.372C492.75 10.508 493.08 9.83 493.74 9.338C494.4 8.834 495.306 8.582 496.458 8.582C496.902 8.582 497.334 8.63 497.754 8.726C498.174 8.81 498.576 8.93 498.96 9.086V8.114C498.96 7.466 498.768 6.98 498.384 6.656C498 6.332 497.448 6.17 496.728 6.17C496.308 6.17 495.87 6.236 495.414 6.368C494.958 6.488 494.448 6.68 493.884 6.944L493.218 5.594C493.902 5.27 494.55 5.036 495.162 4.892C495.774 4.736 496.38 4.658 496.98 4.658C498.168 4.658 499.086 4.946 499.734 5.522C500.394 6.086 500.724 6.89 500.724 7.934V14H498.96V13.208C498.552 13.532 498.114 13.772 497.646 13.928C497.178 14.084 496.668 14.162 496.116 14.162ZM494.478 11.336C494.478 11.78 494.664 12.14 495.036 12.416C495.42 12.692 495.918 12.83 496.53 12.83C497.01 12.83 497.454 12.758 497.862 12.614C498.27 12.47 498.636 12.254 498.96 11.966V10.382C498.612 10.19 498.246 10.052 497.862 9.968C497.478 9.872 497.058 9.824 496.602 9.824C495.954 9.824 495.438 9.962 495.054 10.238C494.67 10.514 494.478 10.88 494.478 11.336ZM504.598 1.004V14H502.798V1.4L504.598 1.004ZM508.518 1.004V14H506.718V1.4L508.518 1.004ZM512.924 14.864L513.284 14.036L509.63 4.838H511.61L514.292 11.84L517.244 4.838H519.188L514.76 15.098C514.34 16.07 513.86 16.766 513.32 17.186C512.78 17.618 512.09 17.834 511.25 17.834C511.058 17.834 510.878 17.822 510.71 17.798C510.554 17.786 510.416 17.762 510.296 17.726V16.142C510.416 16.166 510.536 16.184 510.656 16.196C510.788 16.208 510.938 16.214 511.106 16.214C511.514 16.214 511.868 16.1 512.168 15.872C512.48 15.656 512.732 15.32 512.924 14.864ZM124.594 40.162C123.598 40.162 122.788 39.904 122.164 39.388C121.54 38.872 121.228 38.2 121.228 37.372C121.228 36.508 121.558 35.83 122.218 35.338C122.878 34.834 123.784 34.582 124.936 34.582C125.38 34.582 125.812 34.63 126.232 34.726C126.652 34.81 127.054 34.93 127.438 35.086V34.114C127.438 33.466 127.246 32.98 126.862 32.656C126.478 32.332 125.926 32.17 125.206 32.17C124.786 32.17 124.348 32.236 123.892 32.368C123.436 32.488 122.926 32.68 122.362 32.944L121.696 31.594C122.38 31.27 123.028 31.036 123.64 30.892C124.252 30.736 124.858 30.658 125.458 30.658C126.646 30.658 127.564 30.946 128.212 31.522C128.872 32.086 129.202 32.89 129.202 33.934V40H127.438V39.208C127.03 39.532 126.592 39.772 126.124 39.928C125.656 40.084 125.146 40.162 124.594 40.162ZM122.956 37.336C122.956 37.78 123.142 38.14 123.514 38.416C123.898 38.692 124.396 38.83 125.008 38.83C125.488 38.83 125.932 38.758 126.34 38.614C126.748 38.47 127.114 38.254 127.438 37.966V36.382C127.09 36.19 126.724 36.052 126.34 35.968C125.956 35.872 125.536 35.824 125.08 35.824C124.432 35.824 123.916 35.962 123.532 36.238C123.148 36.514 122.956 36.88 122.956 37.336ZM131.276 40V30.838H133.076V31.756C133.436 31.396 133.844 31.126 134.3 30.946C134.768 30.754 135.278 30.658 135.83 30.658C136.874 30.658 137.732 30.994 138.404 31.666C139.076 32.326 139.412 33.184 139.412 34.24V40H137.612V34.546C137.612 33.826 137.402 33.262 136.982 32.854C136.574 32.434 136.028 32.224 135.344 32.224C134.864 32.224 134.426 32.326 134.03 32.53C133.646 32.734 133.328 33.028 133.076 33.412V40H131.276ZM148.509 40V39.136C148.125 39.46 147.693 39.712 147.213 39.892C146.733 40.06 146.229 40.144 145.701 40.144C145.053 40.144 144.447 40.024 143.883 39.784C143.319 39.532 142.827 39.196 142.407 38.776C141.999 38.356 141.675 37.858 141.435 37.282C141.195 36.694 141.075 36.07 141.075 35.41C141.075 34.75 141.195 34.132 141.435 33.556C141.675 32.98 141.999 32.482 142.407 32.062C142.827 31.642 143.325 31.312 143.901 31.072C144.477 30.82 145.089 30.694 145.737 30.694C146.241 30.694 146.727 30.772 147.195 30.928C147.663 31.084 148.095 31.306 148.491 31.594V27.4L150.291 27.004V40H148.509ZM142.839 35.392C142.839 36.292 143.139 37.048 143.739 37.66C144.339 38.272 145.077 38.578 145.953 38.578C146.469 38.578 146.943 38.482 147.375 38.29C147.819 38.098 148.191 37.828 148.491 37.48V33.322C148.191 32.986 147.819 32.722 147.375 32.53C146.931 32.338 146.457 32.242 145.953 32.242C145.077 32.242 144.339 32.542 143.739 33.142C143.139 33.742 142.839 34.492 142.839 35.392ZM160.558 38.578C161.014 38.578 161.446 38.488 161.854 38.308C162.262 38.116 162.652 37.834 163.024 37.462L164.104 38.632C163.624 39.112 163.072 39.49 162.448 39.766C161.824 40.03 161.17 40.162 160.486 40.162C159.826 40.162 159.208 40.042 158.632 39.802C158.056 39.55 157.558 39.214 157.138 38.794C156.718 38.374 156.382 37.876 156.13 37.3C155.89 36.712 155.77 36.082 155.77 35.41C155.77 34.75 155.89 34.132 156.13 33.556C156.382 32.968 156.718 32.464 157.138 32.044C157.558 31.612 158.056 31.276 158.632 31.036C159.208 30.784 159.826 30.658 160.486 30.658C161.17 30.658 161.836 30.796 162.484 31.072C163.132 31.336 163.696 31.708 164.176 32.188L163.042 33.412C162.694 33.04 162.304 32.758 161.872 32.566C161.44 32.362 160.99 32.26 160.522 32.26C159.694 32.26 158.992 32.566 158.416 33.178C157.84 33.79 157.552 34.534 157.552 35.41C157.552 36.31 157.84 37.066 158.416 37.678C159.004 38.278 159.718 38.578 160.558 38.578ZM164.805 35.41C164.805 34.75 164.925 34.132 165.165 33.556C165.417 32.968 165.759 32.464 166.191 32.044C166.623 31.612 167.127 31.276 167.703 31.036C168.291 30.784 168.915 30.658 169.575 30.658C170.235 30.658 170.853 30.784 171.429 31.036C172.017 31.276 172.521 31.612 172.941 32.044C173.373 32.464 173.709 32.968 173.949 33.556C174.201 34.132 174.327 34.75 174.327 35.41C174.327 36.082 174.201 36.712 173.949 37.3C173.709 37.876 173.373 38.38 172.941 38.812C172.521 39.232 172.017 39.568 171.429 39.82C170.853 40.06 170.235 40.18 169.575 40.18C168.915 40.18 168.291 40.06 167.703 39.82C167.127 39.568 166.623 39.232 166.191 38.812C165.759 38.38 165.417 37.876 165.165 37.3C164.925 36.712 164.805 36.082 164.805 35.41ZM169.575 38.596C170.403 38.596 171.105 38.29 171.681 37.678C172.269 37.054 172.563 36.298 172.563 35.41C172.563 34.522 172.269 33.772 171.681 33.16C171.105 32.548 170.403 32.242 169.575 32.242C168.747 32.242 168.039 32.548 167.451 33.16C166.863 33.772 166.569 34.522 166.569 35.41C166.569 36.298 166.857 37.054 167.433 37.678C168.021 38.29 168.735 38.596 169.575 38.596ZM177.83 27.004V40H176.03V27.4L177.83 27.004ZM181.75 27.004V40H179.95V27.4L181.75 27.004ZM186.768 40.162C185.772 40.162 184.962 39.904 184.338 39.388C183.714 38.872 183.402 38.2 183.402 37.372C183.402 36.508 183.732 35.83 184.392 35.338C185.052 34.834 185.958 34.582 187.11 34.582C187.554 34.582 187.986 34.63 188.406 34.726C188.826 34.81 189.228 34.93 189.612 35.086V34.114C189.612 33.466 189.42 32.98 189.036 32.656C188.652 32.332 188.1 32.17 187.38 32.17C186.96 32.17 186.522 32.236 186.066 32.368C185.61 32.488 185.1 32.68 184.536 32.944L183.87 31.594C184.554 31.27 185.202 31.036 185.814 30.892C186.426 30.736 187.032 30.658 187.632 30.658C188.82 30.658 189.738 30.946 190.386 31.522C191.046 32.086 191.376 32.89 191.376 33.934V40H189.612V39.208C189.204 39.532 188.766 39.772 188.298 39.928C187.83 40.084 187.32 40.162 186.768 40.162ZM185.13 37.336C185.13 37.78 185.316 38.14 185.688 38.416C186.072 38.692 186.57 38.83 187.182 38.83C187.662 38.83 188.106 38.758 188.514 38.614C188.922 38.47 189.288 38.254 189.612 37.966V36.382C189.264 36.19 188.898 36.052 188.514 35.968C188.13 35.872 187.71 35.824 187.254 35.824C186.606 35.824 186.09 35.962 185.706 36.238C185.322 36.514 185.13 36.88 185.13 37.336ZM202.666 35.41C202.666 36.07 202.546 36.694 202.306 37.282C202.066 37.858 201.736 38.356 201.316 38.776C200.908 39.196 200.416 39.532 199.84 39.784C199.264 40.024 198.652 40.144 198.004 40.144C197.488 40.144 196.996 40.066 196.528 39.91C196.06 39.754 195.628 39.526 195.232 39.226V40H193.45V27.4L195.25 27.004V31.702C195.622 31.378 196.048 31.132 196.528 30.964C197.008 30.784 197.512 30.694 198.04 30.694C198.688 30.694 199.294 30.82 199.858 31.072C200.422 31.312 200.908 31.642 201.316 32.062C201.736 32.482 202.066 32.98 202.306 33.556C202.546 34.132 202.666 34.75 202.666 35.41ZM197.806 32.26C197.29 32.26 196.81 32.356 196.366 32.548C195.922 32.74 195.55 33.01 195.25 33.358V37.498C195.538 37.834 195.904 38.098 196.348 38.29C196.804 38.482 197.29 38.578 197.806 38.578C198.682 38.578 199.414 38.278 200.002 37.678C200.602 37.078 200.902 36.328 200.902 35.428C200.902 34.528 200.602 33.778 200.002 33.178C199.402 32.566 198.67 32.26 197.806 32.26ZM204.004 35.41C204.004 34.75 204.124 34.132 204.364 33.556C204.616 32.968 204.958 32.464 205.39 32.044C205.822 31.612 206.326 31.276 206.902 31.036C207.49 30.784 208.114 30.658 208.774 30.658C209.434 30.658 210.052 30.784 210.628 31.036C211.216 31.276 211.72 31.612 212.14 32.044C212.572 32.464 212.908 32.968 213.148 33.556C213.4 34.132 213.526 34.75 213.526 35.41C213.526 36.082 213.4 36.712 213.148 37.3C212.908 37.876 212.572 38.38 212.14 38.812C211.72 39.232 211.216 39.568 210.628 39.82C210.052 40.06 209.434 40.18 208.774 40.18C208.114 40.18 207.49 40.06 206.902 39.82C206.326 39.568 205.822 39.232 205.39 38.812C204.958 38.38 204.616 37.876 204.364 37.3C204.124 36.712 204.004 36.082 204.004 35.41ZM208.774 38.596C209.602 38.596 210.304 38.29 210.88 37.678C211.468 37.054 211.762 36.298 211.762 35.41C211.762 34.522 211.468 33.772 210.88 33.16C210.304 32.548 209.602 32.242 208.774 32.242C207.946 32.242 207.238 32.548 206.65 33.16C206.062 33.772 205.768 34.522 205.768 35.41C205.768 36.298 206.056 37.054 206.632 37.678C207.22 38.29 207.934 38.596 208.774 38.596ZM215.229 40V30.838H217.029V32.008C217.305 31.564 217.659 31.228 218.091 31C218.523 30.76 219.009 30.64 219.549 30.64C219.741 30.64 219.909 30.652 220.053 30.676C220.197 30.7 220.335 30.736 220.467 30.784V32.404C220.299 32.344 220.125 32.296 219.945 32.26C219.765 32.224 219.585 32.206 219.405 32.206C218.877 32.206 218.403 32.35 217.983 32.638C217.575 32.914 217.257 33.328 217.029 33.88V40H215.229ZM224.42 40.162C223.424 40.162 222.614 39.904 221.99 39.388C221.366 38.872 221.054 38.2 221.054 37.372C221.054 36.508 221.384 35.83 222.044 35.338C222.704 34.834 223.61 34.582 224.762 34.582C225.206 34.582 225.638 34.63 226.058 34.726C226.478 34.81 226.88 34.93 227.264 35.086V34.114C227.264 33.466 227.072 32.98 226.688 32.656C226.304 32.332 225.752 32.17 225.032 32.17C224.612 32.17 224.174 32.236 223.718 32.368C223.262 32.488 222.752 32.68 222.188 32.944L221.522 31.594C222.206 31.27 222.854 31.036 223.466 30.892C224.078 30.736 224.684 30.658 225.284 30.658C226.472 30.658 227.39 30.946 228.038 31.522C228.698 32.086 229.028 32.89 229.028 33.934V40H227.264V39.208C226.856 39.532 226.418 39.772 225.95 39.928C225.482 40.084 224.972 40.162 224.42 40.162ZM222.782 37.336C222.782 37.78 222.968 38.14 223.34 38.416C223.724 38.692 224.222 38.83 224.834 38.83C225.314 38.83 225.758 38.758 226.166 38.614C226.574 38.47 226.94 38.254 227.264 37.966V36.382C226.916 36.19 226.55 36.052 226.166 35.968C225.782 35.872 225.362 35.824 224.906 35.824C224.258 35.824 223.742 35.962 223.358 36.238C222.974 36.514 222.782 36.88 222.782 37.336ZM231.938 37.732V32.35H229.994V30.838H231.938V28.498L233.72 28.066V30.838H236.42V32.35H233.72V37.318C233.72 37.786 233.822 38.116 234.026 38.308C234.242 38.5 234.59 38.596 235.07 38.596C235.322 38.596 235.544 38.584 235.736 38.56C235.94 38.524 236.156 38.464 236.384 38.38V39.892C236.144 39.976 235.862 40.042 235.538 40.09C235.226 40.138 234.938 40.162 234.674 40.162C233.786 40.162 233.108 39.958 232.64 39.55C232.172 39.13 231.938 38.524 231.938 37.732ZM245.491 38.956C244.963 39.364 244.411 39.67 243.835 39.874C243.259 40.066 242.629 40.162 241.945 40.162C241.273 40.162 240.643 40.042 240.055 39.802C239.467 39.55 238.957 39.214 238.525 38.794C238.093 38.374 237.751 37.876 237.499 37.3C237.259 36.712 237.139 36.082 237.139 35.41C237.139 34.75 237.259 34.132 237.499 33.556C237.739 32.98 238.063 32.482 238.471 32.062C238.879 31.642 239.365 31.312 239.929 31.072C240.493 30.82 241.093 30.694 241.729 30.694C242.353 30.694 242.935 30.82 243.475 31.072C244.027 31.312 244.495 31.648 244.879 32.08C245.275 32.5 245.587 33.004 245.815 33.592C246.043 34.18 246.157 34.81 246.157 35.482V36.004H238.921C239.041 36.76 239.389 37.39 239.965 37.894C240.541 38.386 241.225 38.632 242.017 38.632C242.461 38.632 242.887 38.56 243.295 38.416C243.703 38.272 244.051 38.074 244.339 37.822L245.491 38.956ZM241.693 32.206C241.009 32.206 240.409 32.434 239.893 32.89C239.389 33.346 239.071 33.934 238.939 34.654H244.375C244.243 33.958 243.925 33.376 243.421 32.908C242.929 32.44 242.353 32.206 241.693 32.206ZM254.531 40.162C253.535 40.162 252.725 39.904 252.101 39.388C251.477 38.872 251.165 38.2 251.165 37.372C251.165 36.508 251.495 35.83 252.155 35.338C252.815 34.834 253.721 34.582 254.873 34.582C255.317 34.582 255.749 34.63 256.169 34.726C256.589 34.81 256.991 34.93 257.375 35.086V34.114C257.375 33.466 257.183 32.98 256.799 32.656C256.415 32.332 255.863 32.17 255.143 32.17C254.723 32.17 254.285 32.236 253.829 32.368C253.373 32.488 252.863 32.68 252.299 32.944L251.633 31.594C252.317 31.27 252.965 31.036 253.577 30.892C254.189 30.736 254.795 30.658 255.395 30.658C256.583 30.658 257.501 30.946 258.149 31.522C258.809 32.086 259.139 32.89 259.139 33.934V40H257.375V39.208C256.967 39.532 256.529 39.772 256.061 39.928C255.593 40.084 255.083 40.162 254.531 40.162ZM252.893 37.336C252.893 37.78 253.079 38.14 253.451 38.416C253.835 38.692 254.333 38.83 254.945 38.83C255.425 38.83 255.869 38.758 256.277 38.614C256.685 38.47 257.051 38.254 257.375 37.966V36.382C257.027 36.19 256.661 36.052 256.277 35.968C255.893 35.872 255.473 35.824 255.017 35.824C254.369 35.824 253.853 35.962 253.469 36.238C253.085 36.514 252.893 36.88 252.893 37.336ZM265.587 38.578C266.043 38.578 266.475 38.488 266.883 38.308C267.291 38.116 267.681 37.834 268.053 37.462L269.133 38.632C268.653 39.112 268.101 39.49 267.477 39.766C266.853 40.03 266.199 40.162 265.515 40.162C264.855 40.162 264.237 40.042 263.661 39.802C263.085 39.55 262.587 39.214 262.167 38.794C261.747 38.374 261.411 37.876 261.159 37.3C260.919 36.712 260.799 36.082 260.799 35.41C260.799 34.75 260.919 34.132 261.159 33.556C261.411 32.968 261.747 32.464 262.167 32.044C262.587 31.612 263.085 31.276 263.661 31.036C264.237 30.784 264.855 30.658 265.515 30.658C266.199 30.658 266.865 30.796 267.513 31.072C268.161 31.336 268.725 31.708 269.205 32.188L268.071 33.412C267.723 33.04 267.333 32.758 266.901 32.566C266.469 32.362 266.019 32.26 265.551 32.26C264.723 32.26 264.021 32.566 263.445 33.178C262.869 33.79 262.581 34.534 262.581 35.41C262.581 36.31 262.869 37.066 263.445 37.678C264.033 38.278 264.747 38.578 265.587 38.578ZM270.6 40V30.838H272.4V32.008C272.676 31.564 273.03 31.228 273.462 31C273.894 30.76 274.38 30.64 274.92 30.64C275.112 30.64 275.28 30.652 275.424 30.676C275.568 30.7 275.706 30.736 275.838 30.784V32.404C275.67 32.344 275.496 32.296 275.316 32.26C275.136 32.224 274.956 32.206 274.776 32.206C274.248 32.206 273.774 32.35 273.354 32.638C272.946 32.914 272.628 33.328 272.4 33.88V40H270.6ZM276.303 35.41C276.303 34.75 276.423 34.132 276.663 33.556C276.915 32.968 277.257 32.464 277.689 32.044C278.121 31.612 278.625 31.276 279.201 31.036C279.789 30.784 280.413 30.658 281.073 30.658C281.733 30.658 282.351 30.784 282.927 31.036C283.515 31.276 284.019 31.612 284.439 32.044C284.871 32.464 285.207 32.968 285.447 33.556C285.699 34.132 285.825 34.75 285.825 35.41C285.825 36.082 285.699 36.712 285.447 37.3C285.207 37.876 284.871 38.38 284.439 38.812C284.019 39.232 283.515 39.568 282.927 39.82C282.351 40.06 281.733 40.18 281.073 40.18C280.413 40.18 279.789 40.06 279.201 39.82C278.625 39.568 278.121 39.232 277.689 38.812C277.257 38.38 276.915 37.876 276.663 37.3C276.423 36.712 276.303 36.082 276.303 35.41ZM281.073 38.596C281.901 38.596 282.603 38.29 283.179 37.678C283.767 37.054 284.061 36.298 284.061 35.41C284.061 34.522 283.767 33.772 283.179 33.16C282.603 32.548 281.901 32.242 281.073 32.242C280.245 32.242 279.537 32.548 278.949 33.16C278.361 33.772 278.067 34.522 278.067 35.41C278.067 36.298 278.355 37.054 278.931 37.678C279.519 38.29 280.233 38.596 281.073 38.596ZM286.664 38.812L287.636 37.624C288.116 37.996 288.602 38.284 289.094 38.488C289.598 38.68 290.108 38.776 290.624 38.776C291.272 38.776 291.8 38.65 292.208 38.398C292.616 38.146 292.82 37.816 292.82 37.408C292.82 37.084 292.7 36.826 292.46 36.634C292.22 36.442 291.848 36.31 291.344 36.238L289.688 36.004C288.788 35.872 288.104 35.596 287.636 35.176C287.18 34.744 286.952 34.174 286.952 33.466C286.952 32.638 287.282 31.972 287.942 31.468C288.602 30.952 289.466 30.694 290.534 30.694C291.206 30.694 291.842 30.79 292.442 30.982C293.054 31.174 293.648 31.468 294.224 31.864L293.306 33.052C292.802 32.716 292.31 32.476 291.83 32.332C291.362 32.176 290.888 32.098 290.408 32.098C289.856 32.098 289.412 32.212 289.076 32.44C288.74 32.668 288.572 32.968 288.572 33.34C288.572 33.676 288.686 33.934 288.914 34.114C289.154 34.282 289.544 34.408 290.084 34.492L291.74 34.726C292.64 34.858 293.324 35.14 293.792 35.572C294.272 36.004 294.512 36.574 294.512 37.282C294.512 37.69 294.41 38.074 294.206 38.434C294.014 38.782 293.744 39.082 293.396 39.334C293.06 39.586 292.658 39.79 292.19 39.946C291.722 40.09 291.218 40.162 290.678 40.162C289.886 40.162 289.142 40.048 288.446 39.82C287.762 39.592 287.168 39.256 286.664 38.812ZM295.136 38.812L296.108 37.624C296.588 37.996 297.074 38.284 297.566 38.488C298.07 38.68 298.58 38.776 299.096 38.776C299.744 38.776 300.272 38.65 300.68 38.398C301.088 38.146 301.292 37.816 301.292 37.408C301.292 37.084 301.172 36.826 300.932 36.634C300.692 36.442 300.32 36.31 299.816 36.238L298.16 36.004C297.26 35.872 296.576 35.596 296.108 35.176C295.652 34.744 295.424 34.174 295.424 33.466C295.424 32.638 295.754 31.972 296.414 31.468C297.074 30.952 297.938 30.694 299.006 30.694C299.678 30.694 300.314 30.79 300.914 30.982C301.526 31.174 302.12 31.468 302.696 31.864L301.778 33.052C301.274 32.716 300.782 32.476 300.302 32.332C299.834 32.176 299.36 32.098 298.88 32.098C298.328 32.098 297.884 32.212 297.548 32.44C297.212 32.668 297.044 32.968 297.044 33.34C297.044 33.676 297.158 33.934 297.386 34.114C297.626 34.282 298.016 34.408 298.556 34.492L300.212 34.726C301.112 34.858 301.796 35.14 302.264 35.572C302.744 36.004 302.984 36.574 302.984 37.282C302.984 37.69 302.882 38.074 302.678 38.434C302.486 38.782 302.216 39.082 301.868 39.334C301.532 39.586 301.13 39.79 300.662 39.946C300.194 40.09 299.69 40.162 299.15 40.162C298.358 40.162 297.614 40.048 296.918 39.82C296.234 39.592 295.64 39.256 295.136 38.812ZM311.027 40.162C310.031 40.162 309.221 39.904 308.597 39.388C307.973 38.872 307.661 38.2 307.661 37.372C307.661 36.508 307.991 35.83 308.651 35.338C309.311 34.834 310.217 34.582 311.369 34.582C311.813 34.582 312.245 34.63 312.665 34.726C313.085 34.81 313.487 34.93 313.871 35.086V34.114C313.871 33.466 313.679 32.98 313.295 32.656C312.911 32.332 312.359 32.17 311.639 32.17C311.219 32.17 310.781 32.236 310.325 32.368C309.869 32.488 309.359 32.68 308.795 32.944L308.129 31.594C308.813 31.27 309.461 31.036 310.073 30.892C310.685 30.736 311.291 30.658 311.891 30.658C313.079 30.658 313.997 30.946 314.645 31.522C315.305 32.086 315.635 32.89 315.635 33.934V40H313.871V39.208C313.463 39.532 313.025 39.772 312.557 39.928C312.089 40.084 311.579 40.162 311.027 40.162ZM309.389 37.336C309.389 37.78 309.575 38.14 309.947 38.416C310.331 38.692 310.829 38.83 311.441 38.83C311.921 38.83 312.365 38.758 312.773 38.614C313.181 38.47 313.547 38.254 313.871 37.966V36.382C313.523 36.19 313.157 36.052 312.773 35.968C312.389 35.872 311.969 35.824 311.513 35.824C310.865 35.824 310.349 35.962 309.965 36.238C309.581 36.514 309.389 36.88 309.389 37.336ZM317.709 40V30.838H319.509V31.756C319.869 31.396 320.277 31.126 320.733 30.946C321.201 30.754 321.711 30.658 322.263 30.658C323.307 30.658 324.165 30.994 324.837 31.666C325.509 32.326 325.845 33.184 325.845 34.24V40H324.045V34.546C324.045 33.826 323.835 33.262 323.415 32.854C323.007 32.434 322.461 32.224 321.777 32.224C321.297 32.224 320.859 32.326 320.463 32.53C320.079 32.734 319.761 33.028 319.509 33.412V40H317.709ZM330.033 40.864L330.393 40.036L326.739 30.838H328.719L331.401 37.84L334.353 30.838H336.297L331.869 41.098C331.449 42.07 330.969 42.766 330.429 43.186C329.889 43.618 329.199 43.834 328.359 43.834C328.167 43.834 327.987 43.822 327.819 43.798C327.663 43.786 327.525 43.762 327.405 43.726V42.142C327.525 42.166 327.645 42.184 327.765 42.196C327.897 42.208 328.047 42.214 328.215 42.214C328.623 42.214 328.977 42.1 329.277 41.872C329.589 41.656 329.841 41.32 330.033 40.864ZM348.196 40V39.136C347.812 39.46 347.38 39.712 346.9 39.892C346.42 40.06 345.916 40.144 345.388 40.144C344.74 40.144 344.134 40.024 343.57 39.784C343.006 39.532 342.514 39.196 342.094 38.776C341.686 38.356 341.362 37.858 341.122 37.282C340.882 36.694 340.762 36.07 340.762 35.41C340.762 34.75 340.882 34.132 341.122 33.556C341.362 32.98 341.686 32.482 342.094 32.062C342.514 31.642 343.012 31.312 343.588 31.072C344.164 30.82 344.776 30.694 345.424 30.694C345.928 30.694 346.414 30.772 346.882 30.928C347.35 31.084 347.782 31.306 348.178 31.594V27.4L349.978 27.004V40H348.196ZM342.526 35.392C342.526 36.292 342.826 37.048 343.426 37.66C344.026 38.272 344.764 38.578 345.64 38.578C346.156 38.578 346.63 38.482 347.062 38.29C347.506 38.098 347.878 37.828 348.178 37.48V33.322C347.878 32.986 347.506 32.722 347.062 32.53C346.618 32.338 346.144 32.242 345.64 32.242C344.764 32.242 344.026 32.542 343.426 33.142C342.826 33.742 342.526 34.492 342.526 35.392ZM360.048 38.956C359.52 39.364 358.968 39.67 358.392 39.874C357.816 40.066 357.186 40.162 356.502 40.162C355.83 40.162 355.2 40.042 354.612 39.802C354.024 39.55 353.514 39.214 353.082 38.794C352.65 38.374 352.308 37.876 352.056 37.3C351.816 36.712 351.696 36.082 351.696 35.41C351.696 34.75 351.816 34.132 352.056 33.556C352.296 32.98 352.62 32.482 353.028 32.062C353.436 31.642 353.922 31.312 354.486 31.072C355.05 30.82 355.65 30.694 356.286 30.694C356.91 30.694 357.492 30.82 358.032 31.072C358.584 31.312 359.052 31.648 359.436 32.08C359.832 32.5 360.144 33.004 360.372 33.592C360.6 34.18 360.714 34.81 360.714 35.482V36.004H353.478C353.598 36.76 353.946 37.39 354.522 37.894C355.098 38.386 355.782 38.632 356.574 38.632C357.018 38.632 357.444 38.56 357.852 38.416C358.26 38.272 358.608 38.074 358.896 37.822L360.048 38.956ZM356.25 32.206C355.566 32.206 354.966 32.434 354.45 32.89C353.946 33.346 353.628 33.934 353.496 34.654H358.932C358.8 33.958 358.482 33.376 357.978 32.908C357.486 32.44 356.91 32.206 356.25 32.206ZM365.029 40L361.069 30.838H363.049L365.911 37.696L368.773 30.838H370.699L366.739 40H365.029ZM372.715 29.362C372.415 29.362 372.157 29.254 371.941 29.038C371.725 28.81 371.617 28.546 371.617 28.246C371.617 27.946 371.725 27.688 371.941 27.472C372.157 27.244 372.415 27.13 372.715 27.13C373.015 27.13 373.273 27.244 373.489 27.472C373.717 27.688 373.831 27.946 373.831 28.246C373.831 28.546 373.717 28.81 373.489 29.038C373.273 29.254 373.015 29.362 372.715 29.362ZM373.615 30.838V40H371.815V30.838H373.615ZM380.109 38.578C380.565 38.578 380.997 38.488 381.405 38.308C381.813 38.116 382.203 37.834 382.575 37.462L383.655 38.632C383.175 39.112 382.623 39.49 381.999 39.766C381.375 40.03 380.721 40.162 380.037 40.162C379.377 40.162 378.759 40.042 378.183 39.802C377.607 39.55 377.109 39.214 376.689 38.794C376.269 38.374 375.933 37.876 375.681 37.3C375.441 36.712 375.321 36.082 375.321 35.41C375.321 34.75 375.441 34.132 375.681 33.556C375.933 32.968 376.269 32.464 376.689 32.044C377.109 31.612 377.607 31.276 378.183 31.036C378.759 30.784 379.377 30.658 380.037 30.658C380.721 30.658 381.387 30.796 382.035 31.072C382.683 31.336 383.247 31.708 383.727 32.188L382.593 33.412C382.245 33.04 381.855 32.758 381.423 32.566C380.991 32.362 380.541 32.26 380.073 32.26C379.245 32.26 378.543 32.566 377.967 33.178C377.391 33.79 377.103 34.534 377.103 35.41C377.103 36.31 377.391 37.066 377.967 37.678C378.555 38.278 379.269 38.578 380.109 38.578ZM392.708 38.956C392.18 39.364 391.628 39.67 391.052 39.874C390.476 40.066 389.846 40.162 389.162 40.162C388.49 40.162 387.86 40.042 387.272 39.802C386.684 39.55 386.174 39.214 385.742 38.794C385.31 38.374 384.968 37.876 384.716 37.3C384.476 36.712 384.356 36.082 384.356 35.41C384.356 34.75 384.476 34.132 384.716 33.556C384.956 32.98 385.28 32.482 385.688 32.062C386.096 31.642 386.582 31.312 387.146 31.072C387.71 30.82 388.31 30.694 388.946 30.694C389.57 30.694 390.152 30.82 390.692 31.072C391.244 31.312 391.712 31.648 392.096 32.08C392.492 32.5 392.804 33.004 393.032 33.592C393.26 34.18 393.374 34.81 393.374 35.482V36.004H386.138C386.258 36.76 386.606 37.39 387.182 37.894C387.758 38.386 388.442 38.632 389.234 38.632C389.678 38.632 390.104 38.56 390.512 38.416C390.92 38.272 391.268 38.074 391.556 37.822L392.708 38.956ZM388.91 32.206C388.226 32.206 387.626 32.434 387.11 32.89C386.606 33.346 386.288 33.934 386.156 34.654H391.592C391.46 33.958 391.142 33.376 390.638 32.908C390.146 32.44 389.57 32.206 388.91 32.206ZM395.425 37.858C395.737 37.858 396.001 37.972 396.217 38.2C396.445 38.416 396.559 38.68 396.559 38.992C396.559 39.304 396.445 39.574 396.217 39.802C396.001 40.03 395.737 40.144 395.425 40.144C395.113 40.144 394.843 40.03 394.615 39.802C394.387 39.574 394.273 39.304 394.273 38.992C394.273 38.68 394.387 38.416 394.615 38.2C394.843 37.972 395.113 37.858 395.425 37.858Z" fill="#87879D"/>
</svg>
