<svg width="340" height="66" viewBox="0 0 340 66" fill="none" xmlns="http://www.w3.org/2000/svg">
<path d="M0.144 10.912L1.296 9.58C1.98 10.24 2.676 10.738 3.384 11.074C4.104 11.398 4.854 11.56 5.634 11.56C6.534 11.56 7.266 11.362 7.83 10.966C8.406 10.57 8.694 10.066 8.694 9.454C8.694 8.902 8.496 8.476 8.1 8.176C7.704 7.864 7.05 7.63 6.138 7.474L4.032 7.132C2.88 6.94 2.016 6.574 1.44 6.034C0.876 5.482 0.594 4.756 0.594 3.856C0.594 2.764 1.02 1.888 1.872 1.228C2.724 0.567999 3.846 0.237999 5.238 0.237999C6.138 0.237999 7.032 0.387999 7.92 0.688C8.808 0.976 9.606 1.396 10.314 1.948L9.27 3.388C8.586 2.872 7.902 2.488 7.218 2.236C6.534 1.972 5.844 1.84 5.148 1.84C4.332 1.84 3.672 2.014 3.168 2.362C2.664 2.71 2.412 3.16 2.412 3.712C2.412 4.228 2.586 4.624 2.934 4.9C3.282 5.164 3.858 5.362 4.662 5.494L6.696 5.818C8.016 6.034 8.988 6.43 9.612 7.006C10.248 7.57 10.566 8.338 10.566 9.31C10.566 9.886 10.446 10.414 10.206 10.894C9.966 11.374 9.624 11.782 9.18 12.118C8.748 12.454 8.22 12.718 7.596 12.91C6.972 13.09 6.288 13.18 5.544 13.18C4.536 13.18 3.564 12.982 2.628 12.586C1.692 12.19 0.864 11.632 0.144 10.912ZM12.9375 10.732V5.35H10.9935V3.838H12.9375V1.498L14.7195 1.066V3.838H17.4195V5.35H14.7195V10.318C14.7195 10.786 14.8215 11.116 15.0255 11.308C15.2415 11.5 15.5895 11.596 16.0695 11.596C16.3215 11.596 16.5435 11.584 16.7355 11.56C16.9395 11.524 17.1555 11.464 17.3835 11.38V12.892C17.1435 12.976 16.8615 13.042 16.5375 13.09C16.2255 13.138 15.9375 13.162 15.6735 13.162C14.7855 13.162 14.1075 12.958 13.6395 12.55C13.1715 12.13 12.9375 11.524 12.9375 10.732ZM21.6436 13.162C20.6476 13.162 19.8376 12.904 19.2136 12.388C18.5896 11.872 18.2776 11.2 18.2776 10.372C18.2776 9.508 18.6076 8.83 19.2676 8.338C19.9276 7.834 20.8336 7.582 21.9856 7.582C22.4296 7.582 22.8616 7.63 23.2816 7.726C23.7016 7.81 24.1036 7.93 24.4876 8.086V7.114C24.4876 6.466 24.2956 5.98 23.9116 5.656C23.5276 5.332 22.9756 5.17 22.2556 5.17C21.8356 5.17 21.3976 5.236 20.9416 5.368C20.4856 5.488 19.9756 5.68 19.4116 5.944L18.7456 4.594C19.4296 4.27 20.0776 4.036 20.6896 3.892C21.3016 3.736 21.9076 3.658 22.5076 3.658C23.6956 3.658 24.6136 3.946 25.2616 4.522C25.9216 5.086 26.2516 5.89 26.2516 6.934V13H24.4876V12.208C24.0796 12.532 23.6416 12.772 23.1736 12.928C22.7056 13.084 22.1956 13.162 21.6436 13.162ZM20.0056 10.336C20.0056 10.78 20.1916 11.14 20.5636 11.416C20.9476 11.692 21.4456 11.83 22.0576 11.83C22.5376 11.83 22.9816 11.758 23.3896 11.614C23.7976 11.47 24.1636 11.254 24.4876 10.966V9.382C24.1396 9.19 23.7736 9.052 23.3896 8.968C23.0056 8.872 22.5856 8.824 22.1296 8.824C21.4816 8.824 20.9656 8.962 20.5816 9.238C20.1976 9.514 20.0056 9.88 20.0056 10.336ZM30.4359 13.864L30.7959 13.036L27.1419 3.838H29.1219L31.8039 10.84L34.7559 3.838H36.6999L32.2719 14.098C31.8519 15.07 31.3719 15.766 30.8319 16.186C30.2919 16.618 29.6019 16.834 28.7619 16.834C28.5699 16.834 28.3899 16.822 28.2219 16.798C28.0659 16.786 27.9279 16.762 27.8079 16.726V15.142C27.9279 15.166 28.0479 15.184 28.1679 15.196C28.2999 15.208 28.4499 15.214 28.6179 15.214C29.0259 15.214 29.3799 15.1 29.6799 14.872C29.9919 14.656 30.2439 14.32 30.4359 13.864ZM45.9536 11.578C46.4096 11.578 46.8416 11.488 47.2496 11.308C47.6576 11.116 48.0476 10.834 48.4196 10.462L49.4996 11.632C49.0196 12.112 48.4676 12.49 47.8436 12.766C47.2196 13.03 46.5656 13.162 45.8816 13.162C45.2216 13.162 44.6036 13.042 44.0276 12.802C43.4516 12.55 42.9536 12.214 42.5336 11.794C42.1136 11.374 41.7776 10.876 41.5256 10.3C41.2856 9.712 41.1656 9.082 41.1656 8.41C41.1656 7.75 41.2856 7.132 41.5256 6.556C41.7776 5.968 42.1136 5.464 42.5336 5.044C42.9536 4.612 43.4516 4.276 44.0276 4.036C44.6036 3.784 45.2216 3.658 45.8816 3.658C46.5656 3.658 47.2316 3.796 47.8796 4.072C48.5276 4.336 49.0916 4.708 49.5716 5.188L48.4376 6.412C48.0896 6.04 47.6996 5.758 47.2676 5.566C46.8356 5.362 46.3856 5.26 45.9176 5.26C45.0896 5.26 44.3876 5.566 43.8116 6.178C43.2356 6.79 42.9476 7.534 42.9476 8.41C42.9476 9.31 43.2356 10.066 43.8116 10.678C44.3996 11.278 45.1136 11.578 45.9536 11.578ZM50.2007 8.41C50.2007 7.75 50.3207 7.132 50.5607 6.556C50.8127 5.968 51.1547 5.464 51.5867 5.044C52.0187 4.612 52.5227 4.276 53.0987 4.036C53.6867 3.784 54.3107 3.658 54.9707 3.658C55.6307 3.658 56.2487 3.784 56.8247 4.036C57.4127 4.276 57.9167 4.612 58.3367 5.044C58.7687 5.464 59.1047 5.968 59.3447 6.556C59.5967 7.132 59.7227 7.75 59.7227 8.41C59.7227 9.082 59.5967 9.712 59.3447 10.3C59.1047 10.876 58.7687 11.38 58.3367 11.812C57.9167 12.232 57.4127 12.568 56.8247 12.82C56.2487 13.06 55.6307 13.18 54.9707 13.18C54.3107 13.18 53.6867 13.06 53.0987 12.82C52.5227 12.568 52.0187 12.232 51.5867 11.812C51.1547 11.38 50.8127 10.876 50.5607 10.3C50.3207 9.712 50.2007 9.082 50.2007 8.41ZM54.9707 11.596C55.7987 11.596 56.5007 11.29 57.0767 10.678C57.6647 10.054 57.9587 9.298 57.9587 8.41C57.9587 7.522 57.6647 6.772 57.0767 6.16C56.5007 5.548 55.7987 5.242 54.9707 5.242C54.1427 5.242 53.4347 5.548 52.8467 6.16C52.2587 6.772 51.9647 7.522 51.9647 8.41C51.9647 9.298 52.2527 10.054 52.8287 10.678C53.4167 11.29 54.1307 11.596 54.9707 11.596ZM61.4253 13V3.838H63.2253V4.756C63.5853 4.396 63.9933 4.126 64.4493 3.946C64.9173 3.754 65.4273 3.658 65.9793 3.658C67.0233 3.658 67.8813 3.994 68.5533 4.666C69.2253 5.326 69.5613 6.184 69.5613 7.24V13H67.7613V7.546C67.7613 6.826 67.5513 6.262 67.1313 5.854C66.7233 5.434 66.1773 5.224 65.4933 5.224C65.0133 5.224 64.5753 5.326 64.1793 5.53C63.7953 5.734 63.4773 6.028 63.2253 6.412V13H61.4253ZM71.6382 13V3.838H73.4382V4.756C73.7982 4.396 74.2062 4.126 74.6622 3.946C75.1302 3.754 75.6402 3.658 76.1922 3.658C77.2362 3.658 78.0942 3.994 78.7662 4.666C79.4382 5.326 79.7742 6.184 79.7742 7.24V13H77.9742V7.546C77.9742 6.826 77.7642 6.262 77.3442 5.854C76.9362 5.434 76.3902 5.224 75.7062 5.224C75.2262 5.224 74.7882 5.326 74.3922 5.53C74.0082 5.734 73.6902 6.028 73.4382 6.412V13H71.6382ZM89.7891 11.956C89.2611 12.364 88.7091 12.67 88.1331 12.874C87.5571 13.066 86.9271 13.162 86.2431 13.162C85.5711 13.162 84.9411 13.042 84.3531 12.802C83.7651 12.55 83.2551 12.214 82.8231 11.794C82.3911 11.374 82.0491 10.876 81.7971 10.3C81.5571 9.712 81.4371 9.082 81.4371 8.41C81.4371 7.75 81.5571 7.132 81.7971 6.556C82.0371 5.98 82.3611 5.482 82.7691 5.062C83.1771 4.642 83.6631 4.312 84.2271 4.072C84.7911 3.82 85.3911 3.694 86.0271 3.694C86.6511 3.694 87.2331 3.82 87.7731 4.072C88.3251 4.312 88.7931 4.648 89.1771 5.08C89.5731 5.5 89.8851 6.004 90.1131 6.592C90.3411 7.18 90.4551 7.81 90.4551 8.482V9.004H83.2191C83.3391 9.76 83.6871 10.39 84.2631 10.894C84.8391 11.386 85.5231 11.632 86.3151 11.632C86.7591 11.632 87.1851 11.56 87.5931 11.416C88.0011 11.272 88.3491 11.074 88.6371 10.822L89.7891 11.956ZM85.9911 5.206C85.3071 5.206 84.7071 5.434 84.1911 5.89C83.6871 6.346 83.3691 6.934 83.2371 7.654H88.6731C88.5411 6.958 88.2231 6.376 87.7191 5.908C87.2271 5.44 86.6511 5.206 85.9911 5.206ZM96.5786 11.578C97.0346 11.578 97.4666 11.488 97.8746 11.308C98.2826 11.116 98.6726 10.834 99.0446 10.462L100.125 11.632C99.6446 12.112 99.0926 12.49 98.4686 12.766C97.8446 13.03 97.1906 13.162 96.5066 13.162C95.8466 13.162 95.2286 13.042 94.6526 12.802C94.0766 12.55 93.5786 12.214 93.1586 11.794C92.7386 11.374 92.4026 10.876 92.1506 10.3C91.9106 9.712 91.7906 9.082 91.7906 8.41C91.7906 7.75 91.9106 7.132 92.1506 6.556C92.4026 5.968 92.7386 5.464 93.1586 5.044C93.5786 4.612 94.0766 4.276 94.6526 4.036C95.2286 3.784 95.8466 3.658 96.5066 3.658C97.1906 3.658 97.8566 3.796 98.5046 4.072C99.1526 4.336 99.7166 4.708 100.197 5.188L99.0626 6.412C98.7146 6.04 98.3246 5.758 97.8926 5.566C97.4606 5.362 97.0106 5.26 96.5426 5.26C95.7146 5.26 95.0126 5.566 94.4366 6.178C93.8606 6.79 93.5726 7.534 93.5726 8.41C93.5726 9.31 93.8606 10.066 94.4366 10.678C95.0246 11.278 95.7386 11.578 96.5786 11.578ZM102.955 10.732V5.35H101.011V3.838H102.955V1.498L104.737 1.066V3.838H107.437V5.35H104.737V10.318C104.737 10.786 104.839 11.116 105.043 11.308C105.259 11.5 105.607 11.596 106.087 11.596C106.339 11.596 106.561 11.584 106.753 11.56C106.957 11.524 107.173 11.464 107.401 11.38V12.892C107.161 12.976 106.879 13.042 106.555 13.09C106.243 13.138 105.955 13.162 105.691 13.162C104.803 13.162 104.125 12.958 103.657 12.55C103.189 12.13 102.955 11.524 102.955 10.732ZM116.508 11.956C115.98 12.364 115.428 12.67 114.852 12.874C114.276 13.066 113.646 13.162 112.962 13.162C112.29 13.162 111.66 13.042 111.072 12.802C110.484 12.55 109.974 12.214 109.542 11.794C109.11 11.374 108.768 10.876 108.516 10.3C108.276 9.712 108.156 9.082 108.156 8.41C108.156 7.75 108.276 7.132 108.516 6.556C108.756 5.98 109.08 5.482 109.488 5.062C109.896 4.642 110.382 4.312 110.946 4.072C111.51 3.82 112.11 3.694 112.746 3.694C113.37 3.694 113.952 3.82 114.492 4.072C115.044 4.312 115.512 4.648 115.896 5.08C116.292 5.5 116.604 6.004 116.832 6.592C117.06 7.18 117.174 7.81 117.174 8.482V9.004H109.938C110.058 9.76 110.406 10.39 110.982 10.894C111.558 11.386 112.242 11.632 113.034 11.632C113.478 11.632 113.904 11.56 114.312 11.416C114.72 11.272 115.068 11.074 115.356 10.822L116.508 11.956ZM112.71 5.206C112.026 5.206 111.426 5.434 110.91 5.89C110.406 6.346 110.088 6.934 109.956 7.654H115.392C115.26 6.958 114.942 6.376 114.438 5.908C113.946 5.44 113.37 5.206 112.71 5.206ZM125.943 13V12.136C125.559 12.46 125.127 12.712 124.647 12.892C124.167 13.06 123.663 13.144 123.135 13.144C122.487 13.144 121.881 13.024 121.317 12.784C120.753 12.532 120.261 12.196 119.841 11.776C119.433 11.356 119.109 10.858 118.869 10.282C118.629 9.694 118.509 9.07 118.509 8.41C118.509 7.75 118.629 7.132 118.869 6.556C119.109 5.98 119.433 5.482 119.841 5.062C120.261 4.642 120.759 4.312 121.335 4.072C121.911 3.82 122.523 3.694 123.171 3.694C123.675 3.694 124.161 3.772 124.629 3.928C125.097 4.084 125.529 4.306 125.925 4.594V0.399999L127.725 0.00399888V13H125.943ZM120.273 8.392C120.273 9.292 120.573 10.048 121.173 10.66C121.773 11.272 122.511 11.578 123.387 11.578C123.903 11.578 124.377 11.482 124.809 11.29C125.253 11.098 125.625 10.828 125.925 10.48V6.322C125.625 5.986 125.253 5.722 124.809 5.53C124.365 5.338 123.891 5.242 123.387 5.242C122.511 5.242 121.773 5.542 121.173 6.142C120.573 6.742 120.273 7.492 120.273 8.392ZM137.075 13H135.329L132.773 3.838H134.519L136.283 10.57L138.389 3.838H139.937L142.025 10.57L143.807 3.838H145.499L142.925 13H141.197L139.145 6.286L137.075 13ZM147.685 2.362C147.385 2.362 147.127 2.254 146.911 2.038C146.695 1.81 146.587 1.546 146.587 1.246C146.587 0.945999 146.695 0.687999 146.911 0.471999C147.127 0.243999 147.385 0.129999 147.685 0.129999C147.985 0.129999 148.243 0.243999 148.459 0.471999C148.687 0.687999 148.801 0.945999 148.801 1.246C148.801 1.546 148.687 1.81 148.459 2.038C148.243 2.254 147.985 2.362 147.685 2.362ZM148.585 3.838V13H146.785V3.838H148.585ZM151.893 10.732V5.35H149.949V3.838H151.893V1.498L153.675 1.066V3.838H156.375V5.35H153.675V10.318C153.675 10.786 153.777 11.116 153.981 11.308C154.197 11.5 154.545 11.596 155.025 11.596C155.277 11.596 155.499 11.584 155.691 11.56C155.895 11.524 156.111 11.464 156.339 11.38V12.892C156.099 12.976 155.817 13.042 155.493 13.09C155.181 13.138 154.893 13.162 154.629 13.162C153.741 13.162 153.063 12.958 152.595 12.55C152.127 12.13 151.893 11.524 151.893 10.732ZM157.701 13V0.399999L159.501 0.00399888V4.756C159.861 4.396 160.269 4.126 160.725 3.946C161.193 3.754 161.703 3.658 162.255 3.658C163.299 3.658 164.157 3.994 164.829 4.666C165.501 5.326 165.837 6.184 165.837 7.24V13H164.037V7.546C164.037 6.826 163.827 6.262 163.407 5.854C162.999 5.434 162.453 5.224 161.769 5.224C161.289 5.224 160.851 5.326 160.455 5.53C160.071 5.734 159.753 6.028 159.501 6.412V13H157.701ZM171.675 13V3.838H173.475V5.008C173.751 4.564 174.105 4.228 174.537 4C174.969 3.76 175.455 3.64 175.995 3.64C176.187 3.64 176.355 3.652 176.499 3.676C176.643 3.7 176.781 3.736 176.913 3.784V5.404C176.745 5.344 176.571 5.296 176.391 5.26C176.211 5.224 176.031 5.206 175.851 5.206C175.323 5.206 174.849 5.35 174.429 5.638C174.021 5.914 173.703 6.328 173.475 6.88V13H171.675ZM185.73 11.956C185.202 12.364 184.65 12.67 184.074 12.874C183.498 13.066 182.868 13.162 182.184 13.162C181.512 13.162 180.882 13.042 180.294 12.802C179.706 12.55 179.196 12.214 178.764 11.794C178.332 11.374 177.99 10.876 177.738 10.3C177.498 9.712 177.378 9.082 177.378 8.41C177.378 7.75 177.498 7.132 177.738 6.556C177.978 5.98 178.302 5.482 178.71 5.062C179.118 4.642 179.604 4.312 180.168 4.072C180.732 3.82 181.332 3.694 181.968 3.694C182.592 3.694 183.174 3.82 183.714 4.072C184.266 4.312 184.734 4.648 185.118 5.08C185.514 5.5 185.826 6.004 186.054 6.592C186.282 7.18 186.396 7.81 186.396 8.482V9.004H179.16C179.28 9.76 179.628 10.39 180.204 10.894C180.78 11.386 181.464 11.632 182.256 11.632C182.7 11.632 183.126 11.56 183.534 11.416C183.942 11.272 184.29 11.074 184.578 10.822L185.73 11.956ZM181.932 5.206C181.248 5.206 180.648 5.434 180.132 5.89C179.628 6.346 179.31 6.934 179.178 7.654H184.614C184.482 6.958 184.164 6.376 183.66 5.908C183.168 5.44 182.592 5.206 181.932 5.206ZM189.911 0.00399888V13H188.111V0.399999L189.911 0.00399888ZM192.931 2.362C192.631 2.362 192.373 2.254 192.157 2.038C191.941 1.81 191.833 1.546 191.833 1.246C191.833 0.945999 191.941 0.687999 192.157 0.471999C192.373 0.243999 192.631 0.129999 192.931 0.129999C193.231 0.129999 193.489 0.243999 193.705 0.471999C193.933 0.687999 194.047 0.945999 194.047 1.246C194.047 1.546 193.933 1.81 193.705 2.038C193.489 2.254 193.231 2.362 192.931 2.362ZM193.831 3.838V13H192.031V3.838H193.831ZM198.849 13.162C197.853 13.162 197.043 12.904 196.419 12.388C195.795 11.872 195.483 11.2 195.483 10.372C195.483 9.508 195.813 8.83 196.473 8.338C197.133 7.834 198.039 7.582 199.191 7.582C199.635 7.582 200.067 7.63 200.487 7.726C200.907 7.81 201.309 7.93 201.693 8.086V7.114C201.693 6.466 201.501 5.98 201.117 5.656C200.733 5.332 200.181 5.17 199.461 5.17C199.041 5.17 198.603 5.236 198.147 5.368C197.691 5.488 197.181 5.68 196.617 5.944L195.951 4.594C196.635 4.27 197.283 4.036 197.895 3.892C198.507 3.736 199.113 3.658 199.713 3.658C200.901 3.658 201.819 3.946 202.467 4.522C203.127 5.086 203.457 5.89 203.457 6.934V13H201.693V12.208C201.285 12.532 200.847 12.772 200.379 12.928C199.911 13.084 199.401 13.162 198.849 13.162ZM197.211 10.336C197.211 10.78 197.397 11.14 197.769 11.416C198.153 11.692 198.651 11.83 199.263 11.83C199.743 11.83 200.187 11.758 200.595 11.614C201.003 11.47 201.369 11.254 201.693 10.966V9.382C201.345 9.19 200.979 9.052 200.595 8.968C200.211 8.872 199.791 8.824 199.335 8.824C198.687 8.824 198.171 8.962 197.787 9.238C197.403 9.514 197.211 9.88 197.211 10.336ZM214.747 8.41C214.747 9.07 214.627 9.694 214.387 10.282C214.147 10.858 213.817 11.356 213.397 11.776C212.989 12.196 212.497 12.532 211.921 12.784C211.345 13.024 210.733 13.144 210.085 13.144C209.569 13.144 209.077 13.066 208.609 12.91C208.141 12.754 207.709 12.526 207.313 12.226V13H205.531V0.399999L207.331 0.00399888V4.702C207.703 4.378 208.129 4.132 208.609 3.964C209.089 3.784 209.593 3.694 210.121 3.694C210.769 3.694 211.375 3.82 211.939 4.072C212.503 4.312 212.989 4.642 213.397 5.062C213.817 5.482 214.147 5.98 214.387 6.556C214.627 7.132 214.747 7.75 214.747 8.41ZM209.887 5.26C209.371 5.26 208.891 5.356 208.447 5.548C208.003 5.74 207.631 6.01 207.331 6.358V10.498C207.619 10.834 207.985 11.098 208.429 11.29C208.885 11.482 209.371 11.578 209.887 11.578C210.763 11.578 211.495 11.278 212.083 10.678C212.683 10.078 212.983 9.328 212.983 8.428C212.983 7.528 212.683 6.778 212.083 6.178C211.483 5.566 210.751 5.26 209.887 5.26ZM218.264 0.00399888V13H216.464V0.399999L218.264 0.00399888ZM228.322 11.956C227.794 12.364 227.242 12.67 226.666 12.874C226.09 13.066 225.46 13.162 224.776 13.162C224.104 13.162 223.474 13.042 222.886 12.802C222.298 12.55 221.788 12.214 221.356 11.794C220.924 11.374 220.582 10.876 220.33 10.3C220.09 9.712 219.97 9.082 219.97 8.41C219.97 7.75 220.09 7.132 220.33 6.556C220.57 5.98 220.894 5.482 221.302 5.062C221.71 4.642 222.196 4.312 222.76 4.072C223.324 3.82 223.924 3.694 224.56 3.694C225.184 3.694 225.766 3.82 226.306 4.072C226.858 4.312 227.326 4.648 227.71 5.08C228.106 5.5 228.418 6.004 228.646 6.592C228.874 7.18 228.988 7.81 228.988 8.482V9.004H221.752C221.872 9.76 222.22 10.39 222.796 10.894C223.372 11.386 224.056 11.632 224.848 11.632C225.292 11.632 225.718 11.56 226.126 11.416C226.534 11.272 226.882 11.074 227.17 10.822L228.322 11.956ZM224.524 5.206C223.84 5.206 223.24 5.434 222.724 5.89C222.22 6.346 221.902 6.934 221.77 7.654H227.206C227.074 6.958 226.756 6.376 226.252 5.908C225.76 5.44 225.184 5.206 224.524 5.206ZM234.68 13V0.399999H236.57V5.8H243.266V0.399999H245.156V13H243.266V7.51H236.57V13H234.68ZM247.723 13V0.399999H252.169C253.117 0.399999 253.993 0.561999 254.797 0.885999C255.613 1.198 256.315 1.636 256.903 2.2C257.503 2.752 257.971 3.418 258.307 4.198C258.643 4.978 258.811 5.818 258.811 6.718C258.811 7.618 258.643 8.452 258.307 9.22C257.971 9.988 257.509 10.654 256.921 11.218C256.333 11.77 255.631 12.208 254.815 12.532C253.999 12.844 253.117 13 252.169 13H247.723ZM252.205 2.092H249.613V11.308H252.205C252.853 11.308 253.465 11.194 254.041 10.966C254.617 10.726 255.109 10.402 255.517 9.994C255.937 9.574 256.267 9.088 256.507 8.536C256.747 7.972 256.867 7.366 256.867 6.718C256.867 6.07 256.747 5.464 256.507 4.9C256.267 4.324 255.937 3.832 255.517 3.424C255.109 3.004 254.617 2.68 254.041 2.452C253.465 2.212 252.853 2.092 252.205 2.092ZM264.365 13V3.838H266.165V4.702C266.501 4.366 266.885 4.108 267.317 3.928C267.749 3.748 268.223 3.658 268.739 3.658C269.351 3.658 269.903 3.796 270.395 4.072C270.887 4.336 271.277 4.708 271.565 5.188C271.937 4.684 272.381 4.306 272.897 4.054C273.425 3.79 274.013 3.658 274.661 3.658C275.669 3.658 276.491 3.994 277.127 4.666C277.775 5.326 278.099 6.184 278.099 7.24V13H276.299V7.546C276.299 6.826 276.107 6.262 275.723 5.854C275.351 5.434 274.841 5.224 274.193 5.224C273.749 5.224 273.347 5.326 272.987 5.53C272.627 5.734 272.315 6.04 272.051 6.448C272.075 6.568 272.093 6.7 272.105 6.844C272.117 6.976 272.123 7.108 272.123 7.24V13H270.341V7.546C270.341 6.826 270.149 6.262 269.765 5.854C269.393 5.434 268.883 5.224 268.235 5.224C267.803 5.224 267.413 5.32 267.065 5.512C266.717 5.692 266.417 5.968 266.165 6.34V13H264.365ZM288.105 11.956C287.577 12.364 287.025 12.67 286.449 12.874C285.873 13.066 285.243 13.162 284.559 13.162C283.887 13.162 283.257 13.042 282.669 12.802C282.081 12.55 281.571 12.214 281.139 11.794C280.707 11.374 280.365 10.876 280.113 10.3C279.873 9.712 279.753 9.082 279.753 8.41C279.753 7.75 279.873 7.132 280.113 6.556C280.353 5.98 280.677 5.482 281.085 5.062C281.493 4.642 281.979 4.312 282.543 4.072C283.107 3.82 283.707 3.694 284.343 3.694C284.967 3.694 285.549 3.82 286.089 4.072C286.641 4.312 287.109 4.648 287.493 5.08C287.889 5.5 288.201 6.004 288.429 6.592C288.657 7.18 288.771 7.81 288.771 8.482V9.004H281.535C281.655 9.76 282.003 10.39 282.579 10.894C283.155 11.386 283.839 11.632 284.631 11.632C285.075 11.632 285.501 11.56 285.909 11.416C286.317 11.272 286.665 11.074 286.953 10.822L288.105 11.956ZM284.307 5.206C283.623 5.206 283.023 5.434 282.507 5.89C282.003 6.346 281.685 6.934 281.553 7.654H286.989C286.857 6.958 286.539 6.376 286.035 5.908C285.543 5.44 284.967 5.206 284.307 5.206ZM298.459 11.956C297.931 12.364 297.379 12.67 296.803 12.874C296.227 13.066 295.597 13.162 294.913 13.162C294.241 13.162 293.611 13.042 293.023 12.802C292.435 12.55 291.925 12.214 291.493 11.794C291.061 11.374 290.719 10.876 290.467 10.3C290.227 9.712 290.107 9.082 290.107 8.41C290.107 7.75 290.227 7.132 290.467 6.556C290.707 5.98 291.031 5.482 291.439 5.062C291.847 4.642 292.333 4.312 292.897 4.072C293.461 3.82 294.061 3.694 294.697 3.694C295.321 3.694 295.903 3.82 296.443 4.072C296.995 4.312 297.463 4.648 297.847 5.08C298.243 5.5 298.555 6.004 298.783 6.592C299.011 7.18 299.125 7.81 299.125 8.482V9.004H291.889C292.009 9.76 292.357 10.39 292.933 10.894C293.509 11.386 294.193 11.632 294.985 11.632C295.429 11.632 295.855 11.56 296.263 11.416C296.671 11.272 297.019 11.074 297.307 10.822L298.459 11.956ZM294.661 5.206C293.977 5.206 293.377 5.434 292.861 5.89C292.357 6.346 292.039 6.934 291.907 7.654H297.343C297.211 6.958 296.893 6.376 296.389 5.908C295.897 5.44 295.321 5.206 294.661 5.206ZM301.676 10.732V5.35H299.732V3.838H301.676V1.498L303.458 1.066V3.838H306.158V5.35H303.458V10.318C303.458 10.786 303.56 11.116 303.764 11.308C303.98 11.5 304.328 11.596 304.808 11.596C305.06 11.596 305.282 11.584 305.474 11.56C305.678 11.524 305.894 11.464 306.122 11.38V12.892C305.882 12.976 305.6 13.042 305.276 13.09C304.964 13.138 304.676 13.162 304.412 13.162C303.524 13.162 302.846 12.958 302.378 12.55C301.91 12.13 301.676 11.524 301.676 10.732ZM308.384 2.362C308.084 2.362 307.826 2.254 307.61 2.038C307.394 1.81 307.286 1.546 307.286 1.246C307.286 0.945999 307.394 0.687999 307.61 0.471999C307.826 0.243999 308.084 0.129999 308.384 0.129999C308.684 0.129999 308.942 0.243999 309.158 0.471999C309.386 0.687999 309.5 0.945999 309.5 1.246C309.5 1.546 309.386 1.81 309.158 2.038C308.942 2.254 308.684 2.362 308.384 2.362ZM309.284 3.838V13H307.484V3.838H309.284ZM311.404 13V3.838H313.204V4.756C313.564 4.396 313.972 4.126 314.428 3.946C314.896 3.754 315.406 3.658 315.958 3.658C317.002 3.658 317.86 3.994 318.532 4.666C319.204 5.326 319.54 6.184 319.54 7.24V13H317.74V7.546C317.74 6.826 317.53 6.262 317.11 5.854C316.702 5.434 316.156 5.224 315.472 5.224C314.992 5.224 314.554 5.326 314.158 5.53C313.774 5.734 313.456 6.028 313.204 6.412V13H311.404ZM325.811 13.072C325.175 13.072 324.575 12.952 324.011 12.712C323.447 12.46 322.955 12.124 322.535 11.704C322.127 11.284 321.803 10.786 321.563 10.21C321.323 9.634 321.203 9.022 321.203 8.374C321.203 7.726 321.323 7.114 321.563 6.538C321.803 5.962 322.127 5.464 322.535 5.044C322.955 4.624 323.447 4.294 324.011 4.054C324.587 3.802 325.199 3.676 325.847 3.676C326.339 3.676 326.813 3.754 327.269 3.91C327.737 4.066 328.169 4.294 328.565 4.594V3.838H330.347V13.126C330.347 14.314 329.981 15.226 329.249 15.862C328.529 16.51 327.497 16.834 326.153 16.834C325.493 16.834 324.839 16.756 324.191 16.6C323.555 16.444 322.979 16.222 322.463 15.934L323.165 14.53C323.681 14.794 324.179 14.992 324.659 15.124C325.139 15.256 325.619 15.322 326.099 15.322C326.891 15.322 327.497 15.136 327.917 14.764C328.337 14.392 328.547 13.846 328.547 13.126V12.1C328.163 12.412 327.737 12.652 327.269 12.82C326.801 12.988 326.315 13.072 325.811 13.072ZM322.967 8.374C322.967 9.25 323.261 9.994 323.849 10.606C324.437 11.206 325.163 11.506 326.027 11.506C326.543 11.506 327.017 11.416 327.449 11.236C327.881 11.044 328.247 10.78 328.547 10.444V6.304C328.259 5.968 327.893 5.71 327.449 5.53C327.017 5.338 326.543 5.242 326.027 5.242C325.163 5.242 324.437 5.548 323.849 6.16C323.261 6.76 322.967 7.498 322.967 8.374ZM331.598 11.812L332.57 10.624C333.05 10.996 333.536 11.284 334.028 11.488C334.532 11.68 335.042 11.776 335.558 11.776C336.206 11.776 336.734 11.65 337.142 11.398C337.55 11.146 337.754 10.816 337.754 10.408C337.754 10.084 337.634 9.826 337.394 9.634C337.154 9.442 336.782 9.31 336.278 9.238L334.622 9.004C333.722 8.872 333.038 8.596 332.57 8.176C332.114 7.744 331.886 7.174 331.886 6.466C331.886 5.638 332.216 4.972 332.876 4.468C333.536 3.952 334.4 3.694 335.468 3.694C336.14 3.694 336.776 3.79 337.376 3.982C337.988 4.174 338.582 4.468 339.158 4.864L338.24 6.052C337.736 5.716 337.244 5.476 336.764 5.332C336.296 5.176 335.822 5.098 335.342 5.098C334.79 5.098 334.346 5.212 334.01 5.44C333.674 5.668 333.506 5.968 333.506 6.34C333.506 6.676 333.62 6.934 333.848 7.114C334.088 7.282 334.478 7.408 335.018 7.492L336.674 7.726C337.574 7.858 338.258 8.14 338.726 8.572C339.206 9.004 339.446 9.574 339.446 10.282C339.446 10.69 339.344 11.074 339.14 11.434C338.948 11.782 338.678 12.082 338.33 12.334C337.994 12.586 337.592 12.79 337.124 12.946C336.656 13.09 336.152 13.162 335.612 13.162C334.82 13.162 334.076 13.048 333.38 12.82C332.696 12.592 332.102 12.256 331.598 11.812ZM3.96 39.162C2.964 39.162 2.154 38.904 1.53 38.388C0.906 37.872 0.594 37.2 0.594 36.372C0.594 35.508 0.924 34.83 1.584 34.338C2.244 33.834 3.15 33.582 4.302 33.582C4.746 33.582 5.178 33.63 5.598 33.726C6.018 33.81 6.42 33.93 6.804 34.086V33.114C6.804 32.466 6.612 31.98 6.228 31.656C5.844 31.332 5.292 31.17 4.572 31.17C4.152 31.17 3.714 31.236 3.258 31.368C2.802 31.488 2.292 31.68 1.728 31.944L1.062 30.594C1.746 30.27 2.394 30.036 3.006 29.892C3.618 29.736 4.224 29.658 4.824 29.658C6.012 29.658 6.93 29.946 7.578 30.522C8.238 31.086 8.568 31.89 8.568 32.934V39H6.804V38.208C6.396 38.532 5.958 38.772 5.49 38.928C5.022 39.084 4.512 39.162 3.96 39.162ZM2.322 36.336C2.322 36.78 2.508 37.14 2.88 37.416C3.264 37.692 3.762 37.83 4.374 37.83C4.854 37.83 5.298 37.758 5.706 37.614C6.114 37.47 6.48 37.254 6.804 36.966V35.382C6.456 35.19 6.09 35.052 5.706 34.968C5.322 34.872 4.902 34.824 4.446 34.824C3.798 34.824 3.282 34.962 2.898 35.238C2.514 35.514 2.322 35.88 2.322 36.336ZM10.6421 39V29.838H12.4421V30.756C12.8021 30.396 13.2101 30.126 13.6661 29.946C14.1341 29.754 14.6441 29.658 15.1961 29.658C16.2401 29.658 17.0981 29.994 17.7701 30.666C18.4421 31.326 18.7781 32.184 18.7781 33.24V39H16.9781V33.546C16.9781 32.826 16.7681 32.262 16.3481 31.854C15.9401 31.434 15.3941 31.224 14.7101 31.224C14.2301 31.224 13.7921 31.326 13.3961 31.53C13.0121 31.734 12.6941 32.028 12.4421 32.412V39H10.6421ZM27.875 39V38.136C27.491 38.46 27.059 38.712 26.579 38.892C26.099 39.06 25.595 39.144 25.067 39.144C24.419 39.144 23.813 39.024 23.249 38.784C22.685 38.532 22.193 38.196 21.773 37.776C21.365 37.356 21.041 36.858 20.801 36.282C20.561 35.694 20.441 35.07 20.441 34.41C20.441 33.75 20.561 33.132 20.801 32.556C21.041 31.98 21.365 31.482 21.773 31.062C22.193 30.642 22.691 30.312 23.267 30.072C23.843 29.82 24.455 29.694 25.103 29.694C25.607 29.694 26.093 29.772 26.561 29.928C27.029 30.084 27.461 30.306 27.857 30.594V26.4L29.657 26.004V39H27.875ZM22.205 34.392C22.205 35.292 22.505 36.048 23.105 36.66C23.705 37.272 24.443 37.578 25.319 37.578C25.835 37.578 26.309 37.482 26.741 37.29C27.185 37.098 27.557 36.828 27.857 36.48V32.322C27.557 31.986 27.185 31.722 26.741 31.53C26.297 31.338 25.823 31.242 25.319 31.242C24.443 31.242 23.705 31.542 23.105 32.142C22.505 32.742 22.205 33.492 22.205 34.392ZM37.3143 29.838V35.274C37.3143 35.994 37.5183 36.564 37.9263 36.984C38.3463 37.404 38.8983 37.614 39.5823 37.614C40.0623 37.614 40.4943 37.512 40.8783 37.308C41.2623 37.092 41.5803 36.792 41.8323 36.408V29.838H43.6323V39H41.8323V38.082C41.4723 38.442 41.0583 38.718 40.5903 38.91C40.1343 39.09 39.6303 39.18 39.0783 39.18C38.0343 39.18 37.1763 38.844 36.5043 38.172C35.8443 37.5 35.5143 36.636 35.5143 35.58V29.838H37.3143ZM45.7632 39V29.838H47.5632V30.756C47.9232 30.396 48.3312 30.126 48.7872 29.946C49.2552 29.754 49.7652 29.658 50.3172 29.658C51.3612 29.658 52.2192 29.994 52.8912 30.666C53.5632 31.326 53.8992 32.184 53.8992 33.24V39H52.0992V33.546C52.0992 32.826 51.8892 32.262 51.4692 31.854C51.0612 31.434 50.5152 31.224 49.8312 31.224C49.3512 31.224 48.9132 31.326 48.5172 31.53C48.1332 31.734 47.8152 32.028 47.5632 32.412V39H45.7632ZM57.7761 26.004V39H55.9761V26.4L57.7761 26.004ZM60.796 28.362C60.496 28.362 60.238 28.254 60.022 28.038C59.806 27.81 59.698 27.546 59.698 27.246C59.698 26.946 59.806 26.688 60.022 26.472C60.238 26.244 60.496 26.13 60.796 26.13C61.096 26.13 61.354 26.244 61.57 26.472C61.798 26.688 61.912 26.946 61.912 27.246C61.912 27.546 61.798 27.81 61.57 28.038C61.354 28.254 61.096 28.362 60.796 28.362ZM61.696 29.838V39H59.896V29.838H61.696ZM63.8159 39V29.838H65.6159V30.702C65.9519 30.366 66.3359 30.108 66.7679 29.928C67.1999 29.748 67.6739 29.658 68.1899 29.658C68.8019 29.658 69.3539 29.796 69.8459 30.072C70.3379 30.336 70.7279 30.708 71.0159 31.188C71.3879 30.684 71.8319 30.306 72.3479 30.054C72.8759 29.79 73.4639 29.658 74.1119 29.658C75.1199 29.658 75.9419 29.994 76.5779 30.666C77.2259 31.326 77.5499 32.184 77.5499 33.24V39H75.7499V33.546C75.7499 32.826 75.5579 32.262 75.1739 31.854C74.8019 31.434 74.2919 31.224 73.6439 31.224C73.1999 31.224 72.7979 31.326 72.4379 31.53C72.0779 31.734 71.7659 32.04 71.5019 32.448C71.5259 32.568 71.5439 32.7 71.5559 32.844C71.5679 32.976 71.5739 33.108 71.5739 33.24V39H69.7919V33.546C69.7919 32.826 69.5999 32.262 69.2159 31.854C68.8439 31.434 68.3339 31.224 67.6859 31.224C67.2539 31.224 66.8639 31.32 66.5159 31.512C66.1679 31.692 65.8679 31.968 65.6159 32.34V39H63.8159ZM80.5186 28.362C80.2186 28.362 79.9606 28.254 79.7446 28.038C79.5286 27.81 79.4206 27.546 79.4206 27.246C79.4206 26.946 79.5286 26.688 79.7446 26.472C79.9606 26.244 80.2186 26.13 80.5186 26.13C80.8186 26.13 81.0766 26.244 81.2926 26.472C81.5206 26.688 81.6346 26.946 81.6346 27.246C81.6346 27.546 81.5206 27.81 81.2926 28.038C81.0766 28.254 80.8186 28.362 80.5186 28.362ZM81.4186 29.838V39H79.6186V29.838H81.4186ZM84.7266 36.732V31.35H82.7826V29.838H84.7266V27.498L86.5086 27.066V29.838H89.2086V31.35H86.5086V36.318C86.5086 36.786 86.6106 37.116 86.8146 37.308C87.0306 37.5 87.3786 37.596 87.8586 37.596C88.1106 37.596 88.3326 37.584 88.5246 37.56C88.7286 37.524 88.9446 37.464 89.1726 37.38V38.892C88.9326 38.976 88.6506 39.042 88.3266 39.09C88.0146 39.138 87.7266 39.162 87.4626 39.162C86.5746 39.162 85.8966 38.958 85.4286 38.55C84.9606 38.13 84.7266 37.524 84.7266 36.732ZM98.2793 37.956C97.7513 38.364 97.1993 38.67 96.6233 38.874C96.0473 39.066 95.4173 39.162 94.7333 39.162C94.0613 39.162 93.4313 39.042 92.8433 38.802C92.2553 38.55 91.7453 38.214 91.3133 37.794C90.8813 37.374 90.5393 36.876 90.2873 36.3C90.0473 35.712 89.9273 35.082 89.9273 34.41C89.9273 33.75 90.0473 33.132 90.2873 32.556C90.5273 31.98 90.8513 31.482 91.2593 31.062C91.6673 30.642 92.1533 30.312 92.7173 30.072C93.2813 29.82 93.8813 29.694 94.5173 29.694C95.1413 29.694 95.7233 29.82 96.2633 30.072C96.8153 30.312 97.2833 30.648 97.6673 31.08C98.0633 31.5 98.3753 32.004 98.6033 32.592C98.8313 33.18 98.9453 33.81 98.9453 34.482V35.004H91.7093C91.8293 35.76 92.1773 36.39 92.7533 36.894C93.3293 37.386 94.0133 37.632 94.8053 37.632C95.2493 37.632 95.6753 37.56 96.0833 37.416C96.4913 37.272 96.8393 37.074 97.1273 36.822L98.2793 37.956ZM94.4813 31.206C93.7973 31.206 93.1973 31.434 92.6813 31.89C92.1773 32.346 91.8593 32.934 91.7273 33.654H97.1633C97.0313 32.958 96.7133 32.376 96.2093 31.908C95.7173 31.44 95.1413 31.206 94.4813 31.206ZM107.715 39V38.136C107.331 38.46 106.899 38.712 106.419 38.892C105.939 39.06 105.435 39.144 104.907 39.144C104.259 39.144 103.653 39.024 103.089 38.784C102.525 38.532 102.033 38.196 101.613 37.776C101.205 37.356 100.881 36.858 100.641 36.282C100.401 35.694 100.281 35.07 100.281 34.41C100.281 33.75 100.401 33.132 100.641 32.556C100.881 31.98 101.205 31.482 101.613 31.062C102.033 30.642 102.531 30.312 103.107 30.072C103.683 29.82 104.295 29.694 104.943 29.694C105.447 29.694 105.933 29.772 106.401 29.928C106.869 30.084 107.301 30.306 107.697 30.594V26.4L109.497 26.004V39H107.715ZM102.045 34.392C102.045 35.292 102.345 36.048 102.945 36.66C103.545 37.272 104.283 37.578 105.159 37.578C105.675 37.578 106.149 37.482 106.581 37.29C107.025 37.098 107.397 36.828 107.697 36.48V32.322C107.397 31.986 107.025 31.722 106.581 31.53C106.137 31.338 105.663 31.242 105.159 31.242C104.283 31.242 103.545 31.542 102.945 32.142C102.345 32.742 102.045 33.492 102.045 34.392ZM114.976 34.41C114.976 33.75 115.096 33.132 115.336 32.556C115.588 31.968 115.93 31.464 116.362 31.044C116.794 30.612 117.298 30.276 117.874 30.036C118.462 29.784 119.086 29.658 119.746 29.658C120.406 29.658 121.024 29.784 121.6 30.036C122.188 30.276 122.692 30.612 123.112 31.044C123.544 31.464 123.88 31.968 124.12 32.556C124.372 33.132 124.498 33.75 124.498 34.41C124.498 35.082 124.372 35.712 124.12 36.3C123.88 36.876 123.544 37.38 123.112 37.812C122.692 38.232 122.188 38.568 121.6 38.82C121.024 39.06 120.406 39.18 119.746 39.18C119.086 39.18 118.462 39.06 117.874 38.82C117.298 38.568 116.794 38.232 116.362 37.812C115.93 37.38 115.588 36.876 115.336 36.3C115.096 35.712 114.976 35.082 114.976 34.41ZM119.746 37.596C120.574 37.596 121.276 37.29 121.852 36.678C122.44 36.054 122.734 35.298 122.734 34.41C122.734 33.522 122.44 32.772 121.852 32.16C121.276 31.548 120.574 31.242 119.746 31.242C118.918 31.242 118.21 31.548 117.622 32.16C117.034 32.772 116.74 33.522 116.74 34.41C116.74 35.298 117.028 36.054 117.604 36.678C118.192 37.29 118.906 37.596 119.746 37.596ZM126.201 39V29.838H128.001V30.756C128.361 30.396 128.769 30.126 129.225 29.946C129.693 29.754 130.203 29.658 130.755 29.658C131.799 29.658 132.657 29.994 133.329 30.666C134.001 31.326 134.337 32.184 134.337 33.24V39H132.537V33.546C132.537 32.826 132.327 32.262 131.907 31.854C131.499 31.434 130.953 31.224 130.269 31.224C129.789 31.224 129.351 31.326 128.955 31.53C128.571 31.734 128.253 32.028 128.001 32.412V39H126.201ZM144.352 37.956C143.824 38.364 143.272 38.67 142.696 38.874C142.12 39.066 141.49 39.162 140.806 39.162C140.134 39.162 139.504 39.042 138.916 38.802C138.328 38.55 137.818 38.214 137.386 37.794C136.954 37.374 136.612 36.876 136.36 36.3C136.12 35.712 136 35.082 136 34.41C136 33.75 136.12 33.132 136.36 32.556C136.6 31.98 136.924 31.482 137.332 31.062C137.74 30.642 138.226 30.312 138.79 30.072C139.354 29.82 139.954 29.694 140.59 29.694C141.214 29.694 141.796 29.82 142.336 30.072C142.888 30.312 143.356 30.648 143.74 31.08C144.136 31.5 144.448 32.004 144.676 32.592C144.904 33.18 145.018 33.81 145.018 34.482V35.004H137.782C137.902 35.76 138.25 36.39 138.826 36.894C139.402 37.386 140.086 37.632 140.878 37.632C141.322 37.632 141.748 37.56 142.156 37.416C142.564 37.272 142.912 37.074 143.2 36.822L144.352 37.956ZM140.554 31.206C139.87 31.206 139.27 31.434 138.754 31.89C138.25 32.346 137.932 32.934 137.8 33.654H143.236C143.104 32.958 142.786 32.376 142.282 31.908C141.79 31.44 141.214 31.206 140.554 31.206ZM146.568 33.132H153.048V34.68H146.568V33.132ZM154.703 34.41C154.703 33.75 154.823 33.132 155.063 32.556C155.315 31.968 155.657 31.464 156.089 31.044C156.521 30.612 157.025 30.276 157.601 30.036C158.189 29.784 158.813 29.658 159.473 29.658C160.133 29.658 160.751 29.784 161.327 30.036C161.915 30.276 162.419 30.612 162.839 31.044C163.271 31.464 163.607 31.968 163.847 32.556C164.099 33.132 164.225 33.75 164.225 34.41C164.225 35.082 164.099 35.712 163.847 36.3C163.607 36.876 163.271 37.38 162.839 37.812C162.419 38.232 161.915 38.568 161.327 38.82C160.751 39.06 160.133 39.18 159.473 39.18C158.813 39.18 158.189 39.06 157.601 38.82C157.025 38.568 156.521 38.232 156.089 37.812C155.657 37.38 155.315 36.876 155.063 36.3C154.823 35.712 154.703 35.082 154.703 34.41ZM159.473 37.596C160.301 37.596 161.003 37.29 161.579 36.678C162.167 36.054 162.461 35.298 162.461 34.41C162.461 33.522 162.167 32.772 161.579 32.16C161.003 31.548 160.301 31.242 159.473 31.242C158.645 31.242 157.937 31.548 157.349 32.16C156.761 32.772 156.467 33.522 156.467 34.41C156.467 35.298 156.755 36.054 157.331 36.678C157.919 37.29 158.633 37.596 159.473 37.596ZM165.927 39V29.838H167.727V30.756C168.087 30.396 168.495 30.126 168.951 29.946C169.419 29.754 169.929 29.658 170.481 29.658C171.525 29.658 172.383 29.994 173.055 30.666C173.727 31.326 174.063 32.184 174.063 33.24V39H172.263V33.546C172.263 32.826 172.053 32.262 171.633 31.854C171.225 31.434 170.679 31.224 169.995 31.224C169.515 31.224 169.077 31.326 168.681 31.53C168.297 31.734 167.979 32.028 167.727 32.412V39H165.927ZM175.906 33.132H182.386V34.68H175.906V33.132ZM184.041 34.41C184.041 33.75 184.161 33.132 184.401 32.556C184.653 31.968 184.995 31.464 185.427 31.044C185.859 30.612 186.363 30.276 186.939 30.036C187.527 29.784 188.151 29.658 188.811 29.658C189.471 29.658 190.089 29.784 190.665 30.036C191.253 30.276 191.757 30.612 192.177 31.044C192.609 31.464 192.945 31.968 193.185 32.556C193.437 33.132 193.563 33.75 193.563 34.41C193.563 35.082 193.437 35.712 193.185 36.3C192.945 36.876 192.609 37.38 192.177 37.812C191.757 38.232 191.253 38.568 190.665 38.82C190.089 39.06 189.471 39.18 188.811 39.18C188.151 39.18 187.527 39.06 186.939 38.82C186.363 38.568 185.859 38.232 185.427 37.812C184.995 37.38 184.653 36.876 184.401 36.3C184.161 35.712 184.041 35.082 184.041 34.41ZM188.811 37.596C189.639 37.596 190.341 37.29 190.917 36.678C191.505 36.054 191.799 35.298 191.799 34.41C191.799 33.522 191.505 32.772 190.917 32.16C190.341 31.548 189.639 31.242 188.811 31.242C187.983 31.242 187.275 31.548 186.687 32.16C186.099 32.772 185.805 33.522 185.805 34.41C185.805 35.298 186.093 36.054 186.669 36.678C187.257 37.29 187.971 37.596 188.811 37.596ZM195.265 39V29.838H197.065V30.756C197.425 30.396 197.833 30.126 198.289 29.946C198.757 29.754 199.267 29.658 199.819 29.658C200.863 29.658 201.721 29.994 202.393 30.666C203.065 31.326 203.401 32.184 203.401 33.24V39H201.601V33.546C201.601 32.826 201.391 32.262 200.971 31.854C200.563 31.434 200.017 31.224 199.333 31.224C198.853 31.224 198.415 31.326 198.019 31.53C197.635 31.734 197.317 32.028 197.065 32.412V39H195.265ZM213.416 37.956C212.888 38.364 212.336 38.67 211.76 38.874C211.184 39.066 210.554 39.162 209.87 39.162C209.198 39.162 208.568 39.042 207.98 38.802C207.392 38.55 206.882 38.214 206.45 37.794C206.018 37.374 205.676 36.876 205.424 36.3C205.184 35.712 205.064 35.082 205.064 34.41C205.064 33.75 205.184 33.132 205.424 32.556C205.664 31.98 205.988 31.482 206.396 31.062C206.804 30.642 207.29 30.312 207.854 30.072C208.418 29.82 209.018 29.694 209.654 29.694C210.278 29.694 210.86 29.82 211.4 30.072C211.952 30.312 212.42 30.648 212.804 31.08C213.2 31.5 213.512 32.004 213.74 32.592C213.968 33.18 214.082 33.81 214.082 34.482V35.004H206.846C206.966 35.76 207.314 36.39 207.89 36.894C208.466 37.386 209.15 37.632 209.942 37.632C210.386 37.632 210.812 37.56 211.22 37.416C211.628 37.272 211.976 37.074 212.264 36.822L213.416 37.956ZM209.618 31.206C208.934 31.206 208.334 31.434 207.818 31.89C207.314 32.346 206.996 32.934 206.864 33.654H212.3C212.168 32.958 211.85 32.376 211.346 31.908C210.854 31.44 210.278 31.206 209.618 31.206ZM222.456 39.162C221.46 39.162 220.65 38.904 220.026 38.388C219.402 37.872 219.09 37.2 219.09 36.372C219.09 35.508 219.42 34.83 220.08 34.338C220.74 33.834 221.646 33.582 222.798 33.582C223.242 33.582 223.674 33.63 224.094 33.726C224.514 33.81 224.916 33.93 225.3 34.086V33.114C225.3 32.466 225.108 31.98 224.724 31.656C224.34 31.332 223.788 31.17 223.068 31.17C222.648 31.17 222.21 31.236 221.754 31.368C221.298 31.488 220.788 31.68 220.224 31.944L219.558 30.594C220.242 30.27 220.89 30.036 221.502 29.892C222.114 29.736 222.72 29.658 223.32 29.658C224.508 29.658 225.426 29.946 226.074 30.522C226.734 31.086 227.064 31.89 227.064 32.934V39H225.3V38.208C224.892 38.532 224.454 38.772 223.986 38.928C223.518 39.084 223.008 39.162 222.456 39.162ZM220.818 36.336C220.818 36.78 221.004 37.14 221.376 37.416C221.76 37.692 222.258 37.83 222.87 37.83C223.35 37.83 223.794 37.758 224.202 37.614C224.61 37.47 224.976 37.254 225.3 36.966V35.382C224.952 35.19 224.586 35.052 224.202 34.968C223.818 34.872 223.398 34.824 222.942 34.824C222.294 34.824 221.778 34.962 221.394 35.238C221.01 35.514 220.818 35.88 220.818 36.336ZM229.138 39V29.838H230.938V30.756C231.298 30.396 231.706 30.126 232.162 29.946C232.63 29.754 233.14 29.658 233.692 29.658C234.736 29.658 235.594 29.994 236.266 30.666C236.938 31.326 237.274 32.184 237.274 33.24V39H235.474V33.546C235.474 32.826 235.264 32.262 234.844 31.854C234.436 31.434 233.89 31.224 233.206 31.224C232.726 31.224 232.288 31.326 231.892 31.53C231.508 31.734 231.19 32.028 230.938 32.412V39H229.138ZM246.371 39V38.136C245.987 38.46 245.555 38.712 245.075 38.892C244.595 39.06 244.091 39.144 243.563 39.144C242.915 39.144 242.309 39.024 241.745 38.784C241.181 38.532 240.689 38.196 240.269 37.776C239.861 37.356 239.537 36.858 239.297 36.282C239.057 35.694 238.937 35.07 238.937 34.41C238.937 33.75 239.057 33.132 239.297 32.556C239.537 31.98 239.861 31.482 240.269 31.062C240.689 30.642 241.187 30.312 241.763 30.072C242.339 29.82 242.951 29.694 243.599 29.694C244.103 29.694 244.589 29.772 245.057 29.928C245.525 30.084 245.957 30.306 246.353 30.594V26.4L248.153 26.004V39H246.371ZM240.701 34.392C240.701 35.292 241.001 36.048 241.601 36.66C242.201 37.272 242.939 37.578 243.815 37.578C244.331 37.578 244.805 37.482 245.237 37.29C245.681 37.098 246.053 36.828 246.353 36.48V32.322C246.053 31.986 245.681 31.722 245.237 31.53C244.793 31.338 244.319 31.242 243.815 31.242C242.939 31.242 242.201 31.542 241.601 32.142C241.001 32.742 240.701 33.492 240.701 34.392ZM258.24 39.072C257.604 39.072 257.004 38.952 256.44 38.712C255.876 38.46 255.384 38.124 254.964 37.704C254.556 37.284 254.232 36.786 253.992 36.21C253.752 35.634 253.632 35.022 253.632 34.374C253.632 33.726 253.752 33.114 253.992 32.538C254.232 31.962 254.556 31.464 254.964 31.044C255.384 30.624 255.876 30.294 256.44 30.054C257.016 29.802 257.628 29.676 258.276 29.676C258.768 29.676 259.242 29.754 259.698 29.91C260.166 30.066 260.598 30.294 260.994 30.594V29.838H262.776V39.126C262.776 40.314 262.41 41.226 261.678 41.862C260.958 42.51 259.926 42.834 258.582 42.834C257.922 42.834 257.268 42.756 256.62 42.6C255.984 42.444 255.408 42.222 254.892 41.934L255.594 40.53C256.11 40.794 256.608 40.992 257.088 41.124C257.568 41.256 258.048 41.322 258.528 41.322C259.32 41.322 259.926 41.136 260.346 40.764C260.766 40.392 260.976 39.846 260.976 39.126V38.1C260.592 38.412 260.166 38.652 259.698 38.82C259.23 38.988 258.744 39.072 258.24 39.072ZM255.396 34.374C255.396 35.25 255.69 35.994 256.278 36.606C256.866 37.206 257.592 37.506 258.456 37.506C258.972 37.506 259.446 37.416 259.878 37.236C260.31 37.044 260.676 36.78 260.976 36.444V32.304C260.688 31.968 260.322 31.71 259.878 31.53C259.446 31.338 258.972 31.242 258.456 31.242C257.592 31.242 256.866 31.548 256.278 32.16C255.69 32.76 255.396 33.498 255.396 34.374ZM264.892 39V29.838H266.692V31.008C266.968 30.564 267.322 30.228 267.754 30C268.186 29.76 268.672 29.64 269.212 29.64C269.404 29.64 269.572 29.652 269.716 29.676C269.86 29.7 269.998 29.736 270.13 29.784V31.404C269.962 31.344 269.788 31.296 269.608 31.26C269.428 31.224 269.248 31.206 269.068 31.206C268.54 31.206 268.066 31.35 267.646 31.638C267.238 31.914 266.92 32.328 266.692 32.88V39H264.892ZM270.595 34.41C270.595 33.75 270.715 33.132 270.955 32.556C271.207 31.968 271.549 31.464 271.981 31.044C272.413 30.612 272.917 30.276 273.493 30.036C274.081 29.784 274.705 29.658 275.365 29.658C276.025 29.658 276.643 29.784 277.219 30.036C277.807 30.276 278.311 30.612 278.731 31.044C279.163 31.464 279.499 31.968 279.739 32.556C279.991 33.132 280.117 33.75 280.117 34.41C280.117 35.082 279.991 35.712 279.739 36.3C279.499 36.876 279.163 37.38 278.731 37.812C278.311 38.232 277.807 38.568 277.219 38.82C276.643 39.06 276.025 39.18 275.365 39.18C274.705 39.18 274.081 39.06 273.493 38.82C272.917 38.568 272.413 38.232 271.981 37.812C271.549 37.38 271.207 36.876 270.955 36.3C270.715 35.712 270.595 35.082 270.595 34.41ZM275.365 37.596C276.193 37.596 276.895 37.29 277.471 36.678C278.059 36.054 278.353 35.298 278.353 34.41C278.353 33.522 278.059 32.772 277.471 32.16C276.895 31.548 276.193 31.242 275.365 31.242C274.537 31.242 273.829 31.548 273.241 32.16C272.653 32.772 272.359 33.522 272.359 34.41C272.359 35.298 272.647 36.054 273.223 36.678C273.811 37.29 274.525 37.596 275.365 37.596ZM283.584 29.838V35.274C283.584 35.994 283.788 36.564 284.196 36.984C284.616 37.404 285.168 37.614 285.852 37.614C286.332 37.614 286.764 37.512 287.148 37.308C287.532 37.092 287.85 36.792 288.102 36.408V29.838H289.902V39H288.102V38.082C287.742 38.442 287.328 38.718 286.86 38.91C286.404 39.09 285.9 39.18 285.348 39.18C284.304 39.18 283.446 38.844 282.774 38.172C282.114 37.5 281.784 36.636 281.784 35.58V29.838H283.584ZM292.033 42.726V29.838H293.815V30.72C294.187 30.384 294.613 30.132 295.093 29.964C295.573 29.784 296.083 29.694 296.623 29.694C297.271 29.694 297.877 29.82 298.441 30.072C299.005 30.312 299.491 30.642 299.899 31.062C300.319 31.482 300.649 31.98 300.889 32.556C301.129 33.132 301.249 33.75 301.249 34.41C301.249 35.07 301.129 35.694 300.889 36.282C300.649 36.858 300.319 37.356 299.899 37.776C299.491 38.196 298.999 38.532 298.423 38.784C297.847 39.024 297.235 39.144 296.587 39.144C296.083 39.144 295.591 39.066 295.111 38.91C294.643 38.754 294.217 38.532 293.833 38.244V42.726H292.033ZM296.389 31.26C295.873 31.26 295.393 31.356 294.949 31.548C294.505 31.74 294.133 32.01 293.833 32.358V36.498C294.121 36.834 294.487 37.098 294.931 37.29C295.387 37.482 295.873 37.578 296.389 37.578C297.265 37.578 297.997 37.278 298.585 36.678C299.185 36.078 299.485 35.328 299.485 34.428C299.485 33.528 299.185 32.778 298.585 32.178C297.985 31.566 297.253 31.26 296.389 31.26ZM4.014 65L0.054 55.838H2.034L4.896 62.696L7.758 55.838H9.684L5.724 65H4.014ZM11.7003 54.362C11.4003 54.362 11.1423 54.254 10.9263 54.038C10.7103 53.81 10.6023 53.546 10.6023 53.246C10.6023 52.946 10.7103 52.688 10.9263 52.472C11.1423 52.244 11.4003 52.13 11.7003 52.13C12.0003 52.13 12.2583 52.244 12.4743 52.472C12.7023 52.688 12.8163 52.946 12.8163 53.246C12.8163 53.546 12.7023 53.81 12.4743 54.038C12.2583 54.254 12.0003 54.362 11.7003 54.362ZM12.6003 55.838V65H10.8003V55.838H12.6003ZM21.7402 65V64.136C21.3562 64.46 20.9242 64.712 20.4442 64.892C19.9642 65.06 19.4602 65.144 18.9322 65.144C18.2842 65.144 17.6782 65.024 17.1142 64.784C16.5502 64.532 16.0582 64.196 15.6382 63.776C15.2302 63.356 14.9062 62.858 14.6662 62.282C14.4262 61.694 14.3062 61.07 14.3062 60.41C14.3062 59.75 14.4262 59.132 14.6662 58.556C14.9062 57.98 15.2302 57.482 15.6382 57.062C16.0582 56.642 16.5562 56.312 17.1322 56.072C17.7082 55.82 18.3202 55.694 18.9682 55.694C19.4722 55.694 19.9582 55.772 20.4262 55.928C20.8942 56.084 21.3262 56.306 21.7222 56.594V52.4L23.5222 52.004V65H21.7402ZM16.0702 60.392C16.0702 61.292 16.3702 62.048 16.9702 62.66C17.5702 63.272 18.3082 63.578 19.1842 63.578C19.7002 63.578 20.1742 63.482 20.6062 63.29C21.0502 63.098 21.4222 62.828 21.7222 62.48V58.322C21.4222 57.986 21.0502 57.722 20.6062 57.53C20.1622 57.338 19.6882 57.242 19.1842 57.242C18.3082 57.242 17.5702 57.542 16.9702 58.142C16.3702 58.742 16.0702 59.492 16.0702 60.392ZM33.5918 63.956C33.0638 64.364 32.5118 64.67 31.9358 64.874C31.3598 65.066 30.7298 65.162 30.0458 65.162C29.3738 65.162 28.7438 65.042 28.1558 64.802C27.5678 64.55 27.0578 64.214 26.6258 63.794C26.1938 63.374 25.8518 62.876 25.5998 62.3C25.3598 61.712 25.2398 61.082 25.2398 60.41C25.2398 59.75 25.3598 59.132 25.5998 58.556C25.8398 57.98 26.1638 57.482 26.5718 57.062C26.9798 56.642 27.4658 56.312 28.0298 56.072C28.5938 55.82 29.1938 55.694 29.8298 55.694C30.4538 55.694 31.0358 55.82 31.5758 56.072C32.1278 56.312 32.5958 56.648 32.9798 57.08C33.3758 57.5 33.6878 58.004 33.9158 58.592C34.1438 59.18 34.2578 59.81 34.2578 60.482V61.004H27.0218C27.1418 61.76 27.4898 62.39 28.0658 62.894C28.6418 63.386 29.3258 63.632 30.1178 63.632C30.5618 63.632 30.9878 63.56 31.3958 63.416C31.8038 63.272 32.1518 63.074 32.4398 62.822L33.5918 63.956ZM29.7938 57.206C29.1098 57.206 28.5098 57.434 27.9938 57.89C27.4898 58.346 27.1718 58.934 27.0398 59.654H32.4758C32.3438 58.958 32.0258 58.376 31.5218 57.908C31.0298 57.44 30.4538 57.206 29.7938 57.206ZM35.5933 60.41C35.5933 59.75 35.7133 59.132 35.9533 58.556C36.2053 57.968 36.5473 57.464 36.9793 57.044C37.4113 56.612 37.9153 56.276 38.4913 56.036C39.0793 55.784 39.7033 55.658 40.3633 55.658C41.0233 55.658 41.6413 55.784 42.2173 56.036C42.8053 56.276 43.3093 56.612 43.7293 57.044C44.1613 57.464 44.4973 57.968 44.7373 58.556C44.9893 59.132 45.1153 59.75 45.1153 60.41C45.1153 61.082 44.9893 61.712 44.7373 62.3C44.4973 62.876 44.1613 63.38 43.7293 63.812C43.3093 64.232 42.8053 64.568 42.2173 64.82C41.6413 65.06 41.0233 65.18 40.3633 65.18C39.7033 65.18 39.0793 65.06 38.4913 64.82C37.9153 64.568 37.4113 64.232 36.9793 63.812C36.5473 63.38 36.2053 62.876 35.9533 62.3C35.7133 61.712 35.5933 61.082 35.5933 60.41ZM40.3633 63.596C41.1913 63.596 41.8933 63.29 42.4693 62.678C43.0573 62.054 43.3513 61.298 43.3513 60.41C43.3513 59.522 43.0573 58.772 42.4693 58.16C41.8933 57.548 41.1913 57.242 40.3633 57.242C39.5353 57.242 38.8273 57.548 38.2393 58.16C37.6513 58.772 37.3573 59.522 37.3573 60.41C37.3573 61.298 37.6453 62.054 38.2213 62.678C38.8093 63.29 39.5233 63.596 40.3633 63.596ZM49.7156 63.812L50.6876 62.624C51.1676 62.996 51.6536 63.284 52.1456 63.488C52.6496 63.68 53.1596 63.776 53.6756 63.776C54.3236 63.776 54.8516 63.65 55.2596 63.398C55.6676 63.146 55.8716 62.816 55.8716 62.408C55.8716 62.084 55.7516 61.826 55.5116 61.634C55.2716 61.442 54.8996 61.31 54.3956 61.238L52.7396 61.004C51.8396 60.872 51.1556 60.596 50.6876 60.176C50.2316 59.744 50.0036 59.174 50.0036 58.466C50.0036 57.638 50.3336 56.972 50.9936 56.468C51.6536 55.952 52.5176 55.694 53.5856 55.694C54.2576 55.694 54.8936 55.79 55.4936 55.982C56.1056 56.174 56.6996 56.468 57.2756 56.864L56.3576 58.052C55.8536 57.716 55.3616 57.476 54.8816 57.332C54.4136 57.176 53.9396 57.098 53.4596 57.098C52.9076 57.098 52.4636 57.212 52.1276 57.44C51.7916 57.668 51.6236 57.968 51.6236 58.34C51.6236 58.676 51.7376 58.934 51.9656 59.114C52.2056 59.282 52.5956 59.408 53.1356 59.492L54.7916 59.726C55.6916 59.858 56.3756 60.14 56.8436 60.572C57.3236 61.004 57.5636 61.574 57.5636 62.282C57.5636 62.69 57.4616 63.074 57.2576 63.434C57.0656 63.782 56.7956 64.082 56.4476 64.334C56.1116 64.586 55.7096 64.79 55.2416 64.946C54.7736 65.09 54.2696 65.162 53.7296 65.162C52.9376 65.162 52.1936 65.048 51.4976 64.82C50.8136 64.592 50.2196 64.256 49.7156 63.812ZM66.9727 63.956C66.4447 64.364 65.8927 64.67 65.3167 64.874C64.7407 65.066 64.1107 65.162 63.4267 65.162C62.7547 65.162 62.1247 65.042 61.5367 64.802C60.9487 64.55 60.4387 64.214 60.0067 63.794C59.5747 63.374 59.2327 62.876 58.9807 62.3C58.7407 61.712 58.6207 61.082 58.6207 60.41C58.6207 59.75 58.7407 59.132 58.9807 58.556C59.2207 57.98 59.5447 57.482 59.9527 57.062C60.3607 56.642 60.8467 56.312 61.4107 56.072C61.9747 55.82 62.5747 55.694 63.2107 55.694C63.8347 55.694 64.4167 55.82 64.9567 56.072C65.5087 56.312 65.9767 56.648 66.3607 57.08C66.7567 57.5 67.0687 58.004 67.2967 58.592C67.5247 59.18 67.6387 59.81 67.6387 60.482V61.004H60.4027C60.5227 61.76 60.8707 62.39 61.4467 62.894C62.0227 63.386 62.7067 63.632 63.4987 63.632C63.9427 63.632 64.3687 63.56 64.7767 63.416C65.1847 63.272 65.5327 63.074 65.8207 62.822L66.9727 63.956ZM63.1747 57.206C62.4907 57.206 61.8907 57.434 61.3747 57.89C60.8707 58.346 60.5527 58.934 60.4207 59.654H65.8567C65.7247 58.958 65.4067 58.376 64.9027 57.908C64.4107 57.44 63.8347 57.206 63.1747 57.206ZM68.5769 63.812L69.5489 62.624C70.0289 62.996 70.5149 63.284 71.0069 63.488C71.5109 63.68 72.0209 63.776 72.5369 63.776C73.1849 63.776 73.7129 63.65 74.1209 63.398C74.5289 63.146 74.7329 62.816 74.7329 62.408C74.7329 62.084 74.6129 61.826 74.3729 61.634C74.1329 61.442 73.7609 61.31 73.2569 61.238L71.6009 61.004C70.7009 60.872 70.0169 60.596 69.5489 60.176C69.0929 59.744 68.8649 59.174 68.8649 58.466C68.8649 57.638 69.1949 56.972 69.8549 56.468C70.5149 55.952 71.3789 55.694 72.4469 55.694C73.1189 55.694 73.7549 55.79 74.3549 55.982C74.9669 56.174 75.5609 56.468 76.1369 56.864L75.2189 58.052C74.7149 57.716 74.2229 57.476 73.7429 57.332C73.2749 57.176 72.8009 57.098 72.3209 57.098C71.7689 57.098 71.3249 57.212 70.9889 57.44C70.6529 57.668 70.4849 57.968 70.4849 58.34C70.4849 58.676 70.5989 58.934 70.8269 59.114C71.0669 59.282 71.4569 59.408 71.9969 59.492L73.6529 59.726C74.5529 59.858 75.2369 60.14 75.7049 60.572C76.1849 61.004 76.4249 61.574 76.4249 62.282C76.4249 62.69 76.3229 63.074 76.1189 63.434C75.9269 63.782 75.6569 64.082 75.3089 64.334C74.9729 64.586 74.5709 64.79 74.1029 64.946C73.6349 65.09 73.1309 65.162 72.5909 65.162C71.7989 65.162 71.0549 65.048 70.3589 64.82C69.6749 64.592 69.0809 64.256 68.5769 63.812ZM77.0496 63.812L78.0216 62.624C78.5016 62.996 78.9876 63.284 79.4796 63.488C79.9836 63.68 80.4936 63.776 81.0096 63.776C81.6576 63.776 82.1856 63.65 82.5936 63.398C83.0016 63.146 83.2056 62.816 83.2056 62.408C83.2056 62.084 83.0856 61.826 82.8456 61.634C82.6056 61.442 82.2336 61.31 81.7296 61.238L80.0736 61.004C79.1736 60.872 78.4896 60.596 78.0216 60.176C77.5656 59.744 77.3376 59.174 77.3376 58.466C77.3376 57.638 77.6676 56.972 78.3276 56.468C78.9876 55.952 79.8516 55.694 80.9196 55.694C81.5916 55.694 82.2276 55.79 82.8276 55.982C83.4396 56.174 84.0336 56.468 84.6096 56.864L83.6916 58.052C83.1876 57.716 82.6956 57.476 82.2156 57.332C81.7476 57.176 81.2736 57.098 80.7936 57.098C80.2416 57.098 79.7976 57.212 79.4616 57.44C79.1256 57.668 78.9576 57.968 78.9576 58.34C78.9576 58.676 79.0716 58.934 79.2996 59.114C79.5396 59.282 79.9296 59.408 80.4696 59.492L82.1256 59.726C83.0256 59.858 83.7096 60.14 84.1776 60.572C84.6576 61.004 84.8976 61.574 84.8976 62.282C84.8976 62.69 84.7956 63.074 84.5916 63.434C84.3996 63.782 84.1296 64.082 83.7816 64.334C83.4456 64.586 83.0436 64.79 82.5756 64.946C82.1076 65.09 81.6036 65.162 81.0636 65.162C80.2716 65.162 79.5276 65.048 78.8316 64.82C78.1476 64.592 77.5536 64.256 77.0496 63.812ZM87.1808 54.362C86.8808 54.362 86.6228 54.254 86.4067 54.038C86.1908 53.81 86.0828 53.546 86.0828 53.246C86.0828 52.946 86.1908 52.688 86.4067 52.472C86.6228 52.244 86.8808 52.13 87.1808 52.13C87.4808 52.13 87.7388 52.244 87.9548 52.472C88.1828 52.688 88.2968 52.946 88.2968 53.246C88.2968 53.546 88.1828 53.81 87.9548 54.038C87.7388 54.254 87.4808 54.362 87.1808 54.362ZM88.0808 55.838V65H86.2808V55.838H88.0808ZM89.7867 60.41C89.7867 59.75 89.9067 59.132 90.1467 58.556C90.3987 57.968 90.7407 57.464 91.1727 57.044C91.6047 56.612 92.1087 56.276 92.6847 56.036C93.2727 55.784 93.8967 55.658 94.5567 55.658C95.2167 55.658 95.8347 55.784 96.4107 56.036C96.9987 56.276 97.5027 56.612 97.9227 57.044C98.3547 57.464 98.6907 57.968 98.9307 58.556C99.1827 59.132 99.3087 59.75 99.3087 60.41C99.3087 61.082 99.1827 61.712 98.9307 62.3C98.6907 62.876 98.3547 63.38 97.9227 63.812C97.5027 64.232 96.9987 64.568 96.4107 64.82C95.8347 65.06 95.2167 65.18 94.5567 65.18C93.8967 65.18 93.2727 65.06 92.6847 64.82C92.1087 64.568 91.6047 64.232 91.1727 63.812C90.7407 63.38 90.3987 62.876 90.1467 62.3C89.9067 61.712 89.7867 61.082 89.7867 60.41ZM94.5567 63.596C95.3847 63.596 96.0867 63.29 96.6627 62.678C97.2507 62.054 97.5447 61.298 97.5447 60.41C97.5447 59.522 97.2507 58.772 96.6627 58.16C96.0867 57.548 95.3847 57.242 94.5567 57.242C93.7287 57.242 93.0207 57.548 92.4327 58.16C91.8447 58.772 91.5507 59.522 91.5507 60.41C91.5507 61.298 91.8387 62.054 92.4147 62.678C93.0027 63.29 93.7167 63.596 94.5567 63.596ZM101.011 65V55.838H102.811V56.756C103.171 56.396 103.579 56.126 104.035 55.946C104.503 55.754 105.013 55.658 105.565 55.658C106.609 55.658 107.467 55.994 108.139 56.666C108.811 57.326 109.147 58.184 109.147 59.24V65H107.347V59.546C107.347 58.826 107.137 58.262 106.717 57.854C106.309 57.434 105.763 57.224 105.079 57.224C104.599 57.224 104.161 57.326 103.765 57.53C103.381 57.734 103.063 58.028 102.811 58.412V65H101.011ZM110.36 63.812L111.332 62.624C111.812 62.996 112.298 63.284 112.79 63.488C113.294 63.68 113.804 63.776 114.32 63.776C114.968 63.776 115.496 63.65 115.904 63.398C116.312 63.146 116.516 62.816 116.516 62.408C116.516 62.084 116.396 61.826 116.156 61.634C115.916 61.442 115.544 61.31 115.04 61.238L113.384 61.004C112.484 60.872 111.8 60.596 111.332 60.176C110.876 59.744 110.648 59.174 110.648 58.466C110.648 57.638 110.978 56.972 111.638 56.468C112.298 55.952 113.162 55.694 114.23 55.694C114.902 55.694 115.538 55.79 116.138 55.982C116.75 56.174 117.344 56.468 117.92 56.864L117.002 58.052C116.498 57.716 116.006 57.476 115.526 57.332C115.058 57.176 114.584 57.098 114.104 57.098C113.552 57.098 113.108 57.212 112.772 57.44C112.436 57.668 112.268 57.968 112.268 58.34C112.268 58.676 112.382 58.934 112.61 59.114C112.85 59.282 113.24 59.408 113.78 59.492L115.436 59.726C116.336 59.858 117.02 60.14 117.488 60.572C117.968 61.004 118.208 61.574 118.208 62.282C118.208 62.69 118.106 63.074 117.902 63.434C117.71 63.782 117.44 64.082 117.092 64.334C116.756 64.586 116.354 64.79 115.886 64.946C115.418 65.09 114.914 65.162 114.374 65.162C113.582 65.162 112.838 65.048 112.142 64.82C111.458 64.592 110.864 64.256 110.36 63.812ZM120.28 62.858C120.592 62.858 120.856 62.972 121.072 63.2C121.3 63.416 121.414 63.68 121.414 63.992C121.414 64.304 121.3 64.574 121.072 64.802C120.856 65.03 120.592 65.144 120.28 65.144C119.968 65.144 119.698 65.03 119.47 64.802C119.242 64.574 119.128 64.304 119.128 63.992C119.128 63.68 119.242 63.416 119.47 63.2C119.698 62.972 119.968 62.858 120.28 62.858Z" fill="#FAFAFA"/>
</svg>
